<svg width="71" height="71" viewBox="0 0 71 71" fill="none" xmlns="http://www.w3.org/2000/svg">
<path d="M37.4161 9.48307C37.4161 9.48307 38.6735 9.50311 40.6673 8.9721C41.9798 8.62143 41.9447 8.5513 44.0888 7.58947C45.3512 7.02339 47.1346 7.01838 48.3369 7.0284C48.3469 7.0284 48.362 7.0284 48.372 7.0284C50.511 7.04844 52.5098 8.09042 53.7422 9.83875C54.1129 10.3647 54.5136 10.9909 54.9595 11.7374C55.9714 13.4356 56.8781 15.1989 57.6897 17.0024C60.5601 23.3945 63.8915 31.3847 68.7357 34.4506C65.6699 36.4393 65.2591 37.5615 59.7586 49.2337C56.823 55.4605 54.0528 67.293 37.4262 67.293" fill="#9A1418"/>
<path d="M37.4161 9.48307C37.4161 9.48307 38.6735 9.50311 40.6673 8.9721C41.9798 8.62143 41.9447 8.5513 44.0888 7.58947C45.3512 7.02339 47.1346 7.01838 48.3369 7.0284C48.3469 7.0284 48.362 7.0284 48.372 7.0284C50.511 7.04844 52.5098 8.09042 53.7422 9.83875C54.1129 10.3647 54.5136 10.9909 54.9595 11.7374C55.9714 13.4356 56.8781 15.1989 57.6897 17.0024C60.5601 23.3945 63.8915 31.3847 68.7357 34.4505C65.6699 36.4393 65.2591 37.5615 59.7586 49.2337C56.823 55.4605 54.0528 67.293 37.4262 67.293" stroke="black" stroke-width="0.2" stroke-miterlimit="10"/>
<path d="M37.7518 9.50809C37.7518 9.50809 36.4994 9.52813 34.5207 8.99712C33.2182 8.64645 33.2533 8.57632 31.1242 7.61449C29.8718 7.04842 28.0934 7.04341 26.9012 7.05343C26.8912 7.05343 26.8811 7.05343 26.8661 7.05343C24.7421 7.07346 22.7533 8.11544 21.526 9.86377C21.1553 10.3898 20.7595 11.016 20.3187 11.7624C19.3117 13.4606 18.41 15.224 17.6035 17.0274C14.7481 23.4195 11.4418 31.4097 6.62762 34.4756C9.67843 36.4643 10.0842 37.5865 15.5546 49.2587C18.4701 55.4855 21.2254 67.318 37.7518 67.318" fill="#9A1418"/>
<path d="M37.7518 9.50809C37.7518 9.50809 36.4994 9.52813 34.5207 8.99712C33.2182 8.64645 33.2533 8.57632 31.1242 7.61449C29.8718 7.04842 28.0934 7.04341 26.9012 7.05343C26.8912 7.05343 26.8811 7.05343 26.8661 7.05343C24.7421 7.07346 22.7533 8.11544 21.526 9.86377C21.1553 10.3898 20.7595 11.016 20.3187 11.7624C19.3117 13.4606 18.41 15.224 17.6035 17.0274C14.7481 23.4195 11.4418 31.4097 6.62762 34.4756C9.67843 36.4643 10.0842 37.5865 15.5546 49.2587C18.4701 55.4855 21.2254 67.318 37.7518 67.318" stroke="black" stroke-width="0.2" stroke-miterlimit="10"/>
<path d="M37.7919 61.011C37.7919 61.011 24.697 59.9891 19.8878 48.9381C15.0787 37.8871 9.24762 34.4104 9.24762 34.4104C9.24762 34.4104 17.0825 25.5436 19.442 21.8967C22.1371 17.7287 29.1204 14.8633 37.7919 14.8633C46.0776 14.8633 52.5249 17.5233 55.5957 21.8215C58.6666 26.1197 60.5051 29.4961 66.3412 34.4054C66.3412 34.4054 60.5101 37.882 55.7009 48.9331C50.8918 59.9841 37.7919 61.011 37.7919 61.011Z" fill="#EDEDED" stroke="black" stroke-width="5" stroke-miterlimit="10"/>
<path d="M9.1474 34.3704C9.1474 34.3704 12.9947 24.5467 32.9126 20.6443C36.1287 20.0131 39.435 20.0031 42.6561 20.6092C61.9728 24.2461 66.246 34.3704 66.246 34.3704C66.246 34.3704 50.3157 56.0316 37.6967 55.9364C25.0827 55.8412 9.1474 34.3704 9.1474 34.3704Z" fill="#1B1B1A" stroke="black" stroke-width="0.3" stroke-miterlimit="10"/>
<path d="M19.3318 25.2229C19.3318 25.2229 28.9951 20.4589 37.6716 20.1633C45.3462 20.539 52.2944 23.3444 52.2944 23.3444C52.2944 23.3444 64.5327 32.7623 57.1286 44.7701C57.1286 44.7701 46.0375 55.9864 37.9171 55.9313C28.6445 55.6257 18.6254 44.9004 18.6254 44.9004C18.6254 44.9004 11.046 34.17 19.3318 25.2229Z" fill="#FEF3EC"/>
<path d="M41.9197 38.368C41.9197 38.353 41.9247 38.3329 41.9247 38.3179C41.9247 38.3229 41.9197 38.353 41.9247 38.3229C41.9298 38.2928 41.9348 38.2678 41.9348 38.2377C41.9448 38.1826 41.9498 38.1225 41.9598 38.0674C41.9748 37.9522 41.9949 37.837 42.0149 37.7268C42.055 37.4963 42.0951 37.2709 42.1452 37.0455C42.2403 36.5946 42.3506 36.1438 42.4808 35.6979C42.5459 35.4775 42.6161 35.2521 42.6862 35.0367C42.7012 34.9866 42.7213 34.9365 42.7363 34.8864C42.7413 34.8663 42.7513 34.8463 42.7563 34.8263C42.7563 34.8212 42.7714 34.7912 42.7563 34.8212C42.7413 34.8563 42.7663 34.8012 42.7663 34.8012C42.7764 34.7862 42.7814 34.7661 42.7914 34.7511C42.7964 34.7411 42.8064 34.7311 42.8114 34.7211C42.8164 34.711 42.8365 34.696 42.8164 34.716C42.7914 34.7411 42.8415 34.691 42.8465 34.691C42.8465 34.691 42.8064 34.716 42.8315 34.701C42.8365 34.696 42.8415 34.696 42.8465 34.691C42.8615 34.681 42.8565 34.686 42.8265 34.696C42.8265 34.696 42.8766 34.686 42.8766 34.681C42.8715 34.686 42.8164 34.681 42.8615 34.686C42.8665 34.686 42.8816 34.686 42.8866 34.686C42.9166 34.681 42.8615 34.691 42.8615 34.681L42.8966 34.691C42.9066 34.691 42.9116 34.696 42.9216 34.701C42.9517 34.706 42.8715 34.676 42.9216 34.701C42.9567 34.7211 42.9968 34.7411 43.0268 34.7661C43.0469 34.7812 43.0669 34.7912 43.0819 34.8062C43.0419 34.7762 43.092 34.8112 43.102 34.8263C43.2473 34.9465 43.3825 35.0767 43.5528 35.1569C44.1941 35.4675 45.0056 35.2471 45.4715 34.7261C46.0225 34.1049 46.0376 33.1781 45.737 32.4417C45.4064 31.6452 44.7601 31.0591 44.0738 30.5631C43.9937 30.503 43.9085 30.4429 43.8234 30.3878C43.8534 30.503 43.8835 30.6183 43.9135 30.7285C43.9536 30.6383 43.9987 30.5531 44.0488 30.468C44.0738 30.4279 44.0989 30.3878 44.1239 30.3477C44.149 30.3127 44.179 30.2475 44.2141 30.2225C44.2141 30.2225 44.184 30.2576 44.2041 30.2375C44.2141 30.2275 44.2191 30.2175 44.2291 30.2075C44.2442 30.1924 44.2592 30.1724 44.2692 30.1574C44.3043 30.1173 44.3343 30.0822 44.3694 30.0422C44.4395 29.972 44.5097 29.9019 44.5848 29.8368C44.5998 29.8217 44.6199 29.8067 44.6349 29.7917C44.6449 29.7817 44.6549 29.7767 44.665 29.7666C44.6599 29.7716 44.6249 29.7967 44.6599 29.7716C44.7 29.7416 44.7401 29.7115 44.7852 29.6815C44.8653 29.6264 44.9455 29.5763 45.0307 29.5312C45.0707 29.5061 45.1158 29.4861 45.1609 29.4661C45.1809 29.456 45.201 29.446 45.221 29.436C45.231 29.431 45.2461 29.426 45.2561 29.421C45.201 29.441 45.2461 29.426 45.2561 29.421C45.3463 29.3859 45.4414 29.3508 45.5366 29.3258C45.6268 29.3007 45.722 29.2807 45.8171 29.2657C45.8322 29.2657 45.8422 29.2607 45.8572 29.2607C45.9023 29.2506 45.8522 29.2607 45.8472 29.2607C45.8672 29.2557 45.8923 29.2557 45.9123 29.2507C45.9624 29.2456 46.0125 29.2406 46.0626 29.2406C46.2981 29.2306 46.5485 29.2657 46.774 29.1805C47.0295 29.0853 47.1847 28.89 47.3451 28.6796C47.5054 28.4642 47.6657 28.2487 47.821 28.0333C48.1766 27.5524 48.5323 27.0765 48.883 26.5956C48.8128 26.6357 48.7377 26.6808 48.6676 26.7208C49.4841 26.6407 50.2756 26.3952 50.982 25.9844C51.1773 25.8742 51.3627 25.749 51.543 25.6087C51.6482 25.5286 51.7134 25.3883 51.6332 25.2681C51.5681 25.1629 51.4028 25.0927 51.2926 25.1779C51.0321 25.3733 50.7565 25.5486 50.466 25.6939C50.3959 25.729 50.3207 25.764 50.2456 25.7991C50.2105 25.8141 50.1804 25.8291 50.1454 25.8442C50.1955 25.8241 50.1304 25.8492 50.1253 25.8542C50.1003 25.8642 50.0752 25.8742 50.0552 25.8842C49.9049 25.9444 49.7496 25.9945 49.5943 26.0395C49.439 26.0846 49.2787 26.1247 49.1184 26.1548C49.0433 26.1698 48.9681 26.1848 48.888 26.1948C48.868 26.1998 48.8429 26.1998 48.8229 26.2049C48.873 26.1998 48.8329 26.2049 48.8229 26.2049C48.7728 26.2099 48.7277 26.2149 48.6776 26.2199C48.5624 26.2349 48.5023 26.275 48.4371 26.3652C48.4121 26.4002 48.387 26.4353 48.362 26.4704C48.3019 26.5555 48.2367 26.6357 48.1766 26.7208C48.0614 26.8711 47.9512 27.0264 47.836 27.1767C47.6106 27.4823 47.3851 27.7879 47.1597 28.0934C47.1096 28.1636 47.0545 28.2337 47.0044 28.3038C46.9743 28.3439 46.9493 28.379 46.9192 28.4191C46.9092 28.4341 46.8942 28.4491 46.8842 28.4692C46.8792 28.4792 46.8241 28.5493 46.8591 28.4992C46.814 28.5543 46.769 28.6044 46.7189 28.6495C46.6738 28.6946 46.7589 28.6295 46.7038 28.6595C46.6888 28.6695 46.6738 28.6796 46.6587 28.6846C46.6487 28.6896 46.6036 28.7096 46.6487 28.6896C46.6237 28.6996 46.5936 28.7096 46.5636 28.7146C46.5485 28.7196 46.5335 28.7196 46.5235 28.7247C46.4534 28.7397 46.5736 28.7246 46.5035 28.7297C46.4684 28.7297 46.4283 28.7347 46.3932 28.7347C46.3031 28.7347 46.2179 28.7347 46.1277 28.7347C45.9724 28.7347 45.8171 28.7547 45.6619 28.7798C45.3713 28.8298 45.0908 28.93 44.8303 29.0653C44.2492 29.3659 43.7482 29.8618 43.4827 30.463C43.4226 30.5932 43.4526 30.7235 43.5729 30.8036C43.658 30.8637 43.7382 30.9188 43.8234 30.9789C43.8634 31.009 43.8985 31.034 43.9386 31.0641C43.9586 31.0791 43.9786 31.0942 43.9987 31.1092C44.0087 31.1142 44.0137 31.1242 44.0237 31.1292C44.0287 31.1342 44.0638 31.1593 44.0438 31.1443C44.0237 31.1292 44.0488 31.1493 44.0538 31.1493C44.0638 31.1593 44.0788 31.1693 44.0889 31.1743C44.1039 31.1893 44.1239 31.1994 44.139 31.2144C44.179 31.2495 44.2241 31.2845 44.2642 31.3196C44.3393 31.3847 44.4145 31.4498 44.4846 31.515C44.6299 31.6552 44.7702 31.8005 44.8954 31.9558C44.9054 31.9708 44.9355 32.0059 44.9104 31.9708C44.9255 31.9909 44.9405 32.0109 44.9555 32.0309C44.9856 32.071 45.0156 32.1111 45.0407 32.1562C45.0958 32.2413 45.1459 32.3265 45.191 32.4117C45.211 32.4517 45.231 32.4918 45.2511 32.5319C45.2611 32.5469 45.2761 32.592 45.2611 32.5469C45.2711 32.572 45.2811 32.597 45.2911 32.6271C45.3262 32.7172 45.3563 32.8124 45.3813 32.9076C45.3913 32.9527 45.4014 32.9978 45.4114 33.0379C45.4164 33.0629 45.4214 33.0879 45.4264 33.108C45.4264 33.118 45.4314 33.128 45.4314 33.138C45.4364 33.1731 45.4264 33.098 45.4314 33.133C45.4414 33.2282 45.4464 33.3234 45.4464 33.4236C45.4464 33.4687 45.4464 33.5138 45.4414 33.5588C45.4414 33.5839 45.4364 33.6039 45.4364 33.629C45.4364 33.659 45.4364 33.6139 45.4414 33.6139C45.4414 33.629 45.4364 33.639 45.4364 33.654C45.4214 33.7492 45.4014 33.8394 45.3713 33.9295C45.3663 33.9546 45.3563 33.9746 45.3463 33.9947C45.3412 34.0047 45.3212 34.0548 45.3312 34.0297C45.3463 33.9997 45.3312 34.0347 45.3262 34.0398C45.3212 34.0498 45.3162 34.0648 45.3062 34.0748C45.2962 34.0999 45.2811 34.1249 45.2661 34.15C45.2461 34.185 45.226 34.2151 45.206 34.2502C45.196 34.2652 45.1859 34.2752 45.1759 34.2902C45.1409 34.3403 45.201 34.2602 45.1659 34.3053C45.1158 34.3654 45.0607 34.4205 45.0006 34.4756C44.9856 34.4856 44.9755 34.4956 44.9605 34.5056C44.9355 34.5307 45.0006 34.4806 44.9705 34.4956C44.9655 34.5006 44.9555 34.5056 44.9505 34.5107C44.9204 34.5357 44.8854 34.5557 44.8503 34.5758C44.8202 34.5958 44.7852 34.6108 44.7551 34.6309C44.7401 34.6409 44.7201 34.6509 44.7 34.6559C44.69 34.6609 44.685 34.6609 44.675 34.6659C44.6399 34.681 44.665 34.681 44.68 34.6659C44.6549 34.686 44.6048 34.696 44.5798 34.706C44.5447 34.716 44.5046 34.7311 44.4696 34.7411C44.4295 34.7511 44.3944 34.7561 44.3544 34.7661C44.3494 34.7661 44.3293 34.7661 44.3293 34.7711C44.3293 34.7711 44.3844 34.7661 44.3544 34.7661C44.3343 34.7661 44.3093 34.7711 44.2892 34.7711C44.2141 34.7762 44.144 34.7762 44.0688 34.7661C44.0638 34.7661 44.0438 34.7611 44.0388 34.7611C44.0388 34.7611 44.0889 34.7711 44.0638 34.7661C44.0438 34.7611 44.0287 34.7611 44.0087 34.7561C43.9736 34.7461 43.9336 34.7411 43.8985 34.7261C43.8785 34.7211 43.8634 34.716 43.8434 34.706C43.8434 34.706 43.8234 34.696 43.8183 34.696C43.8183 34.696 43.8634 34.7211 43.8434 34.706C43.8083 34.686 43.7682 34.671 43.7332 34.6509C43.7031 34.6309 43.6731 34.6108 43.643 34.5908C43.618 34.5758 43.658 34.6008 43.658 34.6008C43.653 34.6008 43.638 34.5858 43.633 34.5808C43.613 34.5658 43.5929 34.5457 43.5729 34.5307C43.4877 34.4606 43.4026 34.3904 43.3174 34.3253C43.1471 34.2001 42.9266 34.1149 42.7162 34.18C42.4758 34.2552 42.3506 34.4555 42.2704 34.676C42.1953 34.8814 42.1301 35.0918 42.065 35.3022C41.7995 36.1738 41.5991 37.0605 41.4689 37.9622C41.4488 38.0925 41.4338 38.2177 41.4138 38.348C41.3987 38.4782 41.539 38.6034 41.6642 38.5984C41.8195 38.6084 41.8997 38.5083 41.9197 38.368Z" fill="#640E06"/>
<path d="M45.4815 34.661C45.5717 34.6209 45.6819 34.676 45.757 34.7311C45.8422 34.7962 45.9073 34.8814 45.9724 34.9666C46.1177 35.1619 46.278 35.3573 46.5385 35.3924C46.799 35.4325 47.0495 35.3072 47.2649 35.172C47.4803 35.0367 47.6807 34.8914 47.9161 34.7862C48.362 34.5858 48.8579 34.5007 49.3439 34.5358C49.5893 34.5508 49.8298 34.6009 50.0602 34.676C50.3057 34.7562 50.5311 34.8864 50.7716 34.9866C51.0571 35.1068 51.3477 35.182 51.6532 35.1169C51.9538 35.0567 52.2193 34.8864 52.4748 34.7211C52.6101 34.6359 52.4848 34.4155 52.3496 34.5057C52.1292 34.646 51.9037 34.7962 51.6482 34.8614C51.3928 34.9265 51.1423 34.8714 50.9068 34.7762C50.6614 34.676 50.4309 34.5458 50.1855 34.4556C49.945 34.3704 49.6995 34.3203 49.449 34.2903C48.9531 34.2402 48.4371 34.3103 47.9712 34.4907C47.7308 34.5858 47.5154 34.7061 47.305 34.8463C47.1146 34.9716 46.8892 35.1419 46.6537 35.1469C46.3882 35.1519 46.253 34.9014 46.1077 34.7211C45.9324 34.4957 45.6518 34.3103 45.3613 34.4406C45.3011 34.4706 45.2861 34.5558 45.3162 34.6109C45.3512 34.681 45.4214 34.691 45.4815 34.661Z" fill="#640E06"/>
<path d="M58.3059 31.3196C57.7298 31.4448 57.1537 31.57 56.5776 31.7003C56.5074 31.7153 56.4373 31.7303 56.3722 31.7454C56.3371 31.7554 56.297 31.7604 56.262 31.7704C56.252 31.7754 56.2119 31.7754 56.267 31.7704C56.262 31.7704 56.252 31.7704 56.247 31.7704C56.287 31.7704 56.3221 31.7854 56.3471 31.8155C56.3321 31.8005 56.3271 31.7854 56.3622 31.8355C56.3421 31.8055 56.3822 31.8406 56.3722 31.8556L56.3672 31.8255C56.3872 31.8406 56.3722 31.8806 56.3722 31.8456C56.3722 31.7905 56.3772 31.7354 56.3822 31.6802C56.4123 31.4147 56.4073 31.1442 56.3722 30.8787C56.3321 30.5631 56.257 30.2575 56.1317 29.962C56.0917 29.8718 56.0065 29.7616 55.8913 29.7766C55.5306 29.8267 55.1699 29.8718 54.8092 29.9219C54.4786 29.967 54.1429 30.0271 53.8023 30.0221C53.7221 30.0221 53.647 30.0171 53.5669 30.0121C53.4917 30.0071 53.6169 30.0221 53.5468 30.0071C53.5318 30.0021 53.5168 30.0021 53.5017 29.997C53.4566 29.987 53.4166 29.977 53.3715 29.967C53.3314 29.957 53.2913 29.9419 53.2563 29.9269C53.2462 29.9219 53.1961 29.9019 53.2462 29.9219C53.2262 29.9119 53.2062 29.9069 53.1911 29.8969C53.121 29.8618 53.0559 29.8217 52.9908 29.7816C52.7253 29.6163 52.4798 29.4159 52.1742 29.3308C51.8436 29.2406 51.4528 29.2757 51.2074 29.5412C51.1172 29.6364 51.1072 29.8017 51.2074 29.8969C51.3025 29.987 51.4679 29.997 51.563 29.8969C51.5731 29.8818 51.5881 29.8718 51.5981 29.8618C51.6382 29.8217 51.563 29.8818 51.5931 29.8618C51.6181 29.8468 51.6382 29.8317 51.6632 29.8167C51.7083 29.7967 51.6582 29.8117 51.6582 29.8167C51.6582 29.8117 51.7033 29.8017 51.7083 29.8017C51.7183 29.7967 51.7284 29.7967 51.7434 29.7917C51.7534 29.7866 51.7634 29.7866 51.7784 29.7866C51.7985 29.7816 51.7985 29.7816 51.7784 29.7866C51.7384 29.7816 51.7885 29.7866 51.7985 29.7866C51.8135 29.7866 51.8336 29.7866 51.8486 29.7866C51.8786 29.7866 51.9087 29.7917 51.9388 29.7917C51.9888 29.7967 51.9287 29.7866 51.9237 29.7917C51.9337 29.7866 51.9638 29.7967 51.9788 29.8017C52.0139 29.8067 52.049 29.8167 52.084 29.8267C52.1091 29.8367 52.1492 29.8418 52.1692 29.8568C52.1341 29.8317 52.1391 29.8418 52.1592 29.8518C52.1742 29.8618 52.1942 29.8668 52.2093 29.8768C52.2794 29.9119 52.3445 29.952 52.4096 29.992C52.5349 30.0722 52.6551 30.1574 52.7854 30.2375C53.0859 30.4178 53.4116 30.508 53.7622 30.518C54.0828 30.5281 54.4085 30.473 54.7241 30.4279C55.1148 30.3728 55.5106 30.3227 55.9013 30.2676C55.8211 30.2074 55.741 30.1473 55.6608 30.0822C55.771 30.3477 55.8462 30.6232 55.8863 30.9088C55.8813 30.8587 55.8863 30.8988 55.8863 30.9088C55.8863 30.9288 55.8913 30.9438 55.8913 30.9639C55.8963 30.999 55.8963 31.029 55.9013 31.0641C55.9063 31.1392 55.9113 31.2144 55.9113 31.2895C55.9113 31.4348 55.9013 31.575 55.8863 31.7203C55.8712 31.8556 55.8863 32.0009 55.9714 32.1111C56.0366 32.1962 56.1317 32.2463 56.2419 32.2563C56.3271 32.2614 56.4123 32.2363 56.4974 32.2213C56.803 32.1562 57.1036 32.086 57.4092 32.0209C57.7598 31.9458 58.1055 31.8656 58.4562 31.7905C58.5864 31.7604 58.6716 31.6051 58.6315 31.4799C58.5664 31.3596 58.4411 31.2895 58.3059 31.3196Z" fill="#640E06"/>
<path d="M50.0502 51.027C50.0502 50.491 50.0552 49.955 50.0552 49.419C50.0552 49.2036 50.0702 48.9631 49.985 48.7577C49.9049 48.5523 49.7446 48.377 49.5192 48.3269C49.1735 48.2518 48.8629 48.4572 48.5673 48.6024C48.5373 48.6175 48.5022 48.6325 48.4722 48.6475C48.4621 48.6525 48.4571 48.6525 48.4471 48.6575C48.4171 48.6726 48.4972 48.6375 48.4672 48.6475C48.4471 48.6525 48.4271 48.6626 48.4121 48.6676C48.377 48.6776 48.3469 48.6876 48.3119 48.6976C48.2968 48.7026 48.2818 48.7026 48.2668 48.7076C48.2167 48.7177 48.3269 48.7076 48.2668 48.7076C48.2517 48.7076 48.2367 48.7076 48.2167 48.7076C48.1816 48.7076 48.1616 48.6876 48.2217 48.7126C48.2067 48.7076 48.1916 48.7076 48.1766 48.7026C48.1666 48.6976 48.1065 48.6776 48.1465 48.6926C48.1866 48.7076 48.1365 48.6876 48.1265 48.6826L48.1015 48.6676C48.1115 48.6626 48.1415 48.7026 48.1165 48.6776C48.1115 48.6726 48.0764 48.6325 48.0764 48.6325C48.0814 48.6325 48.1115 48.6826 48.0864 48.6475C48.0814 48.6375 48.0714 48.6275 48.0664 48.6125C48.0614 48.6024 48.0564 48.5924 48.0514 48.5824C48.0363 48.5574 48.0614 48.6325 48.0564 48.5974C48.0514 48.5774 48.0464 48.5624 48.0413 48.5423C48.0363 48.5273 48.0363 48.4872 48.0263 48.4772C48.0413 48.4922 48.0313 48.5273 48.0313 48.4972C48.0313 48.4822 48.0313 48.4722 48.0313 48.4572C48.0313 48.4371 48.0313 48.4121 48.0313 48.392C48.0313 48.382 48.0313 48.372 48.0363 48.357C48.0363 48.3219 48.0263 48.4071 48.0363 48.372C48.0514 48.3269 48.0564 48.2818 48.0714 48.2367C48.0764 48.2267 48.0864 48.1967 48.0664 48.2418C48.0714 48.2317 48.0764 48.2217 48.0814 48.2117C48.0914 48.1866 48.1065 48.1616 48.1165 48.1366C48.1465 48.0865 48.1766 48.0364 48.2067 47.9863C48.2668 47.8911 48.3369 47.8059 48.402 47.7107C48.4722 47.6106 48.5473 47.5003 48.5774 47.3751C48.6124 47.2198 48.5623 47.0645 48.4471 46.9493C48.2718 46.779 48.0113 46.7489 47.7859 46.6938C46.7489 46.4433 45.7119 46.1828 44.6799 45.8973C44.4245 45.8272 44.169 45.757 43.9185 45.6869C43.8133 45.6568 43.7081 45.6318 43.6079 45.5967C43.5678 45.5817 43.5127 45.5717 43.4777 45.5466C43.4827 45.5516 43.5328 45.5717 43.4877 45.5516C43.4777 45.5466 43.4676 45.5416 43.4576 45.5366C43.4326 45.5266 43.4125 45.5116 43.3875 45.5015C43.3725 45.4965 43.2823 45.4464 43.2823 45.4364C43.2823 45.4364 43.3224 45.4715 43.2923 45.4464C43.2823 45.4414 43.2773 45.4314 43.2673 45.4264C43.2472 45.4114 43.2322 45.3913 43.2172 45.3763C43.1771 45.3312 43.2372 45.4164 43.2071 45.3663C43.1971 45.3513 43.1871 45.3362 43.1821 45.3212C43.157 45.2811 43.1921 45.3362 43.1871 45.3362C43.1871 45.3362 43.1771 45.3112 43.1771 45.3062C43.1721 45.2962 43.1721 45.2861 43.1671 45.2761C43.1671 45.2661 43.1621 45.2611 43.1621 45.2511C43.157 45.231 43.1621 45.241 43.1671 45.2711C43.1721 45.2661 43.1671 45.216 43.1671 45.211C43.1721 45.1459 43.157 45.2511 43.1721 45.191C43.1771 45.1659 43.1871 45.1459 43.1921 45.1258C43.2021 45.1008 43.1871 45.1409 43.1821 45.1459C43.1871 45.1459 43.2021 45.1008 43.2071 45.0958C43.2172 45.0757 43.2322 45.0557 43.2472 45.0306C43.2522 45.0206 43.2572 45.0156 43.2622 45.0056C43.2823 44.9755 43.2322 45.0407 43.2572 45.0106C43.2923 44.9705 43.3274 44.9254 43.3674 44.8904C43.4075 44.8553 43.4426 44.8202 43.4827 44.7852C43.4977 44.7702 43.5177 44.7551 43.5378 44.7401C43.5678 44.715 43.5027 44.7651 43.5328 44.7451C43.5478 44.7351 43.5578 44.7251 43.5728 44.715C43.678 44.6349 43.7432 44.4946 43.663 44.3744C43.5979 44.2692 43.4326 44.1991 43.3224 44.2842C42.9567 44.5547 42.5208 44.9755 42.7162 45.4765C42.8865 45.9223 43.3725 46.0576 43.7882 46.1778C44.8252 46.4684 45.8672 46.7439 46.9142 47.0044C47.1747 47.0695 47.4352 47.1296 47.6957 47.1948C47.8109 47.2198 47.9311 47.2449 48.0413 47.2799C48.1015 47.3 48.0063 47.2599 48.0614 47.2849C48.0814 47.295 48.0965 47.31 48.1165 47.32C48.1465 47.335 48.0764 47.2899 48.1015 47.31C48.1115 47.315 48.1265 47.345 48.1065 47.315C48.0864 47.2849 48.1015 47.31 48.1065 47.32C48.1215 47.345 48.0864 47.2649 48.1015 47.31C48.1015 47.3 48.0965 47.2449 48.0965 47.295C48.0965 47.2549 48.1015 47.2849 48.0914 47.2899C48.0914 47.2899 48.1215 47.2348 48.0914 47.2899C48.0864 47.3 48.0764 47.315 48.0714 47.325C48.0413 47.3751 48.0113 47.4202 47.9812 47.4653C47.9161 47.5605 47.846 47.6506 47.7809 47.7458C47.6506 47.9462 47.5504 48.1616 47.5404 48.4021C47.5304 48.6175 47.6005 48.8529 47.7608 49.0082C47.9011 49.1435 48.1015 49.2136 48.3018 49.1936C48.4822 49.1735 48.6475 49.1084 48.8128 49.0282C48.883 48.9932 48.9531 48.9581 49.0232 48.918C49.0533 48.903 49.0883 48.888 49.1184 48.8729C49.1334 48.8629 49.1535 48.8579 49.1685 48.8479C49.1785 48.8429 49.1835 48.8429 49.1935 48.8379C49.2236 48.8229 49.1384 48.8579 49.1785 48.8429C49.2086 48.8329 49.2436 48.8178 49.2787 48.8078C49.2937 48.8028 49.3088 48.7978 49.3288 48.7928C49.3388 48.7878 49.4039 48.7778 49.3538 48.7878C49.3038 48.7928 49.3639 48.7878 49.3739 48.7878C49.3889 48.7878 49.3989 48.7878 49.414 48.7878C49.4741 48.7878 49.3689 48.7728 49.4039 48.7878C49.414 48.7928 49.454 48.8078 49.459 48.8028C49.454 48.8028 49.3989 48.7728 49.434 48.7928C49.439 48.7978 49.449 48.7978 49.454 48.8028C49.4691 48.8078 49.4791 48.8178 49.4891 48.8279C49.5142 48.8429 49.449 48.7928 49.4741 48.8178C49.4841 48.8279 49.4891 48.8329 49.4991 48.8429C49.5091 48.8529 49.5242 48.878 49.5091 48.8529C49.4941 48.8178 49.5142 48.8629 49.5192 48.8679C49.5242 48.878 49.5292 48.888 49.5342 48.898C49.5542 48.9381 49.5292 48.893 49.5292 48.888C49.5242 48.898 49.5492 48.9431 49.5492 48.9531C49.5542 48.9782 49.5592 48.9982 49.5642 49.0232C49.5693 49.0433 49.5793 49.0533 49.5642 49.0132C49.5693 49.0282 49.5693 49.0433 49.5693 49.0583C49.5893 49.3038 49.5743 49.5492 49.5743 49.7947C49.5743 50.0652 49.5743 50.3407 49.5743 50.6113C49.5743 50.7415 49.5743 50.8768 49.5743 51.007C49.5743 51.1373 49.6895 51.2625 49.8247 51.2575C49.935 51.2725 50.0452 51.1673 50.0502 51.027Z" fill="#640E06"/>
<path d="M48.2016 46.8992C48.1916 46.8791 48.1816 46.8591 48.1716 46.834C48.1716 46.834 48.1565 46.799 48.1666 46.819C48.1766 46.844 48.1615 46.799 48.1565 46.794C48.1365 46.7489 48.1215 46.6988 48.1014 46.6537C48.0664 46.5585 48.0363 46.4633 48.0113 46.3681C47.9862 46.273 47.9612 46.1728 47.9411 46.0726C47.9311 46.0225 47.9211 45.9724 47.9111 45.9223C47.9061 45.8972 47.9011 45.8772 47.9011 45.8522C47.9011 45.8371 47.891 45.767 47.896 45.8171C47.891 45.772 47.886 45.7219 47.886 45.6768C47.886 45.6568 47.891 45.6317 47.886 45.6117C47.886 45.5816 47.886 45.6217 47.881 45.6267C47.886 45.6067 47.886 45.5917 47.891 45.5716C47.896 45.5566 47.9161 45.5065 47.9011 45.5416C47.881 45.5766 47.9061 45.5316 47.9111 45.5215C47.9161 45.5065 47.9261 45.4965 47.9361 45.4815C47.9461 45.4614 47.9211 45.5015 47.9211 45.5015C47.9261 45.5015 47.9411 45.4815 47.9461 45.4714C47.9562 45.4614 47.9662 45.4514 47.9762 45.4414C47.9812 45.4414 47.9912 45.4314 47.9912 45.4264C47.9912 45.4264 47.9461 45.4564 47.9712 45.4414C48.0012 45.4213 48.0313 45.4013 48.0614 45.3863C48.0764 45.3763 48.0914 45.3712 48.1014 45.3662C48.1064 45.3612 48.1165 45.3612 48.1215 45.3562C48.1465 45.3412 48.1265 45.3612 48.1215 45.3562C48.1215 45.3562 48.0964 45.3662 48.1215 45.3562C48.1315 45.3512 48.1415 45.3462 48.1515 45.3462C48.1716 45.3412 48.1866 45.3312 48.2066 45.3262C48.3469 45.2811 48.4872 45.246 48.6274 45.2059C48.7877 45.1558 48.943 45.0857 49.0883 44.9955C49.3739 44.8152 49.6193 44.5597 49.7896 44.2591C49.955 43.9636 50.0551 43.6279 50.0602 43.2873C50.0652 42.8865 49.9299 42.5008 49.7596 42.1451C49.454 41.5189 49.0332 40.9128 48.4471 40.522C48.1565 40.3267 47.8159 40.2064 47.4652 40.1764C47.4302 40.1714 47.4001 40.1714 47.365 40.1664C47.3199 40.1613 47.4151 40.1764 47.37 40.1664C47.35 40.1613 47.33 40.1563 47.3099 40.1513C47.2949 40.1463 47.2799 40.1413 47.2648 40.1363C47.2248 40.1263 47.3049 40.1613 47.2699 40.1363C47.2648 40.1313 47.2548 40.1263 47.2498 40.1263C47.2298 40.1213 47.2699 40.1413 47.2749 40.1463C47.2749 40.1463 47.2598 40.1313 47.2548 40.1263C47.2598 40.1263 47.2899 40.1764 47.2749 40.1463C47.2749 40.1413 47.2999 40.2014 47.2899 40.1764C47.2799 40.1513 47.2949 40.2114 47.2949 40.2064C47.2949 40.2064 47.2849 40.2515 47.2949 40.2215C47.2999 40.1964 47.2899 40.2315 47.2899 40.2315C47.3199 40.1864 47.35 40.1413 47.3801 40.1012C47.4402 40.0161 47.5053 39.9259 47.5654 39.8407C47.6255 39.7556 47.6907 39.6654 47.7508 39.5802C47.8259 39.475 47.7708 39.2947 47.6606 39.2396C47.5303 39.1695 47.4001 39.2145 47.3199 39.3298C47.1947 39.5051 47.0695 39.6854 46.9392 39.8608C46.8641 39.966 46.7939 40.0712 46.799 40.2064C46.799 40.3166 46.844 40.4269 46.9292 40.497C47.0695 40.6272 47.2648 40.6523 47.4452 40.6623C47.4652 40.6623 47.4803 40.6673 47.5003 40.6673C47.5053 40.6673 47.5203 40.6723 47.5303 40.6723C47.5103 40.6823 47.4853 40.6673 47.5203 40.6723C47.5604 40.6773 47.6055 40.6873 47.6456 40.6974C47.7207 40.7174 47.7959 40.7374 47.871 40.7675C47.896 40.7775 47.9161 40.7825 47.876 40.7675C47.896 40.7725 47.9161 40.7825 47.9361 40.7925C47.9712 40.8076 48.0063 40.8276 48.0413 40.8477C48.1115 40.8877 48.1816 40.9328 48.2517 40.9779C48.2667 40.9879 48.2818 40.9979 48.2968 41.008C48.3018 41.013 48.3168 41.018 48.3168 41.023C48.3118 41.008 48.2818 40.9979 48.3118 41.018C48.3419 41.043 48.3719 41.0681 48.407 41.0981C48.4721 41.1532 48.5323 41.2133 48.5924 41.2735C48.6475 41.3336 48.7026 41.3937 48.7577 41.4588C48.7727 41.4738 48.7877 41.4939 48.7978 41.5089C48.8028 41.5139 48.8378 41.559 48.8178 41.534C48.7978 41.5089 48.8178 41.534 48.8228 41.539C48.8328 41.549 48.8378 41.559 48.8478 41.569C48.8629 41.5891 48.8729 41.6041 48.8879 41.6241C48.9881 41.7594 49.0783 41.9047 49.1635 42.0499C49.2085 42.1251 49.2486 42.2052 49.2887 42.2854C49.3087 42.3305 49.3338 42.3705 49.3538 42.4156C49.3638 42.4357 49.3738 42.4557 49.3839 42.4757C49.3889 42.4908 49.3939 42.5008 49.4039 42.5158C49.4039 42.5208 49.4239 42.5609 49.4139 42.5359C49.4039 42.5108 49.4189 42.5459 49.4189 42.5459C49.4239 42.5559 49.429 42.5659 49.429 42.5759C49.439 42.601 49.449 42.626 49.459 42.6511C49.474 42.6962 49.4891 42.7412 49.5041 42.7863C49.5342 42.8815 49.5542 42.9817 49.5692 43.0819C49.5642 43.0418 49.5692 43.0769 49.5692 43.0969C49.5692 43.117 49.5742 43.137 49.5742 43.157C49.5742 43.1971 49.5792 43.2322 49.5742 43.2723C49.5742 43.3123 49.5692 43.3474 49.5692 43.3875C49.5692 43.4075 49.5642 43.4225 49.5642 43.4426C49.5592 43.4777 49.5742 43.3925 49.5642 43.4276C49.5642 43.4376 49.5592 43.4526 49.5592 43.4626C49.5442 43.5378 49.5291 43.6129 49.5041 43.688C49.4941 43.7231 49.4791 43.7632 49.464 43.7983C49.459 43.8133 49.449 43.8333 49.444 43.8484C49.444 43.8433 49.469 43.7983 49.449 43.8383C49.444 43.8484 49.439 43.8584 49.434 43.8684C49.3989 43.9385 49.3638 44.0037 49.3238 44.0688C49.3037 44.0988 49.2837 44.1339 49.2586 44.164C49.2536 44.169 49.2186 44.214 49.2386 44.189C49.2586 44.164 49.2386 44.189 49.2386 44.194C49.2286 44.204 49.2186 44.2191 49.2085 44.2291C49.1584 44.2892 49.1083 44.3443 49.0482 44.3944C49.0182 44.4194 48.9931 44.4445 48.9631 44.4695C48.928 44.4996 48.9981 44.4445 48.9581 44.4745C48.938 44.4896 48.918 44.5046 48.903 44.5146C48.8378 44.5597 48.7727 44.5948 48.7076 44.6298C48.6875 44.6399 48.6725 44.6499 48.6525 44.6549C48.6475 44.6599 48.6324 44.6599 48.6274 44.6649C48.6274 44.6649 48.6725 44.6449 48.6475 44.6549C48.6074 44.6699 48.5723 44.6849 48.5323 44.695C48.392 44.74 48.2467 44.7701 48.1064 44.8202C47.9411 44.8753 47.7858 44.9454 47.6506 45.0607C47.4953 45.1909 47.4201 45.3813 47.4051 45.5816C47.3951 45.6919 47.4151 45.8021 47.4302 45.9123C47.4452 46.0175 47.4602 46.1177 47.4853 46.2229C47.5303 46.4232 47.5855 46.6236 47.6606 46.814C47.7007 46.9192 47.7458 47.0294 47.7908 47.1296C47.8459 47.2498 48.0263 47.2849 48.1315 47.2198C48.2367 47.1596 48.2567 47.0244 48.2016 46.8992Z" fill="#640E06"/>
<path d="M53.111 41.6492C53.1961 41.4939 53.3715 41.4388 53.5418 41.4238C53.7722 41.4037 53.9977 41.4538 54.2281 41.4538C54.4686 41.4538 54.709 41.3837 54.8793 41.2034C55.0346 41.038 55.1098 40.8176 55.1398 40.5972C55.1749 40.3317 55.1348 40.0612 55.1348 39.7957C55.1348 39.7005 55.1148 39.5502 55.1849 39.4701C55.23 39.415 55.3152 39.42 55.3803 39.435C55.4855 39.46 55.5707 39.5151 55.6608 39.5703C55.771 39.6354 55.8863 39.6905 56.0165 39.7005C56.2319 39.7205 56.4122 39.5803 56.5174 39.3999C56.6477 39.1745 56.6828 38.909 56.7429 38.6635C56.813 38.3479 56.8882 38.0323 56.9583 37.7167C56.9934 37.5614 56.7529 37.4913 56.7178 37.6516C56.6527 37.9321 56.5926 38.2127 56.5275 38.4932C56.4774 38.7236 56.4423 38.9691 56.3471 39.1895C56.287 39.3348 56.1818 39.4801 56.0115 39.455C55.9013 39.44 55.8011 39.3699 55.7059 39.3148C55.6107 39.2597 55.5105 39.2146 55.4003 39.1945C55.2901 39.1795 55.1749 39.1795 55.0747 39.2396C54.9745 39.3047 54.9144 39.4099 54.8944 39.5252C54.8493 39.8007 54.8994 40.0812 54.8994 40.3567C54.8994 40.5671 54.8693 40.7826 54.7541 40.9629C54.6339 41.1483 54.4385 41.2084 54.2281 41.2134C53.9676 41.2134 53.7171 41.1583 53.4617 41.1933C53.2362 41.2234 53.0158 41.3286 52.9006 41.534C52.8204 41.6642 53.0358 41.7895 53.111 41.6492Z" fill="#640E06"/>
<path d="M34.9565 38.869C33.5638 38.338 32.1562 37.8521 30.7335 37.4112C30.3277 37.286 29.9219 37.1607 29.5162 37.0405C29.3609 36.9954 29.1955 37.1207 29.2006 37.281C29.2056 37.5365 29.2156 37.7919 29.2206 38.0474C29.3458 37.9773 29.4711 37.9021 29.5963 37.832C29.0453 37.5264 28.4892 37.2209 27.9381 36.9153C27.6726 36.77 27.4121 36.6097 27.1366 36.4744C26.9964 36.4043 26.8411 36.3542 26.6808 36.3592C26.5205 36.3642 26.3752 36.4143 26.2349 36.4794C26.0045 36.5846 25.7891 36.7249 25.5536 36.8101C25.3031 36.9002 25.0376 36.9654 24.7771 37.0105C24.2712 37.1006 23.7352 37.1257 23.2092 37.1858C22.9236 37.2209 22.6431 37.2609 22.3625 37.3261C22.1221 37.3812 21.8616 37.4663 21.7013 37.6617C21.6061 37.7769 21.556 37.9122 21.531 38.0574C21.5209 38.1176 21.5159 38.1727 21.5009 38.2328C21.4959 38.2428 21.4809 38.2929 21.4859 38.2829C21.4809 38.2929 21.4759 38.3029 21.4709 38.3129C21.4558 38.333 21.4959 38.2929 21.4608 38.3229C21.4458 38.333 21.4107 38.358 21.4458 38.338C21.4258 38.348 21.4107 38.358 21.3907 38.368C21.4308 38.348 21.3857 38.368 21.3657 38.373C21.3406 38.3781 21.3156 38.3881 21.2855 38.3881C21.2554 38.3931 21.2905 38.3881 21.2955 38.3881C21.2855 38.3881 21.2705 38.3881 21.2605 38.3931C21.2304 38.3931 21.2053 38.3931 21.1753 38.3931C21.1502 38.3931 21.1252 38.3931 21.1001 38.3881C21.0901 38.3881 21.0751 38.3881 21.0651 38.3831C21.0601 38.3831 21.015 38.3781 21.035 38.3781C21.0501 38.3781 20.9949 38.373 20.9799 38.368C20.9549 38.363 20.9298 38.358 20.9098 38.353C20.8346 38.338 20.7645 38.3179 20.6894 38.2979C20.5391 38.2628 20.3938 38.2228 20.2435 38.1877C19.9329 38.1125 19.6273 38.0374 19.3168 37.9623C18.7056 37.812 18.0944 37.6617 17.4783 37.5114C17.338 37.4763 17.1927 37.4413 17.0525 37.4062C16.9973 37.3912 16.9422 37.3761 16.8871 37.3561C16.8721 37.3511 16.8621 37.3461 16.8471 37.3411C16.8471 37.3411 16.807 37.3261 16.827 37.3361C16.827 37.3361 16.7819 37.311 16.7619 37.301C16.7519 37.296 16.7018 37.2609 16.7268 37.281C16.7068 37.2659 16.6868 37.2459 16.6717 37.2309C16.6918 37.2559 16.6467 37.1958 16.6417 37.1808C16.6367 37.1708 16.6317 37.1457 16.6216 37.1157C16.6016 37.0355 16.6166 36.8952 16.6367 36.8001C16.7469 36.1889 16.8721 35.5827 16.9873 34.9766C17.0174 34.8213 17.0474 34.666 17.0775 34.5107C17.1025 34.3805 17.0424 34.2402 16.9022 34.2001C16.7819 34.165 16.6216 34.2402 16.5916 34.3754C16.4713 35.0066 16.3461 35.6378 16.2259 36.264C16.1708 36.5546 16.0806 36.8602 16.1207 37.1557C16.1608 37.4713 16.3712 37.6817 16.6567 37.802C16.9122 37.9072 17.1927 37.9522 17.4632 38.0174C17.7738 38.0925 18.0794 38.1677 18.39 38.2428C19.0162 38.3981 19.6374 38.5484 20.2636 38.7037C20.7294 38.8189 21.3556 39.0493 21.7714 38.6886C21.8716 38.6035 21.9417 38.4782 21.9718 38.348C21.9868 38.2879 21.9918 38.2228 22.0019 38.1576C22.0069 38.1276 22.0119 38.0975 22.0169 38.0725C22.0219 38.0574 22.0219 38.0424 22.0269 38.0324C22.0269 38.0274 22.0469 37.9923 22.0319 38.0124C22.052 37.9773 22.072 37.9522 22.1021 37.9322C22.1171 37.9172 22.2073 37.8721 22.2323 37.8621C22.3175 37.827 22.4627 37.7919 22.5729 37.7719C23.63 37.5465 24.7721 37.6467 25.7991 37.2309C25.9343 37.1758 26.0696 37.1157 26.1948 37.0455C26.305 36.9854 26.4253 36.9103 26.5355 36.8752C26.6457 36.8401 26.7208 36.8401 26.8361 36.8852C26.9613 36.9353 27.0915 37.0205 27.2118 37.0856C27.7778 37.3962 28.3389 37.7068 28.905 38.0224C29.0453 38.0975 29.1855 38.1777 29.3258 38.2528C29.4861 38.343 29.7065 38.2328 29.7015 38.0374C29.6965 37.7819 29.6865 37.5264 29.6815 37.2709C29.5763 37.3511 29.4711 37.4313 29.3659 37.5114C30.7936 37.9322 32.2113 38.3931 33.6139 38.899C34.0147 39.0443 34.4105 39.1896 34.8112 39.3399C34.9365 39.39 35.0867 39.2848 35.1218 39.1645C35.1719 39.0343 35.0817 38.9191 34.9565 38.869Z" fill="#640E06"/>
<path d="M26.0345 36.8301C26.0295 36.4744 26.0295 36.1187 26.0245 35.758C26.0245 35.5927 26.0144 35.4224 26.0245 35.2571C26.0245 35.247 26.0245 35.232 26.0295 35.222C26.0295 35.217 26.0295 35.212 26.0295 35.202C26.0345 35.1719 26.0345 35.1769 26.0295 35.212C26.0245 35.1919 26.0445 35.1469 26.0495 35.1268C26.0495 35.1218 26.0545 35.1168 26.0545 35.1118C26.0645 35.0867 26.0645 35.0918 26.0495 35.1218C26.0545 35.1218 26.0645 35.0968 26.0645 35.0918C26.0695 35.0867 26.0695 35.0817 26.0746 35.0767C26.0896 35.0567 26.0896 35.0567 26.0645 35.0867C26.0746 35.0767 26.0796 35.0717 26.0896 35.0617C26.0846 35.0667 26.0746 35.0717 26.0695 35.0767C26.0796 35.0667 26.1046 35.0567 26.1196 35.0467C26.1196 35.0467 26.1747 35.0166 26.1397 35.0367C26.1046 35.0567 26.1597 35.0266 26.1647 35.0266C26.1948 35.0116 26.2298 35.0016 26.2599 34.9866C26.335 34.9515 26.4102 34.9114 26.4653 34.8463C26.5955 34.701 26.6256 34.5157 26.5955 34.3253C26.5555 34.0398 26.3601 33.7692 26.1497 33.5789C25.9243 33.3735 25.6588 33.2282 25.3732 33.128C25.0576 33.0128 24.722 32.9677 24.3914 32.9276C24.216 32.9076 24.0407 32.8876 23.8704 32.8675C23.8553 32.8675 23.8403 32.8625 23.8253 32.8625C23.7451 32.8525 23.8754 32.8725 23.7952 32.8575C23.7551 32.8525 23.7151 32.8475 23.675 32.8375C23.5998 32.8274 23.5197 32.8124 23.4446 32.7924C23.4295 32.7874 23.3995 32.7824 23.3894 32.7723C23.4245 32.8024 23.4095 32.7824 23.3945 32.7723C23.3844 32.7673 23.3544 32.7573 23.3444 32.7423C23.3494 32.7473 23.3594 32.7523 23.3644 32.7573C23.3594 32.7523 23.3494 32.7423 23.3444 32.7373L23.3394 32.7323C23.3193 32.7122 23.3243 32.7122 23.3444 32.7373C23.3394 32.7323 23.3193 32.6972 23.3143 32.6872C23.3193 32.7273 23.3243 32.7122 23.3193 32.6922C23.3143 32.6671 23.3043 32.6421 23.2993 32.617C23.2993 32.607 23.2893 32.587 23.2943 32.577C23.2893 32.6371 23.2943 32.582 23.2943 32.567C23.2893 32.5319 23.2893 32.4968 23.2842 32.4618C23.2792 32.3716 23.2692 32.2814 23.2642 32.1862C23.2091 31.3797 23.149 30.5732 23.0939 29.7666C23.0889 29.6765 23.0488 29.5963 22.9686 29.5512C22.8935 29.5061 22.7883 29.5011 22.7182 29.5512C22.4927 29.7065 22.2573 29.8468 22.0118 29.972C21.8916 30.0321 21.7664 30.0922 21.6461 30.1423C21.6111 30.1574 21.6812 30.1273 21.6461 30.1423C21.6311 30.1474 21.6111 30.1574 21.596 30.1624C21.566 30.1774 21.5309 30.1874 21.5009 30.1974C21.4357 30.2225 21.3656 30.2475 21.3005 30.2726C21.1752 30.3177 21.0801 30.4479 21.1251 30.5832C21.1652 30.7034 21.3005 30.8036 21.4357 30.7585C21.9818 30.5682 22.5028 30.3127 22.9787 29.982C22.8534 29.9119 22.7282 29.8368 22.603 29.7666C22.653 30.483 22.7031 31.1943 22.7532 31.9107C22.7683 32.091 22.7783 32.2764 22.7933 32.4567C22.8033 32.6271 22.8184 32.7974 22.9035 32.9527C23.0839 33.2933 23.5247 33.3134 23.8603 33.3534C24.0357 33.3735 24.211 33.3935 24.3813 33.4136C24.4214 33.4186 24.4615 33.4236 24.5016 33.4286C24.5767 33.4386 24.4715 33.4236 24.5166 33.4286C24.5366 33.4336 24.5567 33.4336 24.5767 33.4386C24.6619 33.4536 24.752 33.4637 24.8372 33.4837C24.9875 33.5138 25.1328 33.5538 25.278 33.6039C25.3081 33.6139 25.3382 33.624 25.3682 33.639C25.3081 33.6139 25.4033 33.654 25.4133 33.659C25.4784 33.6891 25.5385 33.7242 25.5986 33.7592C25.6237 33.7743 25.6538 33.7943 25.6788 33.8093C25.6938 33.8193 25.7089 33.8294 25.7239 33.8394C25.7339 33.8444 25.784 33.8794 25.7339 33.8444C25.789 33.8794 25.8391 33.9346 25.8842 33.9796C25.9042 33.9997 25.9243 34.0247 25.9443 34.0498C25.9543 34.0598 25.9643 34.0748 25.9744 34.0848C25.9994 34.1149 25.9393 34.0347 25.9744 34.0848C26.0144 34.1399 26.0495 34.2001 26.0796 34.2602C26.0896 34.2752 26.0996 34.2952 26.1046 34.3103C26.0846 34.2552 26.0946 34.2902 26.0996 34.3002C26.1096 34.3303 26.1196 34.3654 26.1246 34.3954C26.1246 34.4004 26.1246 34.4004 26.1246 34.4054C26.1297 34.4355 26.1297 34.4305 26.1246 34.3904C26.1297 34.3954 26.1246 34.4355 26.1246 34.4455V34.4806C26.1297 34.4405 26.1297 34.4355 26.1246 34.4656C26.1196 34.4756 26.1196 34.4856 26.1146 34.4956C26.1146 34.4956 26.1397 34.4505 26.1196 34.4806C26.0896 34.5307 26.1597 34.4455 26.1146 34.4856C26.0746 34.5257 26.1447 34.4706 26.1146 34.4856C26.0996 34.4906 26.0896 34.5006 26.0746 34.5107C26.0645 34.5157 26.0094 34.5457 26.0645 34.5157C26.0545 34.5207 26.0395 34.5257 26.0295 34.5307C25.9794 34.5507 25.9293 34.5708 25.8842 34.5958C25.5135 34.7912 25.5435 35.232 25.5435 35.5877C25.5486 35.9935 25.5486 36.3992 25.5536 36.805C25.5536 36.9353 25.6688 37.0605 25.804 37.0555C25.9193 37.0755 26.0345 36.9703 26.0345 36.8301Z" fill="#640E06"/>
<path d="M31.0941 22.0269C31.0691 22.2774 31.044 22.5228 31.024 22.7733C31.014 22.8985 30.9989 23.0238 30.9889 23.149C30.9789 23.2742 30.9488 23.4095 30.9939 23.5297C31.0891 23.7902 31.3596 23.8503 31.5951 23.9205C31.8355 23.9906 32.071 24.0607 32.3114 24.1359C32.5519 24.206 32.7873 24.2762 33.0278 24.3513C33.133 24.3814 33.2432 24.4114 33.3484 24.4465C33.3935 24.4615 33.4386 24.4765 33.4786 24.4916L33.5037 24.5016C33.4987 24.5066 33.4586 24.4815 33.4937 24.4966C33.5137 24.5066 33.5387 24.5166 33.5588 24.5316C33.5788 24.5417 33.5989 24.5567 33.6189 24.5717C33.654 24.5968 33.5838 24.5417 33.6289 24.5817C33.6439 24.5968 33.659 24.6118 33.674 24.6268C33.699 24.6519 33.664 24.6268 33.669 24.6168C33.669 24.6168 33.684 24.6418 33.689 24.6469C33.694 24.6569 33.7041 24.6719 33.7091 24.6819C33.7041 24.6719 33.694 24.6368 33.7091 24.6819C33.7141 24.707 33.7191 24.732 33.7241 24.7521C33.7291 24.7821 33.7241 24.742 33.7241 24.737C33.7241 24.7521 33.7241 24.7671 33.7291 24.7821C33.7291 24.8122 33.7291 24.8422 33.7291 24.8673C33.7291 24.9174 33.7191 24.9675 33.7141 25.0176C33.7091 25.0677 33.7141 25.0276 33.7141 25.0176C33.7141 25.0326 33.7091 25.0476 33.7091 25.0626C33.7041 25.0927 33.699 25.1228 33.694 25.1528C33.679 25.268 33.659 25.3782 33.6389 25.4885C33.4786 26.3902 33.2332 27.3019 33.2782 28.2237C33.2883 28.4541 33.3183 28.6845 33.3684 28.91C33.3935 29.0202 33.4235 29.1254 33.4586 29.2306C33.4736 29.2807 33.4937 29.3308 33.5137 29.3758C33.5237 29.4059 33.5337 29.4309 33.5438 29.461C33.5488 29.476 33.5387 29.4911 33.5488 29.471C33.5538 29.461 33.5588 29.4109 33.5488 29.446C33.5337 29.4861 33.5788 29.4009 33.5488 29.446C33.5337 29.471 33.5888 29.4159 33.5588 29.4309C33.5538 29.436 33.5488 29.441 33.5438 29.446L33.5187 29.466C33.5187 29.461 33.5688 29.4309 33.5287 29.456C33.5087 29.466 33.4937 29.481 33.4736 29.4911C33.3985 29.5311 33.3233 29.5612 33.2532 29.6063C33.0829 29.7115 32.9376 29.8618 32.8424 30.0371C32.6471 30.3928 32.622 30.8336 32.8224 31.1943C33.0228 31.55 33.4085 31.7754 33.8143 31.8055C33.9145 31.8105 34.0197 31.8005 34.1198 31.7804C34.2501 31.7554 34.3353 31.5951 34.2952 31.4698C34.2501 31.3346 34.1249 31.2694 33.9846 31.2945C33.9746 31.2945 33.9595 31.2995 33.9495 31.2995C33.9345 31.3045 33.9245 31.2945 33.9495 31.2995C33.9796 31.3045 33.9545 31.2995 33.9395 31.2995C33.9295 31.2995 33.9245 31.2995 33.9145 31.2995C33.8694 31.2995 33.8293 31.2995 33.7842 31.2945C33.7491 31.2945 33.8343 31.3045 33.7992 31.2945C33.7892 31.2945 33.7842 31.2895 33.7742 31.2895C33.7542 31.2845 33.7341 31.2795 33.7141 31.2745C33.679 31.2644 33.6289 31.2344 33.5938 31.2344C33.6239 31.2344 33.6289 31.2494 33.6039 31.2394C33.5938 31.2344 33.5838 31.2294 33.5738 31.2244C33.5588 31.2143 33.5438 31.2093 33.5287 31.1993C33.4886 31.1793 33.4536 31.1442 33.4135 31.1242C33.4135 31.1242 33.4486 31.1542 33.4285 31.1342C33.4185 31.1242 33.4085 31.1192 33.4035 31.1141C33.3885 31.0991 33.3734 31.0891 33.3584 31.0741C33.3434 31.059 33.3283 31.044 33.3183 31.029C33.3133 31.024 33.3083 31.014 33.3033 31.0089C33.2732 30.9739 33.3233 31.039 33.3033 31.014C33.2833 30.9789 33.2582 30.9488 33.2382 30.9138C33.2332 30.8987 33.2081 30.8737 33.2131 30.8587C33.2131 30.8587 33.2332 30.9037 33.2231 30.8787C33.2181 30.8637 33.2131 30.8537 33.2081 30.8386C33.1981 30.7985 33.1881 30.7635 33.1781 30.7234C33.168 30.6783 33.1831 30.7735 33.1781 30.7134C33.1781 30.6933 33.1731 30.6683 33.1731 30.6483C33.1731 30.6082 33.1781 30.5681 33.1781 30.528C33.1831 30.493 33.168 30.5781 33.1781 30.5431C33.1781 30.533 33.1831 30.528 33.1831 30.518C33.1881 30.498 33.1931 30.4729 33.1981 30.4529C33.2081 30.4128 33.2231 30.3777 33.2332 30.3377C33.2482 30.2976 33.2131 30.3777 33.2382 30.3277C33.2482 30.3026 33.2632 30.2826 33.2732 30.2575C33.2933 30.2225 33.3233 30.1924 33.3384 30.1573C33.3384 30.1573 33.3083 30.1924 33.3233 30.1724C33.3283 30.1673 33.3334 30.1573 33.3384 30.1523C33.3534 30.1323 33.3734 30.1122 33.3885 30.0972C33.4035 30.0822 33.4185 30.0722 33.4335 30.0571C33.4386 30.0521 33.4486 30.0471 33.4536 30.0421C33.4786 30.0221 33.4135 30.0672 33.4436 30.0521C33.4786 30.0271 33.5137 30.007 33.5538 29.987C33.7141 29.9018 33.9044 29.8267 33.9846 29.6514C34.0497 29.5161 34.0447 29.3708 33.9896 29.2306C33.9495 29.1304 33.9145 29.0302 33.8794 28.925C33.8493 28.8198 33.8243 28.7096 33.8042 28.6044C33.7992 28.5793 33.7942 28.5543 33.7892 28.5292C33.7892 28.5142 33.7792 28.4441 33.7842 28.4992C33.7792 28.4441 33.7692 28.389 33.7692 28.3339C33.7491 28.1185 33.7542 27.9081 33.7642 27.6926C33.7692 27.5824 33.7792 27.4772 33.7892 27.367C33.7942 27.3169 33.7992 27.2618 33.8093 27.2117C33.8143 27.1616 33.8093 27.2017 33.8093 27.2117C33.8093 27.2017 33.8143 27.1867 33.8143 27.1767C33.8193 27.1416 33.8243 27.1065 33.8293 27.0765C33.8944 26.6356 33.9896 26.1998 34.0698 25.764C34.1098 25.5335 34.1499 25.3081 34.18 25.0777C34.21 24.8372 34.2301 24.5817 34.0948 24.3663C33.9746 24.171 33.7792 24.0607 33.5738 23.9856C33.3684 23.9054 33.148 23.8554 32.9376 23.7902C32.4767 23.655 32.0159 23.5147 31.55 23.3794C31.5299 23.3744 31.5049 23.3644 31.4848 23.3594C31.4748 23.3544 31.4648 23.3494 31.4498 23.3494C31.4247 23.3394 31.4698 23.3544 31.4698 23.3594C31.4648 23.3544 31.4247 23.3344 31.4147 23.3294C31.3847 23.3143 31.4498 23.3594 31.4247 23.3344C31.4047 23.3143 31.4548 23.3845 31.4297 23.3394C31.4348 23.3544 31.4398 23.3644 31.4398 23.3794C31.4498 23.4045 31.4398 23.3794 31.4398 23.3694C31.4398 23.3394 31.4398 23.3143 31.4448 23.2843C31.4498 23.2242 31.4548 23.159 31.4648 23.0989C31.4899 22.8585 31.5099 22.618 31.5349 22.3775C31.545 22.2573 31.56 22.1371 31.57 22.0169C31.585 21.8866 31.4448 21.7614 31.3195 21.7664C31.1943 21.7814 31.1041 21.8866 31.0941 22.0269Z" fill="#640E06"/>
<path d="M33.8393 25.8241C34.4405 25.9343 35.0366 26.0546 35.6378 26.1497C36.1287 26.2299 36.6497 26.28 37.1406 26.1447C37.4162 26.0696 37.6716 25.9243 37.872 25.7189C37.7318 25.6588 37.5865 25.5987 37.4462 25.5436C37.4011 25.9644 37.351 26.3902 37.3059 26.811C37.2959 26.9212 37.2809 27.0264 37.2709 27.1366C37.2558 27.2568 37.2508 27.3771 37.321 27.4873C37.3911 27.5975 37.5013 27.6476 37.6165 27.6927C37.7117 27.7327 37.8119 27.7678 37.9071 27.8079C38.3028 27.9632 38.6986 28.1185 39.0943 28.2688C39.1394 28.2838 39.1845 28.3038 39.2296 28.3189C39.2396 28.3239 39.2496 28.3239 39.2546 28.3289C39.2546 28.3289 39.2146 28.3088 39.2396 28.3239C39.2597 28.3339 39.2797 28.3439 39.2997 28.3539C39.3348 28.369 39.3699 28.389 39.3999 28.409C39.4099 28.414 39.415 28.4191 39.425 28.4241C39.45 28.4391 39.4149 28.414 39.4149 28.414C39.43 28.4191 39.46 28.4541 39.4701 28.4641C39.4851 28.4792 39.5001 28.5092 39.4801 28.4742C39.4901 28.4892 39.5001 28.5092 39.5101 28.5243C39.5151 28.5343 39.5202 28.5443 39.5252 28.5493C39.5402 28.5743 39.5202 28.5343 39.5202 28.5343C39.5302 28.5443 39.5352 28.5844 39.5402 28.5994C39.5452 28.6194 39.5502 28.6395 39.5552 28.6595C39.5552 28.6695 39.5652 28.7296 39.5602 28.6946C39.5552 28.6645 39.5652 28.7246 39.5652 28.7347C39.5652 28.7597 39.5702 28.7898 39.5702 28.8148C39.5903 29.2857 39.5803 29.7566 39.5853 30.2225C39.5853 30.3527 39.7005 30.478 39.8358 30.473C39.971 30.4679 40.0862 30.3627 40.0862 30.2225C40.0812 29.7967 40.0762 29.3709 40.0712 28.9451C40.0712 28.7597 40.0662 28.5643 39.9961 28.389C39.9159 28.1886 39.7756 28.0333 39.5853 27.9331C39.4099 27.8379 39.2096 27.7728 39.0242 27.7027C38.8288 27.6275 38.6285 27.5474 38.4331 27.4723C38.2327 27.3921 38.0273 27.317 37.8269 27.2368C37.8019 27.2268 37.7818 27.2168 37.7568 27.2118C37.7468 27.2068 37.7368 27.2017 37.7267 27.2017C37.7017 27.1917 37.7468 27.2118 37.7468 27.2118C37.7468 27.2068 37.7067 27.1867 37.7017 27.1867C37.7317 27.1867 37.7468 27.2468 37.7568 27.2669C37.7668 27.2919 37.7568 27.2669 37.7568 27.2568C37.7568 27.2468 37.7568 27.2368 37.7618 27.2218C37.7618 27.1967 37.7668 27.1717 37.7718 27.1466C37.7768 27.0865 37.7869 27.0314 37.7919 26.9713C37.842 26.4954 37.8971 26.0195 37.9472 25.5386C37.9572 25.4434 37.877 25.3432 37.7919 25.3081C37.7017 25.2681 37.5865 25.2881 37.5163 25.3582C37.4813 25.3983 37.4412 25.4334 37.3961 25.4684C37.361 25.4985 37.4011 25.4634 37.4061 25.4634C37.4011 25.4735 37.3811 25.4835 37.3711 25.4885C37.346 25.5035 37.321 25.5185 37.2959 25.5336C37.2508 25.5586 37.2058 25.5837 37.1557 25.6037C37.1206 25.6187 37.2158 25.5837 37.1607 25.6037C37.1506 25.6087 37.1406 25.6137 37.1306 25.6137C37.1056 25.6237 37.0755 25.6338 37.0505 25.6438C37.0004 25.6588 36.9503 25.6738 36.8952 25.6839C36.8701 25.6889 36.8501 25.6939 36.825 25.6989C36.81 25.7039 36.795 25.7039 36.7799 25.7039C36.7599 25.7089 36.7699 25.7039 36.8 25.6989C36.79 25.6989 36.7799 25.6989 36.7749 25.7039C36.6647 25.7189 36.5495 25.7239 36.4343 25.7189C36.3191 25.7189 36.2089 25.7089 36.0986 25.6989C36.0435 25.6939 35.9834 25.6889 35.9283 25.6788C35.8832 25.6738 35.9333 25.6788 35.9383 25.6788C35.9233 25.6788 35.9083 25.6738 35.8933 25.6738C35.8632 25.6688 35.8331 25.6638 35.7981 25.6588C35.5276 25.6187 35.2621 25.5636 34.9915 25.5135C34.6509 25.4534 34.3102 25.3883 33.9696 25.3282C33.8393 25.3031 33.6941 25.3632 33.659 25.5035C33.634 25.6388 33.6991 25.7991 33.8393 25.8241Z" fill="#640E06"/>
<path d="M42.576 24.3212C42.5609 24.1609 42.5058 24.0206 42.4557 23.8704C42.4157 23.7602 42.3806 23.6499 42.4056 23.5397C42.4157 23.4896 42.4307 23.4496 42.4557 23.4095C42.4658 23.3945 42.4758 23.3794 42.4908 23.3644C42.4958 23.3594 42.5209 23.3444 42.5209 23.3444C42.6211 23.2993 42.7363 23.4045 42.8164 23.4696C43.0469 23.6399 43.3224 23.7251 43.6029 23.7802C43.8634 23.8303 44.2091 23.9305 44.4495 23.7602C44.6549 23.6199 44.725 23.2342 44.4645 23.1089C44.4044 23.0789 44.3293 23.0939 44.2942 23.154C44.2642 23.2091 44.2792 23.2943 44.3393 23.3243C44.3644 23.3394 44.3543 23.3293 44.3744 23.3494C44.3644 23.3394 44.3744 23.3494 44.3744 23.3544C44.3644 23.3343 44.3794 23.3694 44.3794 23.3744C44.3794 23.3794 44.3844 23.3995 44.3794 23.3794C44.3794 23.3895 44.3794 23.3995 44.3794 23.4045C44.3794 23.4295 44.3794 23.4345 44.3644 23.4696C44.3543 23.4946 44.3393 23.5197 44.3143 23.5447C44.2892 23.5648 44.2291 23.5898 44.184 23.5948C44.0538 23.6149 43.9135 23.5798 43.7883 23.5598C43.653 23.5347 43.5178 23.5097 43.3825 23.4696C43.2573 23.4345 43.132 23.3844 43.0218 23.3093C42.9116 23.2392 42.8164 23.144 42.6862 23.0989C42.4307 23.0187 42.2203 23.2191 42.1602 23.4546C42.1251 23.5948 42.1401 23.7301 42.1852 23.8654C42.2303 24.0156 42.3055 24.1609 42.3205 24.3212C42.3255 24.3863 42.3756 24.4465 42.4457 24.4465C42.5108 24.4465 42.581 24.3863 42.576 24.3212Z" fill="#640E06"/>
<path d="M26.5354 25.9845C26.4803 26.3301 26.4152 26.6808 26.3701 27.0315C26.3501 27.1818 26.3701 27.3421 26.4954 27.4473C26.6106 27.5424 26.7659 27.5725 26.9112 27.5925C27.0765 27.6176 27.2418 27.6226 27.4021 27.6026C27.4872 27.5925 27.5674 27.5825 27.6526 27.5625C27.7177 27.5475 27.7878 27.5174 27.8579 27.5174C27.9682 27.5224 27.9331 27.6677 27.9281 27.7428C27.9181 27.8931 27.9231 28.0384 27.9481 28.1837C28.0032 28.5193 28.1535 28.8299 28.3739 29.0854C28.419 29.1355 28.5042 29.1305 28.5493 29.0854C28.5994 29.0353 28.5943 28.9601 28.5493 28.91C28.3689 28.6996 28.2537 28.4492 28.1986 28.1787C28.1735 28.0434 28.1635 27.9031 28.1735 27.7629C28.1836 27.6376 28.1936 27.5024 28.1184 27.3922C28.0233 27.2619 27.868 27.2519 27.7227 27.2819C27.5774 27.312 27.4371 27.3521 27.2869 27.3571C27.1366 27.3621 26.9863 27.3571 26.841 27.322C26.7308 27.297 26.6106 27.2669 26.6106 27.1317C26.6106 27.0515 26.6256 26.9764 26.6406 26.8962C26.6557 26.801 26.6707 26.7008 26.6857 26.6057C26.7158 26.4203 26.7458 26.235 26.7759 26.0496C26.7859 25.9845 26.7609 25.9143 26.6907 25.8943C26.6306 25.8793 26.5455 25.9143 26.5354 25.9845Z" fill="#640E06"/>
<path d="M35.753 45.3011C36.0536 45.5716 36.3441 45.8522 36.6347 46.1377C36.7749 46.278 36.9202 46.4233 37.0555 46.5635C37.0855 46.5936 37.1106 46.6236 37.1406 46.6537C37.1456 46.6637 37.1557 46.6687 37.1607 46.6787C37.1607 46.6737 37.1406 46.6437 37.1506 46.6687C37.1657 46.6888 37.1757 46.7138 37.1907 46.7389C37.2108 46.7639 37.1807 46.7238 37.1857 46.7238C37.1907 46.7238 37.1957 46.7489 37.1957 46.7489L37.2007 46.7789C37.1957 46.7789 37.2007 46.7288 37.1957 46.7589V46.789C37.1907 46.789 37.2108 46.7439 37.1957 46.7689C37.1957 46.7689 37.1907 46.794 37.1857 46.794C37.1807 46.794 37.2108 46.7489 37.1857 46.784C37.1807 46.794 37.1657 46.824 37.1557 46.829C37.1557 46.829 37.1857 46.794 37.1657 46.814C37.1607 46.819 37.1506 46.829 37.1456 46.834C37.1156 46.8641 37.0855 46.8942 37.0555 46.9242C36.9853 46.9893 36.9102 47.0545 36.835 47.1196C36.6848 47.2548 36.5345 47.3851 36.3842 47.5153C36.0836 47.7708 35.778 48.0263 35.4724 48.2718C35.3973 48.3319 35.3172 48.392 35.242 48.4521C35.2069 48.4822 35.1669 48.5122 35.1318 48.5373C35.1118 48.5523 35.0967 48.5673 35.0767 48.5824C35.0516 48.5974 35.0767 48.5824 35.0817 48.5774C35.0717 48.5874 35.0567 48.5974 35.0466 48.6074C34.8913 48.7276 34.736 48.8429 34.5757 48.9631C34.2601 49.1985 33.9345 49.429 33.6089 49.6494C33.0078 50.0652 32.3715 50.491 32.086 51.1923C31.9507 51.5179 31.9107 51.8886 32.0008 52.2343C32.0509 52.4197 32.1411 52.58 32.2563 52.7302C32.2663 52.7453 32.2814 52.7603 32.2964 52.7803C32.3064 52.7954 32.3315 52.8304 32.3064 52.7954C32.3315 52.8355 32.3615 52.8705 32.3816 52.9106C32.4016 52.9507 32.3766 52.8805 32.3866 52.9256C32.3866 52.9356 32.3916 52.9457 32.3916 52.9507C32.4016 52.9757 32.3866 52.9256 32.3866 52.9206C32.3866 52.9206 32.3866 52.9407 32.3866 52.9457C32.3766 52.9707 32.3966 52.9156 32.3916 52.9156C32.3916 52.9156 32.3866 52.9356 32.3866 52.9407C32.3816 52.9557 32.3665 52.9707 32.3866 52.9457C32.4116 52.9156 32.3816 52.9507 32.3766 52.9657C32.3665 52.9907 32.3866 52.9457 32.3916 52.9457L32.3766 52.9607C32.3565 52.9757 32.4016 52.9407 32.4016 52.9407C32.3966 52.9457 32.3715 52.9557 32.4066 52.9407C32.4417 52.9256 32.4216 52.9356 32.4116 52.9356C32.4417 52.9256 32.4567 52.9306 32.4868 52.9356C32.4166 52.9256 32.3565 52.9256 32.2914 52.9607C32.2413 52.9907 32.1912 53.0509 32.1762 53.111C32.1511 53.2312 32.2112 53.4015 32.3515 53.4216C32.4918 53.4416 32.607 53.4166 32.7172 53.3264C32.7923 53.2663 32.8424 53.1711 32.8725 53.0809C32.9426 52.8455 32.8224 52.6401 32.6871 52.4647C32.6771 52.4497 32.6621 52.4347 32.6471 52.4147C32.6421 52.4046 32.632 52.3996 32.627 52.3896C32.627 52.3896 32.6521 52.4247 32.6371 52.3996C32.612 52.3646 32.587 52.3245 32.5619 52.2894C32.5519 52.2744 32.5419 52.2543 32.5369 52.2393C32.5319 52.2293 32.5268 52.2243 32.5268 52.2143C32.5018 52.1642 32.5319 52.2243 32.5319 52.2243C32.5268 52.2243 32.4968 52.1191 32.4918 52.1091C32.4868 52.089 32.4818 51.9989 32.4667 51.9888C32.4667 51.9888 32.4717 52.0389 32.4717 52.0089C32.4717 51.9989 32.4717 51.9888 32.4667 51.9788C32.4667 51.9588 32.4617 51.9337 32.4617 51.9137C32.4617 51.8736 32.4617 51.8335 32.4617 51.7885C32.4617 51.7684 32.4617 51.7484 32.4667 51.7334C32.4667 51.7233 32.4667 51.7133 32.4717 51.7033C32.4767 51.6482 32.4717 51.7033 32.4717 51.7033C32.4617 51.7033 32.5218 51.4779 32.5268 51.4578C32.5369 51.4228 32.5519 51.3827 32.5669 51.3476C32.5719 51.3326 32.5719 51.3075 32.5619 51.3526C32.5619 51.3426 32.5719 51.3326 32.5719 51.3276C32.5819 51.3075 32.592 51.2875 32.602 51.2675C32.6421 51.1923 32.6821 51.1222 32.7322 51.0521C32.7423 51.037 32.7573 51.017 32.7673 51.002C32.7923 50.9619 32.7723 50.997 32.7673 51.002C32.7723 50.9919 32.7823 50.9869 32.7873 50.9769C32.8174 50.9419 32.8424 50.9068 32.8725 50.8767C32.9927 50.7415 33.133 50.6162 33.2733 50.501C33.2883 50.486 33.3083 50.476 33.3234 50.4609C33.3434 50.4409 33.3183 50.4659 33.3133 50.4659C33.3234 50.4609 33.3284 50.4509 33.3384 50.4459C33.3785 50.4159 33.4185 50.3858 33.4586 50.3607C33.5338 50.3056 33.6089 50.2555 33.679 50.2055C34.3603 49.7346 35.0266 49.2536 35.6778 48.7427C35.9984 48.4872 36.3191 48.2267 36.6297 47.9612C36.7849 47.8309 36.9402 47.6957 37.0905 47.5604C37.2358 47.4352 37.3911 47.3099 37.5213 47.1697C37.5965 47.0845 37.6616 46.9893 37.6867 46.8791C37.7167 46.7439 37.6917 46.6136 37.6366 46.4884C37.5514 46.308 37.3811 46.1628 37.2458 46.0225C36.9503 45.7219 36.6497 45.4314 36.3391 45.1408C36.264 45.0707 36.1838 45.0006 36.1087 44.9304C36.0135 44.8403 35.8482 44.8252 35.753 44.9304C35.6628 45.0456 35.6478 45.2059 35.753 45.3011Z" fill="#640E06"/>
<path d="M34.4956 49.6044C35.1819 50.0452 35.8582 50.5111 36.5144 50.997C36.6998 51.1373 36.8851 51.2776 37.0705 51.4178C37.0905 51.2675 37.1106 51.1122 37.1306 50.962C36.7098 51.1323 36.279 51.3176 36.0135 51.7034C35.8882 51.8837 35.8081 52.1041 35.8081 52.3245C35.8031 52.575 35.9133 52.7954 36.0736 52.9808C36.2189 53.1511 36.3992 53.2964 36.5695 53.4467C36.7499 53.612 36.9352 53.7773 37.1156 53.9376C37.2959 54.1029 37.4813 54.2682 37.6616 54.4285C37.7568 54.5137 37.847 54.5939 37.9421 54.679C37.9822 54.7141 38.0223 54.7542 38.0624 54.7892C38.0824 54.8093 38.1024 54.8243 38.1175 54.8443C38.1225 54.8493 38.1325 54.8594 38.1375 54.8644C38.1576 54.8844 38.1576 54.8944 38.1425 54.8694C38.1576 54.8894 38.1776 54.9145 38.1826 54.9345C38.1826 54.9245 38.1676 54.8844 38.1776 54.9295C38.1826 54.9696 38.1826 54.9195 38.1776 54.9195C38.1826 54.9195 38.1776 54.9545 38.1776 54.9646C38.1826 54.9295 38.1776 54.9495 38.1726 54.9746C38.1676 55.0046 38.1576 55.0297 38.1475 55.0597C38.1125 55.205 38.1175 55.3503 38.1676 55.4906C38.1876 55.5457 38.2127 55.6008 38.2327 55.6609C38.2377 55.6759 38.2427 55.6859 38.2427 55.701C38.2427 55.711 38.2527 55.7511 38.2477 55.706C38.2377 55.6559 38.2427 55.7461 38.2427 55.7511C38.2427 55.7461 38.2577 55.701 38.2477 55.721C38.2477 55.726 38.2377 55.7561 38.2377 55.7561C38.2327 55.7511 38.2678 55.701 38.2477 55.736C38.2427 55.741 38.2327 55.7561 38.2327 55.7611C38.2327 55.7461 38.2678 55.721 38.2477 55.741C38.2177 55.7711 38.2878 55.716 38.2628 55.731C38.2427 55.7461 38.2928 55.716 38.2928 55.716C38.3479 55.701 38.3379 55.711 38.3028 55.711C38.1726 55.701 38.0473 55.8362 38.0524 55.9615C38.0574 56.1067 38.1626 56.2019 38.3028 56.2119C38.5733 56.232 38.7387 55.9665 38.7537 55.731C38.7587 55.6208 38.7236 55.5156 38.6836 55.4154C38.6635 55.3703 38.6485 55.3253 38.6335 55.2752C38.6284 55.2651 38.6234 55.2451 38.6234 55.2351C38.6234 55.2451 38.6284 55.2902 38.6284 55.2401C38.6284 55.2351 38.6284 55.2 38.6284 55.2301C38.6284 55.2651 38.6335 55.205 38.6335 55.2C38.6635 55.0648 38.7036 54.9395 38.6635 54.7993C38.6335 54.674 38.5533 54.5688 38.4631 54.4786C38.2928 54.3083 38.1024 54.153 37.9271 53.9927C37.5564 53.6621 37.1907 53.3315 36.82 53.0008C36.7348 52.9257 36.6497 52.8505 36.5645 52.7704C36.5295 52.7353 36.4894 52.7003 36.4543 52.6602C36.4393 52.6401 36.4243 52.6251 36.4092 52.6051C36.3892 52.585 36.4142 52.6151 36.4192 52.6151C36.4092 52.6001 36.3992 52.5901 36.3892 52.575C36.3742 52.555 36.3641 52.5349 36.3541 52.5149C36.3491 52.5049 36.3441 52.4899 36.3341 52.4798C36.3391 52.4899 36.3491 52.5299 36.3341 52.4848C36.3291 52.4648 36.3191 52.4448 36.314 52.4197C36.314 52.4097 36.309 52.3997 36.309 52.3897C36.294 52.3296 36.309 52.4247 36.309 52.3897C36.309 52.3446 36.309 52.3045 36.309 52.2594C36.309 52.2244 36.299 52.3045 36.309 52.2694C36.309 52.2594 36.314 52.2494 36.314 52.2394C36.3191 52.2093 36.3291 52.1843 36.3391 52.1542C36.3441 52.1442 36.3441 52.1342 36.3491 52.1292C36.3491 52.1292 36.3742 52.0741 36.3591 52.1041C36.3441 52.1342 36.3641 52.0991 36.3692 52.0891C36.3742 52.0741 36.3842 52.059 36.3942 52.044C36.4092 52.019 36.4192 51.9989 36.4343 51.9789C36.4393 51.9689 36.4493 51.9589 36.4543 51.9488C36.4693 51.9238 36.4643 51.9388 36.4493 51.9538C36.4844 51.9088 36.5244 51.8687 36.5645 51.8336C36.5896 51.8136 36.6096 51.7935 36.6347 51.7735C36.5946 51.8036 36.6547 51.7585 36.6697 51.7485C36.7699 51.6783 36.8701 51.6232 36.9803 51.5731C37.0304 51.5481 37.0805 51.528 37.1356 51.503C37.0905 51.523 37.1256 51.508 37.1356 51.503C37.1506 51.498 37.1657 51.488 37.1857 51.4829C37.2158 51.4729 37.2458 51.4579 37.2759 51.4479C37.3711 51.4078 37.4412 51.3477 37.4562 51.2375C37.4712 51.1273 37.4212 51.0521 37.336 50.987C36.6898 50.4861 36.0235 50.0101 35.3472 49.5543C35.1518 49.424 34.9615 49.2988 34.7661 49.1736C34.6559 49.1034 34.4856 49.1485 34.4255 49.2637C34.3403 49.389 34.3804 49.5292 34.4956 49.6044Z" fill="#640E06"/>
<path d="M20.7094 47.2298C20.8296 46.7239 20.9498 46.2229 21.0651 45.7169C21.1202 45.4765 21.1652 45.226 21.2404 44.9855C21.2454 44.9755 21.2554 44.9555 21.2554 44.9455C21.2554 44.9455 21.2454 44.9505 21.2404 44.9455C21.2755 44.9605 21.3055 44.9855 21.3306 45.0206C21.3857 45.0958 21.4358 45.1759 21.4909 45.2561C21.9718 45.9073 22.6631 46.3932 23.4396 46.6337C23.6349 46.6938 23.8303 46.7339 24.0357 46.7589C24.2611 46.789 24.5066 46.789 24.707 46.6687C25.0226 46.4834 25.0977 46.1027 25.2029 45.777C25.253 45.6218 25.3131 45.4665 25.4284 45.3462C25.5386 45.231 25.6838 45.1559 25.8391 45.1158C25.9944 45.0757 26.1648 45.0807 26.32 45.1258C26.5154 45.1809 26.6807 45.3362 26.8911 45.3412C27.1166 45.3462 27.2518 45.1659 27.332 44.9755C27.4271 44.7501 27.5023 44.5146 27.5824 44.2842C27.7578 43.8033 27.9281 43.3174 28.1034 42.8365C28.1485 42.7162 28.1886 42.596 28.2337 42.4758C28.1635 42.4958 28.0934 42.5108 28.0233 42.5309C28.3689 42.9116 28.8098 43.2022 29.2907 43.3825C29.3558 43.4075 29.4259 43.3574 29.446 43.2973C29.466 43.2272 29.4209 43.1671 29.3608 43.142C28.915 42.9767 28.5192 42.7062 28.2036 42.3555C28.1335 42.2804 28.0233 42.3255 27.9932 42.4106C27.8179 42.8966 27.6426 43.3875 27.4722 43.8734C27.3871 44.1139 27.2969 44.3543 27.2117 44.5998C27.1767 44.7 27.1416 44.8052 27.1015 44.9054C27.0715 44.9705 27.0314 45.0557 26.9663 45.0857C26.8861 45.1258 26.796 45.0807 26.7258 45.0406C26.6306 44.9906 26.5405 44.9405 26.4403 44.9054C26.2649 44.8453 26.0796 44.8353 25.8942 44.8603C25.5336 44.9104 25.218 45.1258 25.0677 45.4614C24.9925 45.6268 24.9474 45.7971 24.8923 45.9674C24.8472 46.1127 24.7921 46.273 24.6869 46.3832C24.5517 46.5235 24.3513 46.5435 24.1609 46.5285C23.9656 46.5135 23.7702 46.4684 23.5798 46.4183C22.8284 46.2029 22.1471 45.732 21.6912 45.1008C21.581 44.9455 21.4558 44.675 21.2204 44.715C21.1051 44.7351 21.04 44.8302 21.01 44.9405C20.9749 45.0607 20.9549 45.1809 20.9248 45.3011C20.8046 45.8021 20.6893 46.3031 20.5691 46.804C20.5391 46.9292 20.509 47.0545 20.4789 47.1797C20.4288 47.32 20.6743 47.3851 20.7094 47.2298Z" fill="#640E06"/>
<path d="M27.2819 44.5347C27.4121 44.7752 27.5474 45.0156 27.7728 45.1809C27.9682 45.3262 28.2487 45.3963 28.4842 45.3012C28.5944 45.2561 28.6795 45.1809 28.7597 45.1008C28.8248 45.0307 28.8949 44.9455 28.9651 44.8954C28.9801 44.8854 28.9951 44.8754 29.0152 44.8703C29.0001 44.8754 29.0603 44.8653 29.0452 44.8653C29.0853 44.8603 29.1304 44.8854 29.1705 44.9154C29.2907 45.0056 29.4009 45.1008 29.5161 45.196C29.7916 45.4164 30.0672 45.6418 30.3427 45.8622C30.3978 45.9023 30.4679 45.9123 30.518 45.8622C30.5631 45.8171 30.5731 45.727 30.518 45.6869C30.2726 45.4915 30.0321 45.2962 29.7866 45.1008C29.6664 45.0006 29.5412 44.9054 29.4209 44.8052C29.3157 44.7201 29.2105 44.6249 29.0653 44.6149C28.8448 44.6048 28.6996 44.7952 28.5643 44.9355C28.4942 45.0056 28.4291 45.0657 28.3289 45.0858C28.2287 45.1058 28.1185 45.0858 28.0283 45.0457C27.7628 44.9305 27.6225 44.6449 27.4923 44.4045C27.4171 44.2692 27.2017 44.3944 27.2819 44.5347Z" fill="#640E06"/>
<path d="M40.7124 48.8479C40.6122 49.1635 40.507 49.4741 40.4068 49.7897C40.3567 49.94 40.3066 50.0903 40.2616 50.2456C40.2215 50.3859 40.1914 50.5462 40.2415 50.6864C40.3217 50.9119 40.5621 51.0271 40.7926 51.002C41.0581 50.977 41.2584 50.7916 41.3937 50.5712C41.534 50.3508 41.6041 50.0903 41.7644 49.8799C41.8295 49.7997 41.9247 49.6845 42.0399 49.7346C42.1 49.7597 42.1602 49.8098 42.2153 49.8448C42.2754 49.8899 42.3405 49.93 42.4006 49.9801C42.6361 50.1554 42.8515 50.3508 43.0569 50.5612C43.2372 50.7465 43.4125 50.9519 43.638 51.0872C43.9085 51.2475 44.199 51.2475 44.4996 51.1724C44.7651 51.1072 45.0456 50.987 45.3162 51.0722C45.4714 51.1223 45.5366 50.8768 45.3813 50.8317C45.1308 50.7516 44.8753 50.8117 44.6349 50.8768C44.4044 50.9419 44.159 51.0171 43.9235 50.9419C43.6981 50.8718 43.5227 50.6864 43.3624 50.5211C43.1671 50.3157 42.9667 50.1153 42.7463 49.935C42.6311 49.8398 42.5158 49.7496 42.3956 49.6645C42.2804 49.5843 42.1551 49.4841 42.0099 49.4691C41.7243 49.4391 41.529 49.7496 41.4137 49.9651C41.3035 50.1805 41.2184 50.4259 41.043 50.6013C40.9128 50.7315 40.7124 50.7966 40.5521 50.6964C40.4619 50.6413 40.4469 50.5261 40.4669 50.4159C40.502 50.2506 40.5621 50.0903 40.6172 49.93C40.7274 49.5893 40.8376 49.2487 40.9479 48.908C41.003 48.7628 40.7625 48.6976 40.7124 48.8479Z" fill="#640E06"/>
<path d="M38.7387 48.4271C42.4267 48.4271 45.4164 45.3656 45.4164 41.5891C45.4164 37.8126 42.4267 34.7511 38.7387 34.7511C35.0507 34.7511 32.061 37.8126 32.061 41.5891C32.061 45.3656 35.0507 48.4271 38.7387 48.4271Z" fill="#035A37"/>
<path d="M38.7387 47.3701C41.948 47.3701 44.5497 44.7684 44.5497 41.5591C44.5497 38.3497 41.948 35.748 38.7387 35.748C35.5293 35.748 32.9276 38.3497 32.9276 41.5591C32.9276 44.7684 35.5293 47.3701 38.7387 47.3701Z" fill="#2FAC66"/>
<path d="M38.7287 46.2229C41.2823 46.2229 43.3524 44.1528 43.3524 41.5991C43.3524 39.0455 41.2823 36.9753 38.7287 36.9753C36.175 36.9753 34.1049 39.0455 34.1049 41.5991C34.1049 44.1528 36.175 46.2229 38.7287 46.2229Z" fill="#035A37"/>
<path d="M38.7387 46.0426C41.1983 46.0426 43.1922 44.0487 43.1922 41.5891C43.1922 39.1295 41.1983 37.1356 38.7387 37.1356C36.2791 37.1356 34.2852 39.1295 34.2852 41.5891C34.2852 44.0487 36.2791 46.0426 38.7387 46.0426Z" fill="black"/>
<path d="M36.8451 37.3912C36.0335 36.9053 35.1018 36.6197 34.16 36.5796C33.7241 36.5596 33.2733 36.5897 32.8625 36.7399C32.612 36.8301 32.3666 36.9704 32.2113 37.1858C31.9157 37.5815 31.9758 38.1276 32.051 38.6185C32.076 38.7888 32.1061 38.9742 32.2313 39.0994C32.4016 39.2748 32.6822 39.2647 32.9226 39.2547C33.6039 39.2297 34.2852 39.2898 34.9515 39.4401C35.3322 39.5252 35.738 39.6405 36.1087 39.5102C36.4643 39.385 36.7048 39.0644 36.9202 38.7588C36.9903 38.6586 37.0605 38.5584 37.0905 38.4432C37.1156 38.343 37.1056 38.2428 37.0955 38.1426C37.0755 37.9222 37.0505 37.7068 37.0304 37.4864C37.0204 37.4012 36.9503 37.286 36.8851 37.3411" fill="#F6F6F6"/>
<path d="M36.9102 37.2809C36.0886 36.785 35.1418 36.4994 34.185 36.4544C33.3233 36.4093 32.086 36.5896 31.8956 37.6166C31.8556 37.832 31.8606 38.0574 31.8806 38.2728C31.9006 38.4832 31.9157 38.7086 31.9858 38.914C32.0559 39.1294 32.2112 39.2897 32.4367 39.3448C32.6471 39.4 32.8675 39.3749 33.0829 39.3699C33.6039 39.3599 34.1249 39.4 34.6358 39.4951C35.1218 39.5853 35.6528 39.7957 36.1437 39.6254C36.5595 39.4801 36.835 39.1044 37.0755 38.7537C37.1406 38.6585 37.2007 38.5533 37.2208 38.4331C37.2458 38.2979 37.2258 38.1676 37.2107 38.0374C37.1957 37.9071 37.1857 37.7769 37.1707 37.6466C37.1606 37.5314 37.1606 37.4062 37.1005 37.306C37.0404 37.2108 36.9252 37.1507 36.82 37.2208C36.6847 37.311 36.81 37.5264 36.9452 37.4362C36.9352 37.4412 36.8801 37.4362 36.8851 37.4312C36.8851 37.4312 36.9001 37.4563 36.9001 37.4613C36.9202 37.5114 36.9152 37.5715 36.9202 37.6216C36.9302 37.7368 36.9452 37.857 36.9552 37.9722C36.9653 38.0925 36.9853 38.2127 36.9803 38.3279C36.9753 38.4281 36.9302 38.5133 36.8751 38.5984C36.7699 38.7587 36.6497 38.919 36.5194 39.0643C36.3992 39.1946 36.2539 39.3198 36.0836 39.3799C35.6578 39.5352 35.1819 39.3499 34.7611 39.2647C34.2902 39.1745 33.8093 39.1244 33.3284 39.1144C33.1129 39.1094 32.8975 39.1294 32.6821 39.1244C32.5218 39.1194 32.3515 39.0793 32.2663 38.9291C32.1812 38.7738 32.1712 38.5684 32.1461 38.393C32.1211 38.1927 32.106 37.9923 32.1261 37.7919C32.1411 37.6116 32.1912 37.4362 32.2964 37.2809C32.4016 37.1206 32.5619 37.0104 32.7272 36.9303C33.118 36.7399 33.5738 36.6898 34.0046 36.6948C34.8713 36.7048 35.7379 36.9303 36.5094 37.336C36.6046 37.3861 36.6948 37.4362 36.7899 37.4913C36.9202 37.5815 37.0454 37.3661 36.9102 37.2809Z" fill="#F6F6F6"/>
<path d="M32.2263 38.9992C32.2263 38.9992 31.8155 37.1707 32.3766 37.0204C32.9376 36.8702 34.7811 35.9785 36.8651 37.4362C37.351 37.5915 36.9352 39.1094 36.0485 39.4701C34.701 39.4902 33.3384 39.0142 32.632 39.1595" fill="#F6F6F6"/>
<path d="M32.2263 38.9992C32.2263 38.9992 31.8155 37.1707 32.3766 37.0204C32.9376 36.8702 34.7811 35.9785 36.8651 37.4362C37.351 37.5915 36.9352 39.1094 36.0485 39.4701C34.701 39.4902 33.3384 39.0142 32.632 39.1595" stroke="#F6F6F6" stroke-width="0.3" stroke-miterlimit="10"/>
<path d="M36.1989 36.9703L36.9302 37.2459L36.1989 36.9703Z" fill="#EDEDED"/>
<path d="M36.1989 36.9703L36.9302 37.2459" stroke="#F6F6F6" stroke-width="0.3" stroke-miterlimit="10"/>
<path d="M18.921 24.6418C18.921 24.6418 19.0613 25.223 18.921 25.4033C18.7807 25.5887 19.3318 25.223 19.3318 25.223L18.921 24.6418Z" fill="black" stroke="black" stroke-width="0.3" stroke-miterlimit="10"/>
<path d="M54.7641 20.8396L54.4435 21.2453L54.5788 20.6191L54.7641 20.8396Z" fill="black" stroke="black" stroke-width="0.3" stroke-miterlimit="10"/>
<path d="M37.4412 20.1683L38.1475 20.1633C38.1475 20.1633 37.7217 19.1263 37.7417 18.6655C37.7618 18.2046 37.852 19.983 37.4412 20.1683Z" fill="black" stroke="black" stroke-width="0.3" stroke-miterlimit="10"/>
<path d="M52.8455 23.68L53.3364 22.9786L53.3916 24.0757L52.8455 23.68Z" fill="black" stroke="black" stroke-width="0.3" stroke-miterlimit="10"/>
<path d="M43.4927 20.7494L43.6029 20.2986L43.663 20.7845L43.4927 20.7494Z" fill="black" stroke="black" stroke-width="0.3" stroke-miterlimit="10"/>
<path d="M44.2592 15.4744L44.69 15.5746L44.1139 17.0874L44.2592 15.4744Z" fill="black" stroke="black" stroke-width="0.3" stroke-miterlimit="10"/>
<path d="M49.8899 18.0894L49.9951 17.343L50.2456 17.5234L49.8899 18.0894Z" fill="black" stroke="black" stroke-width="0.3" stroke-miterlimit="10"/>
<path d="M48.2568 21.8916L48.903 20.7896L48.7828 22.077L48.2568 21.8916Z" fill="black" stroke="black" stroke-width="0.3" stroke-miterlimit="10"/>
<path d="M52.7854 48.8829L52.9858 48.6174L53.2262 49.1585L52.7854 48.8829Z" fill="black" stroke="black" stroke-width="0.3" stroke-miterlimit="10"/>
<path d="M54.2382 50.2255L54.8243 50.6012L54.5938 50.9569L54.2382 50.2255Z" fill="black" stroke="black" stroke-width="0.3" stroke-miterlimit="10"/>
<path d="M49.6895 51.2074L50.1453 50.8467L50.5812 51.9287L49.6895 51.2074Z" fill="black" stroke="black" stroke-width="0.3" stroke-miterlimit="10"/>
<path d="M51.7684 53.2512L52.2644 54.0728L52.4698 53.8323L51.7684 53.2512Z" fill="black" stroke="black" stroke-width="0.3" stroke-miterlimit="10"/>
<path d="M48.0664 55.6157L48.5323 57.2037L48.9281 56.9432L48.0664 55.6157Z" fill="black" stroke="black" stroke-width="0.3" stroke-miterlimit="10"/>
<path d="M46.5836 53.2162L47.1196 52.9357L47.36 54.0728L46.5836 53.2162Z" fill="black" stroke="black" stroke-width="0.3" stroke-miterlimit="10"/>
<path d="M43.2923 56.4322L42.5209 55.0596L43.2923 54.8643V56.4322Z" fill="black" stroke="black" stroke-width="0.3" stroke-miterlimit="10"/>
<path d="M43.643 58.2657L43.6079 59.6233L44.0788 59.3929L43.643 58.2657Z" fill="black" stroke="black" stroke-width="0.3" stroke-miterlimit="10"/>
<path d="M38.2026 56.9883L37.9421 55.9915H38.4481L38.2026 56.9883Z" fill="black" stroke="black" stroke-width="0.3" stroke-miterlimit="10"/>
<path d="M37.4662 60.9308L37.9722 59.5632L38.0674 60.9759L37.4662 60.9308Z" fill="black" stroke="black" stroke-width="0.3" stroke-miterlimit="10"/>
<path d="M33.4185 56.297L33.5187 55.215L33.9295 55.4003L33.4185 56.297Z" fill="black" stroke="black" stroke-width="0.3" stroke-miterlimit="10"/>
<path d="M32.9176 58.2057L32.3014 59.7536L32.7022 59.8538L32.9176 58.2057Z" fill="black" stroke="black" stroke-width="0.3" stroke-miterlimit="10"/>
<path d="M29.1454 54.3534L29.2707 53.3264L29.7015 53.5569L29.1454 54.3534Z" fill="black" stroke="black" stroke-width="0.3" stroke-miterlimit="10"/>
<path d="M28.5693 55.756L27.5123 57.4692L27.9532 57.7097L28.5693 55.756Z" fill="black" stroke="black" stroke-width="0.3" stroke-miterlimit="10"/>
<path d="M25.6838 52.2693L26.0646 51.3025L26.4854 51.6582L25.6838 52.2693Z" fill="black" stroke="black" stroke-width="0.3" stroke-miterlimit="10"/>
<path d="M24.4214 53.8374L23.6049 54.4886L23.9004 54.7842L24.4214 53.8374Z" fill="black" stroke="black" stroke-width="0.3" stroke-miterlimit="10"/>
<path d="M22.7182 50.0101L23.0789 49.0382L23.4095 49.3037L22.7182 50.0101Z" fill="black" stroke="black" stroke-width="0.3" stroke-miterlimit="10"/>
<path d="M21.4858 51.8585L21.9167 51.052L21.2253 51.4578L21.4858 51.8585Z" fill="black" stroke="black" stroke-width="0.3" stroke-miterlimit="10"/>
<path d="M44.7401 15.5345C44.7401 15.5345 42.3906 19.0963 43.7081 21.0701C44.8353 22.7583 48.2267 21.9267 48.2267 21.9267C48.2267 21.9267 49.6444 19.7275 49.9901 17.3029" fill="#EDEDED"/>
<path d="M44.7401 15.5345C44.7401 15.5345 42.3906 19.0963 43.7081 21.0701C44.8353 22.7583 48.2267 21.9267 48.2267 21.9267C48.2267 21.9267 49.6444 19.7275 49.9901 17.3029" stroke="black" stroke-width="0.3" stroke-miterlimit="10"/>
<path d="M54.699 20.8046C54.8443 20.9048 54.3083 21.1502 53.4717 22.9186C52.62 24.727 56.1468 25.0226 56.1468 25.0226C56.1468 25.0226 56.5125 24.7571 57.1286 24.0457" fill="#EDEDED"/>
<path d="M54.699 20.8046C54.8443 20.9048 54.3083 21.1502 53.4717 22.9186C52.62 24.727 56.1468 25.0226 56.1468 25.0226C56.1468 25.0226 56.5125 24.7571 57.1286 24.0457" stroke="black" stroke-width="0.3" stroke-miterlimit="10"/>
<path d="M25.5436 17.1076C25.8842 19.5322 27.3069 21.9067 27.3069 21.9067C27.3069 21.9067 31.5199 23.3995 31.8255 21.0501C32.1311 18.7006 30.7936 15.5145 30.7936 15.5145" fill="#EDEDED"/>
<path d="M25.5436 17.1076C25.8842 19.5322 27.3069 21.9067 27.3069 21.9067C27.3069 21.9067 31.5199 23.3995 31.8255 21.0501C32.1311 18.7006 30.7936 15.5145 30.7936 15.5145" stroke="black" stroke-width="0.3" stroke-miterlimit="10"/>
<path d="M25.1829 17.2728C25.1829 17.2728 26.7909 20.1333 26.7559 22.3074C26.7208 24.4815 22.6881 23.5698 22.6881 23.5698C22.6881 23.5698 21.4658 22.2473 20.8947 20.0782" fill="#EDEDED"/>
<path d="M25.1829 17.2728C25.1829 17.2728 26.7909 20.1333 26.7559 22.3074C26.7208 24.4815 22.6881 23.5698 22.6881 23.5698C22.6881 23.5698 21.4658 22.2473 20.8947 20.0782" stroke="black" stroke-width="0.3" stroke-miterlimit="10"/>
<path d="M20.6443 20.3236C20.6443 20.3236 21.3656 21.1953 22.0319 23.0788C22.6982 24.9624 19.472 25.2129 19.472 25.2129C19.472 25.2129 19.0512 25.4433 18.415 23.2642" fill="#EDEDED"/>
<path d="M20.6443 20.3236C20.6443 20.3236 21.3656 21.1953 22.0319 23.0788C22.6982 24.9624 19.472 25.2129 19.472 25.2129C19.472 25.2129 19.0512 25.4433 18.415 23.2642" stroke="black" stroke-width="0.3" stroke-miterlimit="10"/>
<path d="M54.2883 21.3255C54.2883 21.3255 54.6139 20.5891 54.5588 20.7193C53.6821 22.7883 52.8505 23.5898 52.8505 23.5898C52.8505 23.5898 51.2825 23.9254 50.0552 23.4896C49.2186 23.194 48.7176 22.3324 48.8429 21.4507C49.1234 19.492 50.2756 17.4631 50.2756 17.4631" fill="#EDEDED"/>
<path d="M54.2883 21.3255C54.2883 21.3255 54.6139 20.5891 54.5588 20.7193C53.6821 22.7883 52.8505 23.5898 52.8505 23.5898C52.8505 23.5898 51.2825 23.9254 50.0552 23.4896C49.2186 23.194 48.7176 22.3324 48.8429 21.4507C49.1234 19.492 50.2756 17.4631 50.2756 17.4631" stroke="black" stroke-width="0.3" stroke-miterlimit="10"/>
<path d="M27.4722 57.5244C27.4722 57.5244 29.4109 54.5187 29.2105 53.2262C28.94 51.4979 26.5805 51.6582 26.5805 51.6582C26.5805 51.6582 25.1278 52.4447 23.9355 54.7491" fill="#EDEDED"/>
<path d="M27.4722 57.5244C27.4722 57.5244 29.4109 54.5187 29.2105 53.2262C28.94 51.4979 26.5805 51.6582 26.5805 51.6582C26.5805 51.6582 25.1278 52.4447 23.9355 54.7491" stroke="black" stroke-width="0.3" stroke-miterlimit="10"/>
<path d="M21.1302 51.4579C21.4809 51.3627 22.082 50.997 22.8084 49.7095C23.5498 48.3971 21.5861 47.7759 21.5861 47.7759C21.5861 47.7759 20.3187 48.3119 19.7927 48.8229" fill="#EDEDED"/>
<path d="M21.1302 51.4579C21.4809 51.3627 22.082 50.997 22.8084 49.7095C23.5498 48.3971 21.5861 47.7759 21.5861 47.7759C21.5861 47.7759 20.3187 48.3119 19.7927 48.8229" stroke="black" stroke-width="0.3" stroke-miterlimit="10"/>
<path d="M32.2564 59.7536C32.6571 59.0823 33.6841 55.8361 33.4336 55.1498C33.4336 55.1498 30.8186 52.9055 29.8718 53.5367C28.9451 53.9776 28.0283 57.7798 28.0283 57.7798" fill="#EDEDED"/>
<path d="M32.2564 59.7536C32.6571 59.0823 33.6841 55.8361 33.4336 55.1498C33.4336 55.1498 30.8186 52.9055 29.8718 53.5367C28.9451 53.9776 28.0283 57.7798 28.0283 57.7798" stroke="black" stroke-width="0.3" stroke-miterlimit="10"/>
<path d="M32.7773 59.929C32.7773 59.929 32.9276 57.1036 33.9696 55.3252C34.7411 54.0077 37.9171 55.9364 37.9171 55.9364C38.3981 56.9433 37.9272 60.2696 37.4162 61.011" fill="#EDEDED"/>
<path d="M32.7773 59.929C32.7773 59.929 32.9276 57.1036 33.9696 55.3252C34.7411 54.0077 37.9171 55.9364 37.9171 55.9364C38.3981 56.9433 37.9272 60.2696 37.4162 61.011" stroke="black" stroke-width="0.3" stroke-miterlimit="10"/>
<path d="M21.7914 51.0871C21.7914 51.0871 21.5009 51.9287 21.551 51.8336C22.3124 50.3307 23.4346 49.3889 23.4346 49.3889C23.4346 49.3889 25.9493 49.449 25.9894 51.2074C26.0145 52.3846 23.6049 54.4886 23.6049 54.4886" fill="#EDEDED"/>
<path d="M21.7914 51.0871C21.7914 51.0871 21.5009 51.9287 21.551 51.8336C22.3124 50.3307 23.4346 49.3889 23.4346 49.3889C23.4346 49.3889 25.9493 49.449 25.9894 51.2074C26.0145 52.3846 23.6049 54.4886 23.6049 54.4886" stroke="black" stroke-width="0.3" stroke-miterlimit="10"/>
<path d="M48.928 56.9433C48.928 56.9433 47.0044 54.0328 47.1747 52.7654C47.4051 51.0772 49.6444 51.2074 49.6444 51.2074C49.6444 51.2074 50.7365 51.8536 52.2944 54.1179" fill="#EDEDED"/>
<path d="M48.928 56.9433C48.928 56.9433 47.0044 54.0328 47.1747 52.7654C47.4051 51.0772 49.6444 51.2074 49.6444 51.2074C49.6444 51.2074 50.7365 51.8536 52.2944 54.1179" stroke="black" stroke-width="0.3" stroke-miterlimit="10"/>
<path d="M54.8493 50.5511C54.4987 50.466 53.8925 50.1203 53.1411 48.883C52.3746 47.6205 54.6439 47.1597 54.6439 47.1597C54.6439 47.1597 55.5807 47.4703 56.1117 47.9612" fill="#EDEDED"/>
<path d="M54.8493 50.5511C54.4987 50.466 53.8925 50.1203 53.1411 48.883C52.3746 47.6205 54.6439 47.1597 54.6439 47.1597C54.6439 47.1597 55.5807 47.4703 56.1117 47.9612" stroke="black" stroke-width="0.3" stroke-miterlimit="10"/>
<path d="M44.0989 59.438C43.8033 58.8769 43.137 56.3872 43.3224 54.7441C43.3224 54.7441 45.5867 52.6 46.5435 53.1961C47.4753 53.6069 48.5323 57.2037 48.5323 57.2037" fill="#EDEDED"/>
<path d="M44.0989 59.438C43.8033 58.8769 43.137 56.3872 43.3224 54.7441C43.3224 54.7441 45.5867 52.6 46.5435 53.1961C47.4753 53.6069 48.5323 57.2037 48.5323 57.2037" stroke="black" stroke-width="0.3" stroke-miterlimit="10"/>
<path d="M43.6079 59.6234C43.6079 59.6234 43.9436 56.788 42.4557 55.0848C42.1501 54.7341 38.5283 55.9414 38.5283 55.9414C38.0724 56.9333 37.9071 60.1895 38.1175 60.9309" fill="#EDEDED"/>
<path d="M43.6079 59.6234C43.6079 59.6234 43.9436 56.788 42.4557 55.0848C42.1501 54.7341 38.5283 55.9414 38.5283 55.9414C38.0724 56.9333 37.9071 60.1895 38.1175 60.9309" stroke="black" stroke-width="0.3" stroke-miterlimit="10"/>
<path d="M54.5938 51.007C53.8023 49.5593 52.7403 48.8479 52.7403 48.8479C52.7403 48.8479 50.6513 49.0032 50.2455 50.6714C49.965 51.8286 52.5098 53.8324 52.5098 53.8324" fill="#EDEDED"/>
<path d="M54.5938 51.007C53.8023 49.5593 52.7403 48.8479 52.7403 48.8479C52.7403 48.8479 50.6513 49.0032 50.2455 50.6714C49.965 51.8286 52.5098 53.8324 52.5098 53.8324" stroke="black" stroke-width="0.3" stroke-miterlimit="10"/>
<path d="M52.6903 10.7354L50.6414 13.195" stroke="#77110E" stroke-width="0.3" stroke-miterlimit="10"/>
<path d="M50.6413 9.8186L48.0865 12.4787" stroke="#77110E" stroke-width="0.3" stroke-miterlimit="10"/>
<path d="M46.8591 9.10229L45.0156 11.1462" stroke="#77110E" stroke-width="0.3" stroke-miterlimit="10"/>
<path d="M30.3828 9.10229L28.8499 11.9677" stroke="#77110E" stroke-width="0.3" stroke-miterlimit="10"/>
<path d="M27.9281 9.10229L25.9844 11.9677" stroke="#77110E" stroke-width="0.3" stroke-miterlimit="10"/>
<path d="M24.0407 9.8186L22.5028 12.4787" stroke="#77110E" stroke-width="0.3" stroke-miterlimit="10"/>
<path d="M29.0001 65.2211L31.2994 63.062" stroke="#77110E" stroke-width="0.3" stroke-miterlimit="10"/>
<path d="M32.5818 66.5987L35.5675 64.0188" stroke="#77110E" stroke-width="0.3" stroke-miterlimit="10"/>
<path d="M38.8738 66.5987L41.7943 63.6331" stroke="#77110E" stroke-width="0.3" stroke-miterlimit="10"/>
<path d="M44.3993 65.682C44.3993 65.682 46.9041 62.2054 47.0093 62" stroke="#77110E" stroke-width="0.3" stroke-miterlimit="10"/>
<path d="M31.3447 15.1788C31.1593 16.311 31.8656 19.6273 32.071 20.5541C32.1061 20.7043 32.3616 21.2253 32.5069 21.2654C33.4186 21.5259 36.5946 21.9217 37.4913 20.1232C37.832 19.4369 37.7568 15.2139 37.7568 15.2139C37.7568 15.2139 37.4913 20.1232 38.0574 20.7594C38.6836 21.4658 41.1633 21.4558 42.5009 21.4007C43.0118 21.3756 43.4426 20.9899 43.5378 20.4689C43.8234 18.9059 44.3644 15.7499 44.1941 15.254" fill="#EDEDED"/>
<path d="M31.3447 15.1788C31.1593 16.311 31.8656 19.6273 32.071 20.5541C32.1061 20.7043 32.3616 21.2253 32.5069 21.2654C33.4186 21.5259 36.5946 21.9217 37.4913 20.1232C37.832 19.4369 37.7568 15.2139 37.7568 15.2139C37.7568 15.2139 37.4913 20.1232 38.0574 20.7594C38.6836 21.4658 41.1633 21.4558 42.5009 21.4007C43.0118 21.3756 43.4426 20.9899 43.5378 20.4689C43.8234 18.9059 44.3644 15.7499 44.1941 15.254" stroke="black" stroke-width="0.3" stroke-miterlimit="10"/>
<path d="M31.8456 20.8746L31.8756 20.2134L32.1161 20.7644L31.8456 20.8746Z" fill="black"/>
<path d="M22.1221 23.8754L22.8585 23.6049C22.8585 23.6049 21.9668 22.8585 21.7614 22.3776C22.0219 23.0689 22.2674 23.5298 22.1221 23.8754Z" fill="black"/>
<path d="M21.0901 20.8697L20.9198 20.1683C20.9198 20.1683 20.6443 20.1834 20.6794 20.3737C20.7144 20.5591 21.0901 20.8697 21.0901 20.8697Z" fill="black"/>
<path d="M26.7559 22.1922L27.4923 21.9718C27.4923 21.9718 27.0665 21.6111 26.6156 20.7144C26.3 19.8227 26.9563 22.0669 26.7559 22.1922Z" fill="black"/>
<path d="M25.223 17.348C25.223 17.348 25.3733 17.0925 25.5436 17.2127C25.719 17.3329 25.6588 18.2296 25.6588 18.2296L25.223 17.348Z" fill="black"/>
<path d="M31.3146 16.8922L31.3346 15.4394C31.3346 15.4394 30.7485 15.3943 30.8237 15.5797C30.8988 15.765 31.3146 16.8922 31.3146 16.8922Z" fill="black"/>
<path d="M37.6967 60.8558C37.6967 60.8558 24.6018 59.8338 19.7926 48.7828C14.9835 37.7318 9.1524 34.2552 9.1524 34.2552C9.1524 34.2552 16.9873 25.3883 19.3468 21.7414C22.0419 17.5735 29.0252 14.708 37.6967 14.708C45.9824 14.708 52.4297 17.3681 55.5005 21.6662C58.5714 25.9644 60.4099 29.3408 66.246 34.2502C66.246 34.2502 60.4149 37.7268 55.6057 48.7778C50.7966 59.8288 37.6967 60.8558 37.6967 60.8558Z" stroke="black" stroke-width="0.3" stroke-miterlimit="10"/>
<path d="M59.0974 26.7509C59.0974 26.7509 63.6811 32.8174 66.3411 34.3303C63.0399 36.4393 59.2727 42.1702 58.371 43.5829C60.8958 43.5829 67.2228 34.4455 67.2228 34.4455C67.2228 34.4455 61.3917 26.2098 59.0974 26.7509Z" fill="#9A1418"/>
<path d="M15.8852 26.5305C15.8852 26.5305 12.6491 31.4148 9.24259 34.14C12.3585 36.249 16.9372 42.5359 17.1276 43.7582C15.1789 42.6411 8.41101 34.2552 8.41101 34.2552C8.41101 34.2552 13.7211 25.9945 15.8852 26.5305Z" fill="#9A1418"/>
<path d="M59.1525 26.8911C59.1525 26.8911 63.8163 32.9927 66.296 34.3753C63.9666 35.6528 59.2577 41.6191 57.5394 45.0256" stroke="black" stroke-miterlimit="10"/>
<path d="M15.8702 26.5054C15.8702 26.5054 11.6422 32.6571 9.24762 34.2301C11.9077 36.0335 16.2109 41.5039 17.2879 44.1289" stroke="black" stroke-miterlimit="10"/>
</svg>
