<?xml version="1.0" encoding="utf-8"?>
<!-- Generator: Adobe Illustrator 25.0.0, SVG Export Plug-In . SVG Version: 6.00 Build 0)  -->
<svg version="1.1" xmlns="http://www.w3.org/2000/svg" xmlns:xlink="http://www.w3.org/1999/xlink" x="0px" y="0px"
	 viewBox="0 0 1417.3 1417.3" style="enable-background:new 0 0 1417.3 1417.3;" xml:space="preserve">
<style type="text/css">
	.st0{fill:#9A1418;stroke:#000000;stroke-miterlimit:10;}
	.st1{display:none;fill:#9A1418;stroke:#000000;stroke-miterlimit:10;}
	.st2{fill:#EDEDED;stroke:#000000;stroke-width:80;stroke-miterlimit:10;}
	.st3{fill:#1B1B1A;stroke:#000000;stroke-miterlimit:10;}
	.st4{fill:#FEF3EC;}
	.st5{fill:#640E06;}
	.st6{fill:#035A37;}
	.st7{fill:#2FAC66;}
	.st8{fill:#F6F6F6;}
	.st9{fill:#F6F6F6;stroke:#F6F6F6;stroke-miterlimit:10;}
	.st10{fill:#EDEDED;stroke:#F6F6F6;stroke-width:2;stroke-miterlimit:10;}
	.st11{stroke:#000000;stroke-miterlimit:10;}
	.st12{fill:#EDEDED;stroke:#000000;stroke-width:3;stroke-miterlimit:10;}
	.st13{fill:none;stroke:#77110E;stroke-width:3;stroke-miterlimit:10;}
	.st14{fill:none;stroke:#000000;stroke-width:11;stroke-miterlimit:10;}
	.st15{fill:#3C3C3B;}
	.st16{fill:#9A1418;}
	.st17{fill:none;stroke:#000000;stroke-miterlimit:10;}
</style>
<g id="Calque_1">
	<path class="st0" d="M753.6,318.5"/>
	<path class="st1" d="M753.6,318.5"/>
	<path class="st0" d="M746.9,189.3c0,0,25.1,0.4,64.9-10.2c26.2-7,25.5-8.4,68.3-27.6c25.2-11.3,60.8-11.4,84.8-11.2
		c0.2,0,0.5,0,0.7,0c42.7,0.4,82.6,21.2,107.2,56.1c7.4,10.5,15.4,23,24.3,37.9c20.2,33.9,38.3,69.1,54.5,105.1
		c57.3,127.6,123.8,287.1,220.5,348.3c-61.2,39.7-69.4,62.1-179.2,295.1c-58.6,124.3-113.9,360.5-445.8,360.5"/>
	<path class="st0" d="M753.6,189.8c0,0-25,0.4-64.5-10.2c-26-7-25.3-8.4-67.8-27.6c-25-11.3-60.5-11.4-84.3-11.2c-0.2,0-0.4,0-0.7,0
		c-42.4,0.4-82.1,21.2-106.6,56.1c-7.4,10.5-15.3,23-24.1,37.9c-20.1,33.9-38.1,69.1-54.2,105.1c-57,127.6-123,287.1-219.1,348.3
		c60.9,39.7,69,62.1,178.2,295.1c58.2,124.3,113.2,360.5,443.1,360.5"/>
	<path class="st2" d="M754.4,1217.9c0,0-261.4-20.4-357.4-241s-212.4-290-212.4-290S341,509.9,388.1,437.1
		c53.8-83.2,193.2-140.4,366.3-140.4c165.4,0,294.1,53.1,355.4,138.9c61.3,85.8,98,153.2,214.5,251.2c0,0-116.4,69.4-212.4,290
		S754.4,1217.9,754.4,1217.9"/>
</g>
<g id="Calque_3">
	<g id="Calque_8">
	</g>
	<g id="Calque_6">
		<g id="Calque_2">
			<path class="st3" d="M182.6,686.1c0,0,76.8-196.1,474.4-274c64.2-12.6,130.2-12.8,194.5-0.7c385.6,72.6,470.9,274.7,470.9,274.7
				s-318,432.4-569.9,430.5C500.7,1114.7,182.6,686.1,182.6,686.1z"/>
			<path class="st4" d="M385.9,503.5c0,0,192.9-95.1,366.1-101c153.2,7.5,291.9,63.5,291.9,63.5s244.3,188,96.5,427.7
				c0,0-221.4,223.9-383.5,222.8c-185.1-6.1-385.1-220.2-385.1-220.2S220.5,682.1,385.9,503.5"/>
			<g>
				<g>
					<path class="st5" d="M836.8,765.9c0-0.3,0.1-0.7,0.1-1c0,0.1-0.1,0.7,0,0.1c0.1-0.6,0.2-1.1,0.2-1.7c0.2-1.1,0.3-2.3,0.5-3.4
						c0.3-2.3,0.7-4.6,1.1-6.8c0.8-4.6,1.6-9.1,2.6-13.6c1.9-9,4.1-18,6.7-26.9c1.3-4.4,2.7-8.9,4.1-13.2c0.3-1,0.7-2,1-3
						c0.1-0.4,0.3-0.8,0.4-1.2c0-0.1,0.3-0.7,0-0.1c-0.3,0.7,0.2-0.4,0.2-0.4c0.2-0.3,0.3-0.7,0.5-1c0.1-0.2,0.3-0.4,0.4-0.6
						c0.1-0.2,0.5-0.5,0.1-0.1c-0.5,0.5,0.5-0.5,0.6-0.5c0,0-0.8,0.5-0.3,0.2c0.1-0.1,0.2-0.1,0.3-0.2c0.3-0.2,0.2-0.1-0.4,0.1
						c0,0,1-0.2,1-0.3c-0.1,0.1-1.2,0-0.3,0.1c0.1,0,0.4,0,0.5,0c0.6-0.1-0.5,0.1-0.5-0.1c0,0,0.7,0.2,0.7,0.2
						c0.2,0,0.3,0.1,0.5,0.2c0.6,0.1-1-0.5,0,0c0.7,0.4,1.5,0.8,2.1,1.3c0.4,0.3,0.8,0.5,1.1,0.8c-0.8-0.6,0.2,0.1,0.4,0.4
						c2.9,2.4,5.6,5,9,6.6c12.8,6.2,29,1.8,38.3-8.6c11-12.4,11.3-30.9,5.3-45.6c-6.6-15.9-19.5-27.6-33.2-37.5
						c-1.6-1.2-3.3-2.4-5-3.5c0.6,2.3,1.2,4.6,1.8,6.8c0.8-1.8,1.7-3.5,2.7-5.2c0.5-0.8,1-1.6,1.5-2.4c0.5-0.7,1.1-2,1.8-2.5
						c0,0-0.6,0.7-0.2,0.3c0.2-0.2,0.3-0.4,0.5-0.6c0.3-0.3,0.6-0.7,0.8-1c0.7-0.8,1.3-1.5,2-2.3c1.4-1.4,2.8-2.8,4.3-4.1
						c0.3-0.3,0.7-0.6,1-0.9c0.2-0.2,0.4-0.3,0.6-0.5c-0.1,0.1-0.8,0.6-0.1,0.1c0.8-0.6,1.6-1.2,2.5-1.8c1.6-1.1,3.2-2.1,4.9-3
						c0.8-0.5,1.7-0.9,2.6-1.3c0.4-0.2,0.8-0.4,1.2-0.6c0.2-0.1,0.5-0.2,0.7-0.3c-1.1,0.4-0.2,0.1,0,0c1.8-0.7,3.7-1.4,5.6-1.9
						c1.8-0.5,3.7-0.9,5.6-1.2c0.3,0,0.5-0.1,0.8-0.1c0.9-0.2-0.1,0-0.2,0c0.4-0.1,0.9-0.1,1.3-0.2c1-0.1,2-0.2,3-0.2
						c4.7-0.2,9.7,0.5,14.2-1.2c5.1-1.9,8.2-5.8,11.4-10c3.2-4.3,6.4-8.6,9.5-12.9c7.1-9.6,14.2-19.1,21.2-28.7
						c-1.4,0.8-2.9,1.7-4.3,2.5c16.3-1.6,32.1-6.5,46.2-14.7c3.9-2.2,7.6-4.7,11.2-7.5c2.1-1.6,3.4-4.4,1.8-6.8
						c-1.3-2.1-4.6-3.5-6.8-1.8c-5.2,3.9-10.7,7.4-16.5,10.3c-1.4,0.7-2.9,1.4-4.4,2.1c-0.7,0.3-1.3,0.6-2,0.9
						c1-0.4-0.3,0.1-0.4,0.2c-0.5,0.2-1,0.4-1.4,0.6c-3,1.2-6.1,2.2-9.2,3.1c-3.1,0.9-6.3,1.7-9.5,2.3c-1.5,0.3-3,0.6-4.6,0.8
						c-0.4,0.1-0.9,0.1-1.3,0.2c1-0.1,0.2,0,0,0c-1,0.1-1.9,0.2-2.9,0.3c-2.3,0.3-3.5,1.1-4.8,2.9c-0.5,0.7-1,1.4-1.5,2.1
						c-1.2,1.7-2.5,3.3-3.7,5c-2.3,3-4.5,6.1-6.8,9.1c-4.5,6.1-9,12.2-13.5,18.3c-1,1.4-2.1,2.8-3.1,4.2c-0.6,0.8-1.1,1.5-1.7,2.3
						c-0.2,0.3-0.5,0.6-0.7,1c-0.1,0.2-1.2,1.6-0.5,0.6c-0.9,1.1-1.8,2.1-2.8,3c-0.9,0.9,0.8-0.4-0.3,0.2c-0.3,0.2-0.6,0.4-0.9,0.5
						c-0.2,0.1-1.1,0.5-0.2,0.1c-0.5,0.2-1.1,0.4-1.7,0.5c-0.3,0.1-0.6,0.1-0.8,0.2c-1.4,0.3,1,0-0.4,0.1c-0.7,0-1.5,0.1-2.2,0.1
						c-1.8,0-3.5,0-5.3,0c-3.1,0-6.2,0.4-9.3,0.9c-5.8,1-11.4,3-16.6,5.7c-11.6,6-21.6,15.9-26.9,27.9c-1.2,2.6-0.6,5.2,1.8,6.8
						c1.7,1.2,3.3,2.3,5,3.5c0.8,0.6,1.5,1.1,2.3,1.7c0.4,0.3,0.8,0.6,1.2,0.9c0.2,0.1,0.3,0.3,0.5,0.4c0.1,0.1,0.8,0.6,0.4,0.3
						c-0.4-0.3,0.1,0.1,0.2,0.1c0.2,0.2,0.5,0.4,0.7,0.5c0.3,0.3,0.7,0.5,1,0.8c0.8,0.7,1.7,1.4,2.5,2.1c1.5,1.3,3,2.6,4.4,3.9
						c2.9,2.8,5.7,5.7,8.2,8.8c0.2,0.3,0.8,1,0.3,0.3c0.3,0.4,0.6,0.8,0.9,1.2c0.6,0.8,1.2,1.6,1.7,2.5c1.1,1.7,2.1,3.4,3,5.1
						c0.4,0.8,0.8,1.6,1.2,2.4c0.2,0.3,0.5,1.2,0.2,0.3c0.2,0.5,0.4,1,0.6,1.6c0.7,1.8,1.3,3.7,1.8,5.6c0.2,0.9,0.4,1.8,0.6,2.6
						c0.1,0.5,0.2,1,0.3,1.4c0,0.2,0.1,0.4,0.1,0.6c0.1,0.7-0.1-0.8,0-0.1c0.2,1.9,0.3,3.8,0.3,5.8c0,0.9,0,1.8-0.1,2.7
						c0,0.5-0.1,0.9-0.1,1.4c0,0.6,0-0.3,0.1-0.3c0,0.3-0.1,0.5-0.1,0.8c-0.3,1.9-0.7,3.7-1.3,5.5c-0.1,0.5-0.3,0.9-0.5,1.3
						c-0.1,0.2-0.5,1.2-0.3,0.7c0.3-0.6,0,0.1-0.1,0.2c-0.1,0.2-0.2,0.5-0.4,0.7c-0.2,0.5-0.5,1-0.8,1.5c-0.4,0.7-0.8,1.3-1.2,2
						c-0.2,0.3-0.4,0.5-0.6,0.8c-0.7,1,0.5-0.6-0.2,0.3c-1,1.2-2.1,2.3-3.3,3.4c-0.3,0.2-0.5,0.4-0.8,0.6c-0.5,0.5,0.8-0.5,0.2-0.2
						c-0.1,0.1-0.3,0.2-0.4,0.3c-0.6,0.5-1.3,0.9-2,1.3c-0.6,0.4-1.3,0.7-1.9,1.1c-0.3,0.2-0.7,0.4-1.1,0.5
						c-0.2,0.1-0.3,0.1-0.5,0.2c-0.7,0.3-0.2,0.3,0.1,0c-0.5,0.4-1.5,0.6-2,0.8c-0.7,0.2-1.5,0.5-2.2,0.7c-0.8,0.2-1.5,0.3-2.3,0.5
						c-0.1,0-0.5,0-0.5,0.1c0,0,1.1-0.1,0.5-0.1c-0.4,0-0.9,0.1-1.3,0.1c-1.5,0.1-2.9,0.1-4.4-0.1c-0.1,0-0.5-0.1-0.6-0.1
						c0,0,1,0.2,0.5,0.1c-0.4-0.1-0.7-0.1-1.1-0.2c-0.7-0.2-1.5-0.3-2.2-0.6c-0.4-0.1-0.7-0.2-1.1-0.4c0,0-0.4-0.2-0.5-0.2
						c0,0,0.9,0.5,0.5,0.2c-0.7-0.4-1.5-0.7-2.2-1.1c-0.6-0.4-1.2-0.8-1.8-1.2c-0.5-0.3,0.3,0.2,0.3,0.2c-0.1,0-0.4-0.3-0.5-0.4
						c-0.4-0.3-0.8-0.7-1.2-1c-1.7-1.4-3.4-2.8-5.1-4.1c-3.4-2.5-7.8-4.2-12-2.9c-4.8,1.5-7.3,5.5-8.9,9.9
						c-1.5,4.1-2.8,8.3-4.1,12.5c-5.3,17.4-9.3,35.1-11.9,53.1c-0.4,2.6-0.7,5.1-1.1,7.7c-0.3,2.6,2.5,5.1,5,5
						C834.8,770.7,836.4,768.7,836.8,765.9L836.8,765.9z"/>
				</g>
			</g>
			<g>
				<g>
					<path class="st5" d="M907.9,691.9c1.8-0.8,4,0.3,5.5,1.4c1.7,1.3,3,3,4.3,4.7c2.9,3.9,6.1,7.8,11.3,8.5
						c5.2,0.8,10.2-1.7,14.5-4.4c4.3-2.7,8.3-5.6,13-7.7c8.9-4,18.8-5.7,28.5-5c4.9,0.3,9.7,1.3,14.3,2.8c4.9,1.6,9.4,4.2,14.2,6.2
						c5.7,2.4,11.5,3.9,17.6,2.6c6-1.2,11.3-4.6,16.4-7.9c2.7-1.7,0.2-6.1-2.5-4.3c-4.4,2.8-8.9,5.8-14,7.1
						c-5.1,1.3-10.1,0.2-14.8-1.7c-4.9-2-9.5-4.6-14.4-6.4c-4.8-1.7-9.7-2.7-14.7-3.3c-9.9-1-20.2,0.4-29.5,4
						c-4.8,1.9-9.1,4.3-13.3,7.1c-3.8,2.5-8.3,5.9-13,6c-5.3,0.1-8-4.9-10.9-8.5c-3.5-4.5-9.1-8.2-14.9-5.6
						c-1.2,0.6-1.5,2.3-0.9,3.4C905.3,692.3,906.7,692.5,907.9,691.9L907.9,691.9z"/>
				</g>
			</g>
			<g>
				<g>
					<path class="st5" d="M1163.9,625.2c-11.5,2.5-23,5-34.5,7.6c-1.4,0.3-2.8,0.6-4.1,0.9c-0.7,0.2-1.5,0.3-2.2,0.5
						c-0.2,0.1-1,0.1,0.1,0c-0.1,0-0.3,0-0.4,0c0.8,0,1.5,0.3,2,0.9c-0.3-0.3-0.4-0.6,0.3,0.4c-0.4-0.6,0.4,0.1,0.2,0.4
						c0,0-0.1-0.6-0.1-0.6c0.4,0.3,0.1,1.1,0.1,0.4c0-1.1,0.1-2.2,0.2-3.3c0.6-5.3,0.5-10.7-0.2-16c-0.8-6.3-2.3-12.4-4.8-18.3
						c-0.8-1.8-2.5-4-4.8-3.7c-7.2,1-14.4,1.9-21.6,2.9c-6.6,0.9-13.3,2.1-20.1,2c-1.6,0-3.1-0.1-4.7-0.2c-1.5-0.1,1,0.2-0.4-0.1
						c-0.3-0.1-0.6-0.1-0.9-0.2c-0.9-0.2-1.7-0.4-2.6-0.6c-0.8-0.2-1.6-0.5-2.3-0.8c-0.2-0.1-1.2-0.5-0.2-0.1
						c-0.4-0.2-0.8-0.3-1.1-0.5c-1.4-0.7-2.7-1.5-4-2.3c-5.3-3.3-10.2-7.3-16.3-9c-6.6-1.8-14.4-1.1-19.3,4.2c-1.8,1.9-2,5.2,0,7.1
						c1.9,1.8,5.2,2,7.1,0c0.2-0.3,0.5-0.5,0.7-0.7c0.8-0.8-0.7,0.4-0.1,0c0.5-0.3,0.9-0.6,1.4-0.9c0.9-0.4-0.1-0.1-0.1,0
						c0-0.1,0.9-0.3,1-0.3c0.2-0.1,0.4-0.1,0.7-0.2c0.2-0.1,0.4-0.1,0.7-0.1c0.4-0.1,0.4-0.1,0,0c-0.8-0.1,0.2,0,0.4,0
						c0.3,0,0.7,0,1,0c0.6,0,1.2,0.1,1.8,0.1c1,0.1-0.2-0.1-0.3,0c0.2-0.1,0.8,0.1,1.1,0.2c0.7,0.1,1.4,0.3,2.1,0.5
						c0.5,0.2,1.3,0.3,1.7,0.6c-0.7-0.5-0.6-0.3-0.2-0.1c0.3,0.2,0.7,0.3,1,0.5c1.4,0.7,2.7,1.5,4,2.3c2.5,1.6,4.9,3.3,7.5,4.9
						c6,3.6,12.5,5.4,19.5,5.6c6.4,0.2,12.9-0.9,19.2-1.8c7.8-1.1,15.7-2.1,23.5-3.2c-1.6-1.2-3.2-2.4-4.8-3.7
						c2.2,5.3,3.7,10.8,4.5,16.5c-0.1-1,0-0.2,0,0c0,0.4,0.1,0.7,0.1,1.1c0.1,0.7,0.1,1.3,0.2,2c0.1,1.5,0.2,3,0.2,4.5
						c0,2.9-0.2,5.7-0.5,8.6c-0.3,2.7,0,5.6,1.7,7.8c1.3,1.7,3.2,2.7,5.4,2.9c1.7,0.1,3.4-0.4,5.1-0.7c6.1-1.3,12.1-2.7,18.2-4
						c7-1.5,13.9-3.1,20.9-4.6c2.6-0.6,4.3-3.7,3.5-6.2C1169.1,626,1166.6,624.6,1163.9,625.2L1163.9,625.2z"/>
				</g>
			</g>
			<g>
				<g>
					<path class="st5" d="M999.1,1018.6c0-10.7,0.1-21.4,0.1-32.1c0-4.3,0.3-9.1-1.4-13.2c-1.6-4.1-4.8-7.6-9.3-8.6
						c-6.9-1.5-13.1,2.6-19,5.5c-0.6,0.3-1.3,0.6-1.9,0.9c-0.2,0.1-0.3,0.1-0.5,0.2c-0.6,0.3,1-0.4,0.4-0.2
						c-0.4,0.1-0.8,0.3-1.1,0.4c-0.7,0.2-1.3,0.4-2,0.6c-0.3,0.1-0.6,0.1-0.9,0.2c-1,0.2,1.2,0,0,0c-0.3,0-0.6,0-1,0
						c-0.7,0-1.1-0.4,0.1,0.1c-0.3-0.1-0.6-0.1-0.9-0.2c-0.2-0.1-1.4-0.5-0.6-0.2c0.8,0.3-0.2-0.1-0.4-0.2c0,0-0.5-0.3-0.5-0.3
						c0.2-0.1,0.8,0.7,0.3,0.2c-0.1-0.1-0.8-0.9-0.8-0.9c0.1,0,0.7,1,0.2,0.3c-0.1-0.2-0.3-0.4-0.4-0.7c-0.1-0.2-0.2-0.4-0.3-0.6
						c-0.3-0.5,0.2,1,0.1,0.3c-0.1-0.4-0.2-0.7-0.3-1.1c-0.1-0.3-0.1-1.1-0.3-1.3c0.3,0.3,0.1,1,0.1,0.4c0-0.3,0-0.5,0-0.8
						c0-0.4,0-0.9,0-1.3c0-0.2,0-0.4,0.1-0.7c0-0.7-0.2,1,0,0.3c0.3-0.9,0.4-1.8,0.7-2.7c0.1-0.2,0.3-0.8-0.1,0.1
						c0.1-0.2,0.2-0.4,0.3-0.6c0.2-0.5,0.5-1,0.7-1.5c0.6-1,1.2-2,1.8-3c1.2-1.9,2.6-3.6,3.9-5.5c1.4-2,2.9-4.2,3.5-6.7
						c0.7-3.1-0.3-6.2-2.6-8.5c-3.5-3.4-8.7-4-13.2-5.1c-20.7-5-41.4-10.2-62-15.9c-5.1-1.4-10.2-2.8-15.2-4.2
						c-2.1-0.6-4.2-1.1-6.2-1.8c-0.8-0.3-1.9-0.5-2.6-1c0.1,0.1,1.1,0.5,0.2,0.1c-0.2-0.1-0.4-0.2-0.6-0.3c-0.5-0.2-0.9-0.5-1.4-0.7
						c-0.3-0.1-2.1-1.1-2.1-1.3c0,0,0.8,0.7,0.2,0.2c-0.2-0.1-0.3-0.3-0.5-0.4c-0.4-0.3-0.7-0.7-1-1c-0.8-0.9,0.4,0.8-0.2-0.2
						c-0.2-0.3-0.4-0.6-0.5-0.9c-0.5-0.8,0.2,0.3,0.1,0.3c0,0-0.2-0.5-0.2-0.6c-0.1-0.2-0.1-0.4-0.2-0.6c0-0.2-0.1-0.3-0.1-0.5
						c-0.1-0.4,0-0.2,0.1,0.4c0.1-0.1,0-1.1,0-1.2c0.1-1.3-0.2,0.8,0.1-0.4c0.1-0.5,0.3-0.9,0.4-1.3c0.2-0.5-0.1,0.3-0.2,0.4
						c0.1,0,0.4-0.9,0.5-1c0.2-0.4,0.5-0.8,0.8-1.3c0.1-0.2,0.2-0.3,0.3-0.5c0.4-0.6-0.6,0.7-0.1,0.1c0.7-0.8,1.4-1.7,2.2-2.4
						c0.8-0.7,1.5-1.4,2.3-2.1c0.3-0.3,0.7-0.6,1.1-0.9c0.6-0.5-0.7,0.5-0.1,0.1c0.3-0.2,0.5-0.4,0.8-0.6c2.1-1.6,3.4-4.4,1.8-6.8
						c-1.3-2.1-4.6-3.5-6.8-1.8c-7.3,5.4-16,13.8-12.1,23.8c3.4,8.9,13.1,11.6,21.4,14c20.7,5.8,41.5,11.3,62.4,16.5
						c5.2,1.3,10.4,2.5,15.6,3.8c2.3,0.5,4.7,1,6.9,1.7c1.2,0.4-0.7-0.4,0.4,0.1c0.4,0.2,0.7,0.5,1.1,0.7c0.6,0.3-0.8-0.6-0.3-0.2
						c0.2,0.1,0.5,0.7,0.1,0.1c-0.4-0.6-0.1-0.1,0,0.1c0.3,0.5-0.4-1.1-0.1-0.2c0-0.2-0.1-1.3-0.1-0.3c0-0.8,0.1-0.2-0.1-0.1
						c0,0,0.6-1.1,0,0c-0.1,0.2-0.3,0.5-0.4,0.7c-0.6,1-1.2,1.9-1.8,2.8c-1.3,1.9-2.7,3.7-4,5.6c-2.6,4-4.6,8.3-4.8,13.1
						c-0.2,4.3,1.2,9,4.4,12.1c2.8,2.7,6.8,4.1,10.8,3.7c3.6-0.4,6.9-1.7,10.2-3.3c1.4-0.7,2.8-1.4,4.2-2.2c0.6-0.3,1.3-0.6,1.9-0.9
						c0.3-0.2,0.7-0.3,1-0.5c0.2-0.1,0.3-0.1,0.5-0.2c0.6-0.3-1.1,0.4-0.3,0.1c0.6-0.2,1.3-0.5,2-0.7c0.3-0.1,0.6-0.2,1-0.3
						c0.2-0.1,1.5-0.3,0.5-0.1c-1,0.1,0.2,0,0.4,0c0.3,0,0.5,0,0.8,0c1.2,0-0.9-0.3-0.2,0c0.2,0.1,1,0.4,1.1,0.3
						c-0.1,0-1.2-0.6-0.5-0.2c0.1,0.1,0.3,0.1,0.4,0.2c0.3,0.1,0.5,0.3,0.7,0.5c0.5,0.3-0.8-0.7-0.3-0.2c0.2,0.2,0.3,0.3,0.5,0.5
						c0.2,0.2,0.5,0.7,0.2,0.2c-0.3-0.7,0.1,0.2,0.2,0.3c0.1,0.2,0.2,0.4,0.3,0.6c0.4,0.8-0.1-0.1-0.1-0.2c-0.1,0.2,0.4,1.1,0.4,1.3
						c0.1,0.5,0.2,0.9,0.3,1.4c0.1,0.4,0.3,0.6,0-0.2c0.1,0.3,0.1,0.6,0.1,0.9c0.4,4.9,0.1,9.8,0.1,14.7c0,5.4,0,10.9,0,16.3
						c0,2.6,0,5.3,0,7.9c0,2.6,2.3,5.1,5,5C996.8,1023.5,999,1021.4,999.1,1018.6L999.1,1018.6z"/>
				</g>
			</g>
			<g>
				<g>
					<path class="st5" d="M962.2,936.2c-0.2-0.4-0.4-0.8-0.6-1.3c0,0-0.3-0.7-0.1-0.3c0.2,0.5-0.1-0.4-0.2-0.5
						c-0.4-0.9-0.7-1.9-1.1-2.8c-0.7-1.9-1.3-3.8-1.8-5.7c-0.5-1.9-1-3.9-1.4-5.9c-0.2-1-0.4-2-0.6-3c-0.1-0.5-0.2-0.9-0.2-1.4
						c0-0.3-0.2-1.7-0.1-0.7c-0.1-0.9-0.2-1.9-0.2-2.8c0-0.4,0.1-0.9,0-1.3c0-0.6,0,0.2-0.1,0.3c0.1-0.4,0.1-0.7,0.2-1.1
						c0.1-0.3,0.5-1.3,0.2-0.6c-0.4,0.7,0.1-0.2,0.2-0.4c0.1-0.3,0.3-0.5,0.5-0.8c0.2-0.4-0.3,0.4-0.3,0.4c0.1,0,0.4-0.4,0.5-0.6
						c0.2-0.2,0.4-0.4,0.6-0.6c0.1,0,0.3-0.2,0.3-0.3c0,0-0.9,0.6-0.4,0.3c0.6-0.4,1.2-0.8,1.8-1.1c0.3-0.2,0.6-0.3,0.8-0.4
						c0.1-0.1,0.3-0.1,0.4-0.2c0.5-0.3,0.1,0.1,0,0c0,0-0.5,0.2,0,0c0.2-0.1,0.4-0.2,0.6-0.2c0.4-0.1,0.7-0.3,1.1-0.4
						c2.8-0.9,5.6-1.6,8.4-2.4c3.2-1,6.3-2.4,9.2-4.2c5.7-3.6,10.6-8.7,14-14.7c3.3-5.9,5.3-12.6,5.4-19.4c0.1-8-2.6-15.7-6-22.8
						c-6.1-12.5-14.5-24.6-26.2-32.4c-5.8-3.9-12.6-6.3-19.6-6.9c-0.7-0.1-1.3-0.1-2-0.2c-0.9-0.1,1,0.2,0.1,0
						c-0.4-0.1-0.8-0.2-1.2-0.3c-0.3-0.1-0.6-0.2-0.9-0.3c-0.8-0.2,0.8,0.5,0.1,0c-0.1-0.1-0.3-0.2-0.4-0.2
						c-0.4-0.1,0.4,0.3,0.5,0.4c0,0-0.3-0.3-0.4-0.4c0.1,0,0.7,1,0.4,0.4c0-0.1,0.5,1.1,0.3,0.6c-0.2-0.5,0.1,0.7,0.1,0.6
						c0,0-0.2,0.9,0,0.3c0.1-0.5-0.1,0.2-0.1,0.2c0.6-0.9,1.2-1.8,1.8-2.6c1.2-1.7,2.5-3.5,3.7-5.2c1.2-1.7,2.5-3.5,3.7-5.2
						c1.5-2.1,0.4-5.7-1.8-6.8c-2.6-1.4-5.2-0.5-6.8,1.8c-2.5,3.5-5,7.1-7.6,10.6c-1.5,2.1-2.9,4.2-2.8,6.9c0,2.2,0.9,4.4,2.6,5.8
						c2.8,2.6,6.7,3.1,10.3,3.3c0.4,0,0.7,0.1,1.1,0.1c0.1,0,0.4,0.1,0.6,0.1c-0.4,0.2-0.9-0.1-0.2,0c0.8,0.1,1.7,0.3,2.5,0.5
						c1.5,0.4,3,0.8,4.5,1.4c0.5,0.2,0.9,0.3,0.1,0c0.4,0.1,0.8,0.3,1.2,0.5c0.7,0.3,1.4,0.7,2.1,1.1c1.4,0.8,2.8,1.7,4.2,2.6
						c0.3,0.2,0.6,0.4,0.9,0.6c0.1,0.1,0.4,0.2,0.4,0.3c-0.1-0.3-0.7-0.5-0.1-0.1c0.6,0.5,1.2,1,1.9,1.6c1.3,1.1,2.5,2.3,3.7,3.5
						c1.1,1.2,2.2,2.4,3.3,3.7c0.3,0.3,0.6,0.7,0.8,1c0.1,0.1,0.8,1,0.4,0.5c-0.4-0.5,0,0,0.1,0.1c0.2,0.2,0.3,0.4,0.5,0.6
						c0.3,0.4,0.5,0.7,0.8,1.1c2,2.7,3.8,5.6,5.5,8.5c0.9,1.5,1.7,3.1,2.5,4.7c0.4,0.9,0.9,1.7,1.3,2.6c0.2,0.4,0.4,0.8,0.6,1.2
						c0.1,0.3,0.2,0.5,0.4,0.8c0,0.1,0.4,0.9,0.2,0.4c-0.2-0.5,0.1,0.2,0.1,0.2c0.1,0.2,0.2,0.4,0.2,0.6c0.2,0.5,0.4,1,0.6,1.5
						c0.3,0.9,0.6,1.8,0.9,2.7c0.6,1.9,1,3.9,1.3,5.9c-0.1-0.8,0-0.1,0,0.3c0,0.4,0.1,0.8,0.1,1.2c0,0.8,0.1,1.5,0,2.3
						c0,0.8-0.1,1.5-0.1,2.3c0,0.4-0.1,0.7-0.1,1.1c-0.1,0.7,0.2-1,0-0.3c0,0.2-0.1,0.5-0.1,0.7c-0.3,1.5-0.6,3-1.1,4.5
						c-0.2,0.7-0.5,1.5-0.8,2.2c-0.1,0.3-0.3,0.7-0.4,1c0-0.1,0.5-1,0.1-0.2c-0.1,0.2-0.2,0.4-0.3,0.6c-0.7,1.4-1.4,2.7-2.2,4
						c-0.4,0.6-0.8,1.3-1.3,1.9c-0.1,0.1-0.8,1-0.4,0.5c0.4-0.5,0,0,0,0.1c-0.2,0.2-0.4,0.5-0.6,0.7c-1,1.2-2,2.3-3.2,3.3
						c-0.6,0.5-1.1,1-1.7,1.5c-0.7,0.6,0.7-0.5-0.1,0.1c-0.4,0.3-0.8,0.6-1.1,0.8c-1.3,0.9-2.6,1.6-3.9,2.3
						c-0.4,0.2-0.7,0.4-1.1,0.5c-0.1,0.1-0.4,0.1-0.5,0.2c0,0,0.9-0.4,0.4-0.2c-0.8,0.3-1.5,0.6-2.3,0.8c-2.8,0.9-5.7,1.5-8.5,2.5
						c-3.3,1.1-6.4,2.5-9.1,4.8c-3.1,2.6-4.6,6.4-4.9,10.4c-0.2,2.2,0.2,4.4,0.5,6.6c0.3,2.1,0.6,4.1,1.1,6.2c0.9,4,2,8,3.5,11.8
						c0.8,2.1,1.7,4.3,2.6,6.3c1.1,2.4,4.7,3.1,6.8,1.8C962.9,941.4,963.3,938.7,962.2,936.2L962.2,936.2z"/>
				</g>
			</g>
			<g>
				<g>
					<path class="st5" d="M1060.2,831.4c1.7-3.1,5.2-4.2,8.6-4.5c4.6-0.4,9.1,0.6,13.7,0.6c4.8,0,9.6-1.4,13-5
						c3.1-3.3,4.6-7.7,5.2-12.1c0.7-5.3-0.1-10.7-0.1-16c0-1.9-0.4-4.9,1-6.5c0.9-1.1,2.6-1,3.9-0.7c2.1,0.5,3.8,1.6,5.6,2.7
						c2.2,1.3,4.5,2.4,7.1,2.6c4.3,0.4,7.9-2.4,10-6c2.6-4.5,3.3-9.8,4.5-14.7c1.4-6.3,2.9-12.6,4.3-18.9c0.7-3.1-4.1-4.5-4.8-1.3
						c-1.3,5.6-2.5,11.2-3.8,16.8c-1,4.6-1.7,9.5-3.6,13.9c-1.2,2.9-3.3,5.8-6.7,5.3c-2.2-0.3-4.2-1.7-6.1-2.8
						c-1.9-1.1-3.9-2-6.1-2.4c-2.2-0.3-4.5-0.3-6.5,0.9c-2,1.3-3.2,3.4-3.6,5.7c-0.9,5.5,0.1,11.1,0.1,16.6c0,4.2-0.6,8.5-2.9,12.1
						c-2.4,3.7-6.3,4.9-10.5,5c-5.2,0-10.2-1.1-15.3-0.4c-4.5,0.6-8.9,2.7-11.2,6.8C1054.4,831.7,1058.7,834.2,1060.2,831.4
						L1060.2,831.4z"/>
				</g>
			</g>
			<g>
				<g>
					<path class="st5" d="M697.8,775.9c-27.8-10.6-55.9-20.3-84.3-29.1c-8.1-2.5-16.2-5-24.3-7.4c-3.1-0.9-6.4,1.6-6.3,4.8
						c0.1,5.1,0.3,10.2,0.4,15.3c2.5-1.4,5-2.9,7.5-4.3c-11-6.1-22.1-12.2-33.1-18.3c-5.3-2.9-10.5-6.1-16-8.8
						c-2.8-1.4-5.9-2.4-9.1-2.3c-3.2,0.1-6.1,1.1-8.9,2.4c-4.6,2.1-8.9,4.9-13.6,6.6c-5,1.8-10.3,3.1-15.5,4
						c-10.1,1.8-20.8,2.3-31.3,3.5c-5.7,0.7-11.3,1.5-16.9,2.8c-4.8,1.1-10,2.8-13.2,6.7c-1.9,2.3-2.9,5-3.4,7.9
						c-0.2,1.2-0.3,2.3-0.6,3.5c-0.1,0.2-0.4,1.2-0.3,1c-0.1,0.2-0.2,0.4-0.3,0.6c-0.3,0.4,0.5-0.4-0.2,0.2c-0.3,0.2-1,0.7-0.3,0.3
						c-0.4,0.2-0.7,0.4-1.1,0.6c0.8-0.4-0.1,0-0.5,0.1c-0.5,0.1-1,0.3-1.6,0.3c-0.6,0.1,0.1,0,0.2,0c-0.2,0-0.5,0-0.7,0.1
						c-0.6,0-1.1,0-1.7,0c-0.5,0-1,0-1.5-0.1c-0.2,0-0.5,0-0.7-0.1c-0.1,0-1-0.1-0.6-0.1c0.3,0-0.8-0.1-1.1-0.2
						c-0.5-0.1-1-0.2-1.4-0.3c-1.5-0.3-2.9-0.7-4.4-1.1c-3-0.7-5.9-1.5-8.9-2.2c-6.2-1.5-12.3-3-18.5-4.5c-12.2-3-24.4-6-36.7-9
						c-2.8-0.7-5.7-1.4-8.5-2.1c-1.1-0.3-2.2-0.6-3.3-1c-0.3-0.1-0.5-0.2-0.8-0.3c0,0-0.8-0.3-0.4-0.1c0,0-0.9-0.5-1.3-0.7
						c-0.2-0.1-1.2-0.8-0.7-0.4c-0.4-0.3-0.8-0.7-1.1-1c0.4,0.5-0.5-0.7-0.6-1c-0.1-0.2-0.2-0.7-0.4-1.3c-0.4-1.6-0.1-4.4,0.3-6.3
						c2.2-12.2,4.7-24.3,7-36.4c0.6-3.1,1.2-6.2,1.8-9.3c0.5-2.6-0.7-5.4-3.5-6.2c-2.4-0.7-5.6,0.8-6.2,3.5
						c-2.4,12.6-4.9,25.2-7.3,37.7c-1.1,5.8-2.9,11.9-2.1,17.8c0.8,6.3,5,10.5,10.7,12.9c5.1,2.1,10.7,3,16.1,4.3
						c6.2,1.5,12.3,3,18.5,4.5c12.5,3.1,24.9,6.1,37.4,9.2c9.3,2.3,21.8,6.9,30.1-0.3c2-1.7,3.4-4.2,4-6.8c0.3-1.2,0.4-2.5,0.6-3.8
						c0.1-0.6,0.2-1.2,0.3-1.7c0.1-0.3,0.1-0.6,0.2-0.8c0-0.1,0.4-0.8,0.1-0.4c0.4-0.7,0.8-1.2,1.4-1.6c0.3-0.3,2.1-1.2,2.6-1.4
						c1.7-0.7,4.6-1.4,6.8-1.8c21.1-4.5,43.9-2.5,64.4-10.8c2.7-1.1,5.4-2.3,7.9-3.7c2.2-1.2,4.6-2.7,6.8-3.4c2.2-0.7,3.7-0.7,6,0.2
						c2.5,1,5.1,2.7,7.5,4c11.3,6.2,22.5,12.4,33.8,18.7c2.8,1.5,5.6,3.1,8.4,4.6c3.2,1.8,7.6-0.4,7.5-4.3
						c-0.1-5.1-0.3-10.2-0.4-15.3c-2.1,1.6-4.2,3.2-6.3,4.8c28.5,8.4,56.8,17.6,84.8,27.7c8,2.9,15.9,5.8,23.9,8.8
						c2.5,1,5.5-1.1,6.2-3.5C702.1,779.2,700.3,776.9,697.8,775.9L697.8,775.9z"/>
				</g>
			</g>
			<g>
				<g>
					<path class="st5" d="M519.7,735.2c-0.1-7.1-0.1-14.2-0.2-21.4c0-3.3-0.2-6.7,0-10c0-0.2,0-0.5,0.1-0.7c0-0.1,0-0.2,0-0.4
						c0.1-0.6,0.1-0.5,0,0.2c-0.1-0.4,0.3-1.3,0.4-1.7c0-0.1,0.1-0.2,0.1-0.3c0.2-0.5,0.2-0.4-0.1,0.2c0.1,0,0.3-0.5,0.3-0.6
						c0.1-0.1,0.1-0.2,0.2-0.3c0.3-0.4,0.3-0.4-0.2,0.2c0.2-0.2,0.3-0.3,0.5-0.5c-0.1,0.1-0.3,0.2-0.4,0.3c0.2-0.2,0.7-0.4,1-0.6
						c0,0,1.1-0.6,0.4-0.2c-0.7,0.4,0.4-0.2,0.5-0.2c0.6-0.3,1.3-0.5,1.9-0.8c1.5-0.7,3-1.5,4.1-2.8c2.6-2.9,3.2-6.6,2.6-10.4
						c-0.8-5.7-4.7-11.1-8.9-14.9c-4.5-4.1-9.8-7-15.5-9c-6.3-2.3-13-3.2-19.6-4c-3.5-0.4-7-0.8-10.4-1.2c-0.3,0-0.6-0.1-0.9-0.1
						c-1.6-0.2,1,0.2-0.6-0.1c-0.8-0.1-1.6-0.2-2.4-0.4c-1.5-0.2-3.1-0.5-4.6-0.9c-0.3-0.1-0.9-0.2-1.1-0.4c0.7,0.6,0.4,0.2,0.1,0
						c-0.2-0.1-0.8-0.3-1-0.6c0.1,0.1,0.3,0.2,0.4,0.3c-0.1-0.1-0.3-0.3-0.4-0.4c0,0-0.1-0.1-0.1-0.1c-0.4-0.4-0.3-0.4,0.1,0.1
						c-0.1-0.1-0.5-0.8-0.6-1c0.1,0.8,0.2,0.5,0.1,0.1c-0.1-0.5-0.3-1-0.4-1.5c0-0.2-0.2-0.6-0.1-0.8c-0.1,1.2,0,0.1,0-0.2
						c-0.1-0.7-0.1-1.4-0.2-2.1c-0.1-1.8-0.3-3.6-0.4-5.5c-1.1-16.1-2.3-32.2-3.4-48.3c-0.1-1.8-0.9-3.4-2.5-4.3c-1.5-0.9-3.6-1-5,0
						c-4.5,3.1-9.2,5.9-14.1,8.4c-2.4,1.2-4.9,2.4-7.3,3.4c-0.7,0.3,0.7-0.3,0,0c-0.3,0.1-0.7,0.3-1,0.4c-0.6,0.3-1.3,0.5-1.9,0.7
						c-1.3,0.5-2.7,1-4,1.5c-2.5,0.9-4.4,3.5-3.5,6.2c0.8,2.4,3.5,4.4,6.2,3.5c10.9-3.8,21.3-8.9,30.8-15.5c-2.5-1.4-5-2.9-7.5-4.3
						c1,14.3,2,28.5,3,42.8c0.3,3.6,0.5,7.3,0.8,10.9c0.2,3.4,0.5,6.8,2.2,9.9c3.6,6.8,12.4,7.2,19.1,8c3.5,0.4,7,0.8,10.4,1.2
						c0.8,0.1,1.6,0.2,2.4,0.3c1.5,0.2-0.6-0.1,0.3,0c0.4,0.1,0.8,0.1,1.2,0.2c1.7,0.3,3.5,0.5,5.2,0.9c3,0.6,5.9,1.4,8.8,2.4
						c0.6,0.2,1.2,0.4,1.8,0.7c-1.2-0.5,0.7,0.3,0.9,0.4c1.3,0.6,2.5,1.3,3.7,2c0.5,0.3,1.1,0.7,1.6,1c0.3,0.2,0.6,0.4,0.9,0.6
						c0.2,0.1,1.2,0.8,0.2,0.1c1.1,0.7,2.1,1.8,3,2.7c0.4,0.4,0.8,0.9,1.2,1.4c0.2,0.2,0.4,0.5,0.6,0.7c0.5,0.6-0.7-1,0,0
						c0.8,1.1,1.5,2.3,2.1,3.5c0.2,0.3,0.4,0.7,0.5,1c-0.4-1.1-0.2-0.4-0.1-0.2c0.2,0.6,0.4,1.3,0.5,1.9c0,0.1,0,0.1,0,0.2
						c0.1,0.6,0.1,0.5,0-0.3c0.1,0.1,0,0.9,0,1.1c0,0,0,0.7,0,0.7c0.1-0.8,0.1-0.9,0-0.3c-0.1,0.2-0.1,0.4-0.2,0.6
						c0,0,0.5-0.9,0.1-0.3c-0.6,1,0.8-0.7-0.1,0.1c-0.8,0.8,0.6-0.3,0,0c-0.3,0.1-0.5,0.3-0.8,0.5c-0.2,0.1-1.3,0.7-0.2,0.1
						c-0.2,0.1-0.5,0.2-0.7,0.3c-1,0.4-2,0.8-2.9,1.3c-7.4,3.9-6.8,12.7-6.8,19.8c0.1,8.1,0.1,16.2,0.2,24.3c0,2.6,2.3,5.1,5,5
						C517.4,740.1,519.7,738,519.7,735.2L519.7,735.2z"/>
				</g>
			</g>
			<g>
				<g>
					<path class="st5" d="M620.7,439.7c-0.5,5-1,9.9-1.4,14.9c-0.2,2.5-0.5,5-0.7,7.5c-0.2,2.5-0.8,5.2,0.1,7.6
						c1.9,5.2,7.3,6.4,12,7.8c4.8,1.4,9.5,2.8,14.3,4.3c4.8,1.4,9.5,2.8,14.3,4.3c2.1,0.6,4.3,1.2,6.4,1.9c0.9,0.3,1.8,0.6,2.6,0.9
						c0,0,0.5,0.2,0.5,0.2c-0.1,0.1-0.9-0.4-0.2-0.1c0.4,0.2,0.9,0.4,1.3,0.7c0.4,0.2,0.8,0.5,1.2,0.8c0.7,0.5-0.7-0.6,0.2,0.2
						c0.3,0.3,0.6,0.6,0.9,0.9c0.5,0.5-0.2,0-0.1-0.2c0,0,0.3,0.5,0.4,0.6c0.1,0.2,0.3,0.5,0.4,0.7c-0.1-0.2-0.3-0.9,0,0
						c0.1,0.5,0.2,1,0.3,1.4c0.1,0.6,0-0.2,0-0.3c0,0.3,0,0.6,0.1,0.9c0,0.6,0,1.2,0,1.7c0,1-0.2,2-0.3,3c-0.1,1,0,0.2,0,0
						c0,0.3-0.1,0.6-0.1,0.9c-0.1,0.6-0.2,1.2-0.3,1.8c-0.3,2.3-0.7,4.5-1.1,6.7c-3.2,18-8.1,36.2-7.2,54.6
						c0.2,4.6,0.8,9.2,1.8,13.7c0.5,2.2,1.1,4.3,1.8,6.4c0.3,1,0.7,2,1.1,2.9c0.2,0.6,0.4,1.1,0.6,1.7c0.1,0.3-0.1,0.6,0.1,0.2
						c0.1-0.2,0.2-1.2,0-0.5c-0.3,0.8,0.6-0.9,0,0c-0.3,0.5,0.8-0.6,0.2-0.3c-0.1,0.1-0.2,0.2-0.3,0.3c0,0-0.5,0.4-0.5,0.4
						c0-0.1,1-0.7,0.2-0.2c-0.4,0.2-0.7,0.5-1.1,0.7c-1.5,0.8-3,1.4-4.4,2.3c-3.4,2.1-6.3,5.1-8.2,8.6c-3.9,7.1-4.4,15.9-0.4,23.1
						c4,7.1,11.7,11.6,19.8,12.2c2,0.1,4.1-0.1,6.1-0.5c2.6-0.5,4.3-3.7,3.5-6.2c-0.9-2.7-3.4-4-6.2-3.5c-0.2,0-0.5,0.1-0.7,0.1
						c-0.3,0.1-0.5-0.1,0,0c0.6,0.1,0.1,0-0.2,0c-0.2,0-0.3,0-0.5,0c-0.9,0-1.7,0-2.6-0.1c-0.7,0,1,0.2,0.3,0
						c-0.2,0-0.3-0.1-0.5-0.1c-0.4-0.1-0.8-0.2-1.2-0.3c-0.7-0.2-1.7-0.8-2.4-0.8c0.6,0,0.7,0.3,0.2,0.1c-0.2-0.1-0.4-0.2-0.6-0.3
						c-0.3-0.2-0.6-0.3-0.9-0.5c-0.8-0.4-1.5-1.1-2.3-1.5c0,0,0.7,0.6,0.3,0.2c-0.2-0.2-0.4-0.3-0.5-0.4c-0.3-0.3-0.6-0.5-0.9-0.8
						c-0.3-0.3-0.6-0.6-0.8-0.9c-0.1-0.1-0.2-0.3-0.3-0.4c-0.6-0.7,0.4,0.6,0,0.1c-0.4-0.7-0.9-1.3-1.3-2c-0.1-0.3-0.6-0.8-0.5-1.1
						c0,0,0.4,0.9,0.2,0.4c-0.1-0.3-0.2-0.5-0.3-0.8c-0.2-0.8-0.4-1.5-0.6-2.3c-0.2-0.9,0.1,1,0-0.2c0-0.4-0.1-0.9-0.1-1.3
						c0-0.8,0.1-1.6,0.1-2.4c0.1-0.7-0.2,1,0,0.3c0-0.2,0.1-0.3,0.1-0.5c0.1-0.4,0.2-0.9,0.3-1.3c0.2-0.8,0.5-1.5,0.7-2.3
						c0.3-0.8-0.4,0.8,0.1-0.2c0.2-0.5,0.5-0.9,0.7-1.4c0.4-0.7,1-1.3,1.3-2c0,0-0.6,0.7-0.3,0.3c0.1-0.1,0.2-0.3,0.3-0.4
						c0.3-0.4,0.7-0.8,1-1.1c0.3-0.3,0.6-0.5,0.9-0.8c0.1-0.1,0.3-0.2,0.4-0.3c0.5-0.4-0.8,0.5-0.2,0.2c0.7-0.5,1.4-0.9,2.2-1.3
						c3.2-1.7,7-3.2,8.6-6.7c1.3-2.7,1.2-5.6,0.1-8.4c-0.8-2-1.5-4-2.2-6.1c-0.6-2.1-1.1-4.3-1.5-6.4c-0.1-0.5-0.2-1-0.3-1.5
						c0-0.3-0.2-1.7-0.1-0.6c-0.1-1.1-0.3-2.2-0.3-3.3c-0.4-4.3-0.3-8.5-0.1-12.8c0.1-2.2,0.3-4.3,0.5-6.5c0.1-1,0.2-2.1,0.4-3.1
						c0.1-1,0-0.2,0,0c0-0.2,0.1-0.5,0.1-0.7c0.1-0.7,0.2-1.4,0.3-2c1.3-8.8,3.2-17.5,4.8-26.2c0.8-4.6,1.6-9.1,2.2-13.7
						c0.6-4.8,1-9.9-1.7-14.2c-2.4-3.9-6.3-6.1-10.4-7.6c-4.1-1.6-8.5-2.6-12.7-3.9c-9.2-2.7-18.4-5.5-27.7-8.2
						c-0.4-0.1-0.9-0.3-1.3-0.4c-0.2-0.1-0.4-0.2-0.7-0.2c-0.5-0.2,0.4,0.1,0.4,0.2c-0.1-0.1-0.9-0.5-1.1-0.6
						c-0.6-0.3,0.7,0.6,0.2,0.1c-0.4-0.4,0.6,1,0.1,0.1c0.1,0.3,0.2,0.5,0.2,0.8c0.2,0.5,0,0,0-0.2c0-0.6,0-1.1,0.1-1.7
						c0.1-1.2,0.2-2.5,0.4-3.7c0.5-4.8,0.9-9.6,1.4-14.4c0.2-2.4,0.5-4.8,0.7-7.2c0.3-2.6-2.5-5.1-5-5
						C622.7,434.8,620.9,436.9,620.7,439.7L620.7,439.7z"/>
				</g>
			</g>
			<g>
				<g>
					<path class="st5" d="M675.5,515.5c12,2.2,23.9,4.6,35.9,6.5c9.8,1.6,20.2,2.6,30-0.1c5.5-1.5,10.6-4.4,14.6-8.5
						c-2.8-1.2-5.7-2.4-8.5-3.5c-0.9,8.4-1.9,16.9-2.8,25.3c-0.2,2.2-0.5,4.3-0.7,6.5c-0.3,2.4-0.4,4.8,1,7c1.4,2.2,3.6,3.2,5.9,4.1
						c1.9,0.8,3.9,1.5,5.8,2.3c7.9,3.1,15.8,6.2,23.7,9.2c0.9,0.3,1.8,0.7,2.7,1c0.2,0.1,0.4,0.1,0.5,0.2c0,0-0.8-0.4-0.3-0.1
						c0.4,0.2,0.8,0.4,1.2,0.6c0.7,0.3,1.4,0.7,2,1.1c0.2,0.1,0.3,0.2,0.5,0.3c0.5,0.3-0.2-0.2-0.2-0.2c0.3,0.1,0.9,0.8,1.1,1
						c0.3,0.3,0.6,0.9,0.2,0.2c0.2,0.3,0.4,0.7,0.6,1c0.1,0.2,0.2,0.4,0.3,0.5c0.3,0.5-0.1-0.3-0.1-0.3c0.2,0.2,0.3,1,0.4,1.3
						c0.1,0.4,0.2,0.8,0.3,1.2c0,0.2,0.2,1.4,0.1,0.7c-0.1-0.6,0.1,0.6,0.1,0.8c0,0.5,0.1,1.1,0.1,1.6c0.4,9.4,0.2,18.8,0.3,28.1
						c0,2.6,2.3,5.1,5,5c2.7-0.1,5-2.2,5-5c-0.1-8.5-0.2-17-0.3-25.5c0-3.7-0.1-7.6-1.5-11.1c-1.6-4-4.4-7.1-8.2-9.1
						c-3.5-1.9-7.5-3.2-11.2-4.6c-3.9-1.5-7.9-3.1-11.8-4.6c-4-1.6-8.1-3.1-12.1-4.7c-0.5-0.2-0.9-0.4-1.4-0.5
						c-0.2-0.1-0.4-0.2-0.6-0.2c-0.5-0.2,0.4,0.2,0.4,0.2c0-0.1-0.8-0.5-0.9-0.5c0.6,0,0.9,1.2,1.1,1.6c0.2,0.5,0,0,0-0.2
						c0-0.2,0-0.4,0.1-0.7c0-0.5,0.1-1,0.2-1.5c0.1-1.2,0.3-2.3,0.4-3.5c1-9.5,2.1-19,3.1-28.6c0.2-1.9-1.4-3.9-3.1-4.6
						c-1.8-0.8-4.1-0.4-5.5,1c-0.7,0.8-1.5,1.5-2.4,2.2c-0.7,0.6,0.1-0.1,0.2-0.1c-0.1,0.2-0.5,0.4-0.7,0.5c-0.5,0.3-1,0.6-1.5,0.9
						c-0.9,0.5-1.8,1-2.8,1.4c-0.7,0.3,1.2-0.4,0.1,0c-0.2,0.1-0.4,0.2-0.6,0.2c-0.5,0.2-1.1,0.4-1.6,0.6c-1,0.3-2,0.6-3.1,0.8
						c-0.5,0.1-0.9,0.2-1.4,0.3c-0.3,0.1-0.6,0.1-0.9,0.1c-0.4,0.1-0.2,0,0.4-0.1c-0.2,0-0.4,0-0.5,0.1c-2.2,0.3-4.5,0.4-6.8,0.3
						c-2.3,0-4.5-0.2-6.7-0.4c-1.1-0.1-2.3-0.2-3.4-0.4c-0.9-0.1,0.1,0,0.2,0c-0.3,0-0.6-0.1-0.9-0.1c-0.6-0.1-1.2-0.2-1.9-0.3
						c-5.4-0.8-10.7-1.9-16.1-2.9c-6.8-1.2-13.6-2.5-20.4-3.7c-2.6-0.5-5.5,0.7-6.2,3.5C671.4,511.8,672.7,515,675.5,515.5
						L675.5,515.5z"/>
				</g>
			</g>
			<g>
				<g>
					<path class="st5" d="M849.9,485.5c-0.3-3.2-1.4-6-2.4-9c-0.8-2.2-1.5-4.4-1-6.6c0.2-1,0.5-1.8,1-2.6c0.2-0.3,0.4-0.6,0.7-0.9
						c0.1-0.1,0.6-0.4,0.6-0.4c2-0.9,4.3,1.2,5.9,2.5c4.6,3.4,10.1,5.1,15.7,6.2c5.2,1,12.1,3,16.9-0.4c4.1-2.8,5.5-10.5,0.3-13
						c-1.2-0.6-2.7-0.3-3.4,0.9c-0.6,1.1-0.3,2.8,0.9,3.4c0.5,0.3,0.3,0.1,0.7,0.5c-0.2-0.2,0,0,0,0.1c-0.2-0.4,0.1,0.3,0.1,0.4
						c0,0.1,0.1,0.5,0,0.1c0,0.2,0,0.4,0,0.5c0,0.5,0,0.6-0.3,1.3c-0.2,0.5-0.5,1-1,1.5c-0.5,0.4-1.7,0.9-2.6,1
						c-2.6,0.4-5.4-0.3-7.9-0.7c-2.7-0.5-5.4-1-8.1-1.8c-2.5-0.7-5-1.7-7.2-3.2c-2.2-1.4-4.1-3.3-6.7-4.2c-5.1-1.6-9.3,2.4-10.5,7.1
						c-0.7,2.8-0.4,5.5,0.5,8.2c0.9,3,2.4,5.9,2.7,9.1c0.1,1.3,1.1,2.5,2.5,2.5C848.6,488,850,486.8,849.9,485.5L849.9,485.5z"/>
				</g>
			</g>
			<g>
				<g>
					<path class="st5" d="M529.7,518.7c-1.1,6.9-2.4,13.9-3.3,20.9c-0.4,3,0,6.2,2.5,8.3c2.3,1.9,5.4,2.5,8.3,2.9
						c3.3,0.5,6.6,0.6,9.8,0.2c1.7-0.2,3.3-0.4,5-0.8c1.3-0.3,2.7-0.9,4.1-0.9c2.2,0.1,1.5,3,1.4,4.5c-0.2,3-0.1,5.9,0.4,8.8
						c1.1,6.7,4.1,12.9,8.5,18c0.9,1,2.6,0.9,3.5,0c1-1,0.9-2.5,0-3.5c-3.6-4.2-5.9-9.2-7-14.6c-0.5-2.7-0.7-5.5-0.5-8.3
						c0.2-2.5,0.4-5.2-1.1-7.4c-1.9-2.6-5-2.8-7.9-2.2c-2.9,0.6-5.7,1.4-8.7,1.5c-3,0.1-6,0-8.9-0.7c-2.2-0.5-4.6-1.1-4.6-3.8
						c0-1.6,0.3-3.1,0.6-4.7c0.3-1.9,0.6-3.9,0.9-5.8c0.6-3.7,1.2-7.4,1.8-11.1c0.2-1.3-0.3-2.7-1.7-3.1
						C531.6,516.6,529.9,517.3,529.7,518.7L529.7,518.7z"/>
				</g>
			</g>
			<g>
				<g>
					<path class="st5" d="M713.7,904.3c6,5.4,11.8,11,17.6,16.7c2.8,2.8,5.7,5.7,8.4,8.5c0.6,0.6,1.1,1.2,1.7,1.8
						c0.1,0.2,0.3,0.3,0.4,0.5c0-0.1-0.4-0.7-0.2-0.2c0.3,0.4,0.5,0.9,0.8,1.4c0.4,0.5-0.2-0.3-0.1-0.3c0.1,0,0.2,0.5,0.2,0.5
						c0,0,0.1,0.6,0.1,0.6c-0.1,0,0-1-0.1-0.4c0,0,0,0.6,0,0.6c-0.1,0,0.3-0.9,0-0.4c0,0-0.1,0.5-0.2,0.5c-0.1,0,0.5-0.9,0-0.2
						c-0.1,0.2-0.4,0.8-0.6,0.9c0,0,0.6-0.7,0.2-0.3c-0.1,0.1-0.3,0.3-0.4,0.4c-0.6,0.6-1.2,1.2-1.8,1.8c-1.4,1.3-2.9,2.6-4.4,3.9
						c-3,2.7-6,5.3-9,7.9c-6,5.1-12.1,10.2-18.2,15.1c-1.5,1.2-3.1,2.4-4.6,3.6c-0.7,0.6-1.5,1.2-2.2,1.7c-0.4,0.3-0.7,0.6-1.1,0.9
						c-0.5,0.3,0,0,0.1-0.1c-0.2,0.2-0.5,0.4-0.7,0.6c-3.1,2.4-6.2,4.7-9.4,7.1c-6.3,4.7-12.8,9.3-19.3,13.7
						c-12,8.3-24.7,16.8-30.4,30.8c-2.7,6.5-3.5,13.9-1.7,20.8c1,3.7,2.8,6.9,5.1,9.9c0.2,0.3,0.5,0.6,0.8,1c0.2,0.3,0.7,1,0.2,0.3
						c0.5,0.8,1.1,1.5,1.5,2.3c0.4,0.8-0.1-0.6,0.1,0.3c0,0.2,0.1,0.4,0.1,0.5c0.2,0.5-0.1-0.5-0.1-0.6c0,0,0,0.4,0,0.5
						c-0.2,0.5,0.2-0.6,0.1-0.6c0,0-0.1,0.4-0.1,0.5c-0.1,0.3-0.4,0.6,0,0.1c0.5-0.6-0.1,0.1-0.2,0.4c-0.2,0.5,0.2-0.4,0.3-0.4
						c0,0-0.3,0.3-0.3,0.3c-0.4,0.3,0.5-0.4,0.5-0.4c-0.1,0.1-0.6,0.3,0.1,0c0.7-0.3,0.3-0.1,0.1-0.1c0.6-0.2,0.9-0.1,1.5,0
						c-1.4-0.2-2.6-0.2-3.9,0.5c-1,0.6-2,1.8-2.3,3c-0.5,2.4,0.7,5.8,3.5,6.2c2.8,0.4,5.1-0.1,7.3-1.9c1.5-1.2,2.5-3.1,3.1-4.9
						c1.4-4.7-1-8.8-3.7-12.3c-0.2-0.3-0.5-0.6-0.8-1c-0.1-0.2-0.3-0.3-0.4-0.5c0,0,0.5,0.7,0.2,0.2c-0.5-0.7-1-1.5-1.5-2.2
						c-0.2-0.3-0.4-0.7-0.5-1c-0.1-0.2-0.2-0.3-0.2-0.5c-0.5-1,0.1,0.2,0.1,0.2c-0.1,0-0.7-2.1-0.8-2.3c-0.1-0.4-0.2-2.2-0.5-2.4
						c0,0,0.1,1,0.1,0.4c0-0.2,0-0.4-0.1-0.6c0-0.4-0.1-0.9-0.1-1.3c0-0.8,0-1.6,0-2.5c0-0.4,0-0.8,0.1-1.1c0-0.2,0-0.4,0.1-0.6
						c0.1-1.1,0,0,0,0c-0.2,0,1-4.5,1.1-4.9c0.2-0.7,0.5-1.5,0.8-2.2c0.1-0.3,0.1-0.8-0.1,0.1c0-0.2,0.2-0.4,0.2-0.5
						c0.2-0.4,0.4-0.8,0.6-1.2c0.8-1.5,1.6-2.9,2.6-4.3c0.2-0.3,0.5-0.7,0.7-1c0.5-0.8,0.1-0.1,0,0c0.1-0.2,0.3-0.3,0.4-0.5
						c0.6-0.7,1.1-1.4,1.7-2c2.4-2.7,5.2-5.2,8-7.5c0.3-0.3,0.7-0.5,1-0.8c0.4-0.4-0.1,0.1-0.2,0.1c0.2-0.1,0.3-0.3,0.5-0.4
						c0.8-0.6,1.6-1.2,2.4-1.7c1.5-1.1,3-2.1,4.4-3.1c13.6-9.4,26.9-19,39.9-29.2c6.4-5.1,12.8-10.3,19-15.6c3.1-2.6,6.2-5.3,9.2-8
						c2.9-2.5,6-5,8.6-7.8c1.5-1.7,2.8-3.6,3.3-5.8c0.6-2.7,0.1-5.3-1-7.8c-1.7-3.6-5.1-6.5-7.8-9.3c-5.9-6-11.9-11.8-18.1-17.6
						c-1.5-1.4-3.1-2.8-4.6-4.2c-1.9-1.8-5.2-2.1-7.1,0C711.9,899.2,711.6,902.4,713.7,904.3L713.7,904.3z"/>
				</g>
			</g>
			<g>
				<g>
					<path class="st5" d="M688.6,990.2c13.7,8.8,27.2,18.1,40.3,27.8c3.7,2.8,7.4,5.6,11.1,8.4c0.4-3,0.8-6.1,1.2-9.1
						c-8.4,3.4-17,7.1-22.3,14.8c-2.5,3.6-4.1,8-4.1,12.4c-0.1,5,2.1,9.4,5.3,13.1c2.9,3.4,6.5,6.3,9.9,9.3
						c3.6,3.3,7.3,6.6,10.9,9.8c3.6,3.3,7.3,6.6,10.9,9.8c1.9,1.7,3.7,3.3,5.6,5c0.8,0.7,1.6,1.5,2.4,2.2c0.4,0.4,0.8,0.7,1.1,1.1
						c0.1,0.1,0.3,0.3,0.4,0.4c0.4,0.4,0.4,0.6,0.1,0.1c0.3,0.4,0.7,0.9,0.8,1.3c0-0.2-0.3-1-0.1-0.1c0.1,0.8,0.1-0.2,0-0.2
						c0.1,0,0,0.7,0,0.9c0.1-0.7,0-0.3-0.1,0.2c-0.1,0.6-0.3,1.1-0.5,1.7c-0.7,2.9-0.6,5.8,0.4,8.6c0.4,1.1,0.9,2.2,1.3,3.4
						c0.1,0.3,0.2,0.5,0.2,0.8c0,0.2,0.2,1,0.1,0.1c-0.2-1-0.1,0.8-0.1,0.9c0-0.1,0.3-1,0.1-0.6c0,0.1-0.2,0.7-0.2,0.7
						c-0.1-0.1,0.6-1.1,0.2-0.4c-0.1,0.1-0.3,0.4-0.3,0.5c0-0.3,0.7-0.8,0.3-0.4c-0.6,0.6,0.8-0.5,0.3-0.2c-0.4,0.3,0.6-0.3,0.6-0.3
						c1.1-0.3,0.9-0.1,0.2-0.1c-2.6-0.2-5.1,2.5-5,5c0.1,2.9,2.2,4.8,5,5c5.4,0.4,8.7-4.9,9-9.6c0.1-2.2-0.6-4.3-1.4-6.3
						c-0.4-0.9-0.7-1.8-1-2.8c-0.1-0.2-0.2-0.6-0.2-0.8c0,0.2,0.1,1.1,0.1,0.1c0-0.1,0-0.8,0-0.2c0,0.7,0.1-0.5,0.1-0.6
						c0.6-2.7,1.4-5.2,0.6-8c-0.6-2.5-2.2-4.6-4-6.4c-3.4-3.4-7.2-6.5-10.7-9.7c-7.4-6.6-14.7-13.2-22.1-19.8
						c-1.7-1.5-3.4-3-5.1-4.6c-0.7-0.7-1.5-1.4-2.2-2.2c-0.3-0.4-0.6-0.7-0.9-1.1c-0.4-0.4,0.1,0.2,0.2,0.2
						c-0.2-0.3-0.4-0.5-0.6-0.8c-0.3-0.4-0.5-0.8-0.7-1.2c-0.1-0.2-0.2-0.5-0.4-0.7c0.1,0.2,0.3,1,0,0.1c-0.1-0.4-0.3-0.8-0.4-1.3
						c0-0.2-0.1-0.4-0.1-0.6c-0.3-1.2,0,0.7,0,0c0-0.9,0-1.7,0-2.6c0-0.7-0.2,0.9,0,0.2c0-0.2,0.1-0.4,0.1-0.6
						c0.1-0.6,0.3-1.1,0.5-1.7c0.1-0.2,0.1-0.4,0.2-0.5c0,0,0.5-1.1,0.2-0.5c-0.3,0.6,0.1-0.1,0.2-0.3c0.1-0.3,0.3-0.6,0.5-0.9
						c0.3-0.5,0.5-0.9,0.8-1.3c0.1-0.2,0.3-0.4,0.4-0.6c0.3-0.5,0.2-0.2-0.1,0.1c0.7-0.9,1.5-1.7,2.3-2.4c0.5-0.4,0.9-0.8,1.4-1.2
						c-0.8,0.6,0.4-0.3,0.7-0.5c2-1.4,4-2.5,6.2-3.5c1-0.5,2-0.9,3.1-1.4c-0.9,0.4-0.2,0.1,0,0c0.3-0.1,0.6-0.3,1-0.4
						c0.6-0.2,1.2-0.5,1.8-0.7c1.9-0.8,3.3-2,3.6-4.2c0.3-2.2-0.7-3.7-2.4-5c-12.9-10-26.2-19.5-39.7-28.6
						c-3.9-2.6-7.7-5.1-11.6-7.6c-2.2-1.4-5.6-0.5-6.8,1.8C685.5,985.9,686.3,988.7,688.6,990.2L688.6,990.2z"/>
				</g>
			</g>
			<g>
				<g>
					<path class="st5" d="M413.4,942.8c2.4-10.1,4.8-20.1,7.1-30.2c1.1-4.8,2-9.8,3.5-14.6c0.1-0.2,0.3-0.6,0.3-0.8
						c0,0-0.2,0.1-0.3,0c0.7,0.3,1.3,0.8,1.8,1.5c1.1,1.5,2.1,3.1,3.2,4.7c9.6,13,23.4,22.7,38.9,27.5c3.9,1.2,7.8,2,11.9,2.5
						c4.5,0.6,9.4,0.6,13.4-1.8c6.3-3.7,7.8-11.3,9.9-17.8c1-3.1,2.2-6.2,4.5-8.6c2.2-2.3,5.1-3.8,8.2-4.6c3.1-0.8,6.5-0.7,9.6,0.2
						c3.9,1.1,7.2,4.2,11.4,4.3c4.5,0.1,7.2-3.5,8.8-7.3c1.9-4.5,3.4-9.2,5-13.8c3.5-9.6,6.9-19.3,10.4-28.9
						c0.9-2.4,1.7-4.8,2.6-7.2c-1.4,0.4-2.8,0.7-4.2,1.1c6.9,7.6,15.7,13.4,25.3,17c1.3,0.5,2.7-0.5,3.1-1.7
						c0.4-1.4-0.5-2.6-1.7-3.1c-8.9-3.3-16.8-8.7-23.1-15.7c-1.4-1.5-3.6-0.6-4.2,1.1c-3.5,9.7-7,19.5-10.4,29.2
						c-1.7,4.8-3.5,9.6-5.2,14.5c-0.7,2-1.4,4.1-2.2,6.1c-0.6,1.3-1.4,3-2.7,3.6c-1.6,0.8-3.4-0.1-4.8-0.9c-1.9-1-3.7-2-5.7-2.7
						c-3.5-1.2-7.2-1.4-10.9-0.9c-7.2,1-13.5,5.3-16.5,12c-1.5,3.3-2.4,6.7-3.5,10.1c-0.9,2.9-2,6.1-4.1,8.3
						c-2.7,2.8-6.7,3.2-10.5,2.9c-3.9-0.3-7.8-1.2-11.6-2.2c-15-4.3-28.6-13.7-37.7-26.3c-2.2-3.1-4.7-8.5-9.4-7.7
						c-2.3,0.4-3.6,2.3-4.2,4.5c-0.7,2.4-1.1,4.8-1.7,7.2c-2.4,10-4.7,20-7.1,30c-0.6,2.5-1.2,5-1.8,7.5
						C407.8,944.6,412.7,945.9,413.4,942.8L413.4,942.8z"/>
				</g>
			</g>
			<g>
				<g>
					<path class="st5" d="M544.6,889c2.6,4.8,5.3,9.6,9.8,12.9c3.9,2.9,9.5,4.3,14.2,2.4c2.2-0.9,3.9-2.4,5.5-4
						c1.3-1.4,2.7-3.1,4.1-4.1c0.3-0.2,0.6-0.4,1-0.5c-0.3,0.1,0.9-0.1,0.6-0.1c0.8-0.1,1.7,0.4,2.5,1c2.4,1.8,4.6,3.7,6.9,5.6
						c5.5,4.4,11,8.9,16.5,13.3c1.1,0.8,2.5,1,3.5,0c0.9-0.9,1.1-2.7,0-3.5c-4.9-3.9-9.7-7.8-14.6-11.7c-2.4-2-4.9-3.9-7.3-5.9
						c-2.1-1.7-4.2-3.6-7.1-3.8c-4.4-0.2-7.3,3.6-10,6.4c-1.4,1.4-2.7,2.6-4.7,3c-2,0.4-4.2,0-6-0.8c-5.3-2.3-8.1-8-10.7-12.8
						C547.3,883.7,543,886.2,544.6,889L544.6,889z"/>
				</g>
			</g>
			<g>
				<g>
					<path class="st5" d="M812.7,975.1c-2,6.3-4.1,12.5-6.1,18.8c-1,3-2,6-2.9,9.1c-0.8,2.8-1.4,6-0.4,8.8c1.6,4.5,6.4,6.8,11,6.3
						c5.3-0.5,9.3-4.2,12-8.6c2.8-4.4,4.2-9.6,7.4-13.8c1.3-1.6,3.2-3.9,5.5-2.9c1.2,0.5,2.4,1.5,3.5,2.2c1.2,0.9,2.5,1.7,3.7,2.7
						c4.7,3.5,9,7.4,13.1,11.6c3.6,3.7,7.1,7.8,11.6,10.5c5.4,3.2,11.2,3.2,17.2,1.7c5.3-1.3,10.9-3.7,16.3-2c3.1,1,4.4-3.9,1.3-4.8
						c-5-1.6-10.1-0.4-14.9,0.9c-4.6,1.3-9.5,2.8-14.2,1.3c-4.5-1.4-8-5.1-11.2-8.4c-3.9-4.1-7.9-8.1-12.3-11.7
						c-2.3-1.9-4.6-3.7-7-5.4c-2.3-1.6-4.8-3.6-7.7-3.9c-5.7-0.6-9.6,5.6-11.9,9.9c-2.2,4.3-3.9,9.2-7.4,12.7
						c-2.6,2.6-6.6,3.9-9.8,1.9c-1.8-1.1-2.1-3.4-1.7-5.6c0.7-3.3,1.9-6.5,3-9.7c2.2-6.8,4.4-13.6,6.6-20.4
						C818.5,973.4,813.7,972.1,812.7,975.1L812.7,975.1z"/>
				</g>
			</g>
			<ellipse class="st6" cx="773.3" cy="830.2" rx="133.3" ry="136.5"/>
			<circle class="st7" cx="773.3" cy="829.6" r="116"/>
			<circle class="st6" cx="773.1" cy="830.4" r="92.3"/>
			<circle cx="773.3" cy="830.2" r="88.9"/>
			<g>
				<path class="st8" d="M735.5,746.4c-16.2-9.7-34.8-15.4-53.6-16.2c-8.7-0.4-17.7,0.2-25.9,3.2c-5,1.8-9.9,4.6-13,8.9
					c-5.9,7.9-4.7,18.8-3.2,28.6c0.5,3.4,1.1,7.1,3.6,9.6c3.4,3.5,9,3.3,13.8,3.1c13.6-0.5,27.2,0.7,40.5,3.7
					c7.6,1.7,15.7,4,23.1,1.4c7.1-2.5,11.9-8.9,16.2-15c1.4-2,2.8-4,3.4-6.3c0.5-2,0.3-4,0.1-6c-0.4-4.4-0.9-8.7-1.3-13.1
					c-0.2-1.7-1.6-4-2.9-2.9"/>
				<g>
					<path class="st8" d="M736.8,744.2c-16.4-9.9-35.3-15.6-54.4-16.5c-17.2-0.9-41.9,2.7-45.7,23.2c-0.8,4.3-0.7,8.8-0.3,13.1
						c0.4,4.2,0.7,8.7,2.1,12.8c1.4,4.3,4.5,7.5,9,8.6c4.2,1.1,8.6,0.6,12.9,0.5c10.4-0.2,20.8,0.6,31,2.5c9.7,1.8,20.3,6,30.1,2.6
						c8.3-2.9,13.8-10.4,18.6-17.4c1.3-1.9,2.5-4,2.9-6.4c0.5-2.7,0.1-5.3-0.2-7.9c-0.3-2.6-0.5-5.2-0.8-7.8
						c-0.2-2.3-0.2-4.8-1.4-6.8c-1.2-1.9-3.5-3.1-5.6-1.7c-2.7,1.8-0.2,6.1,2.5,4.3c-0.2,0.1-1.3,0-1.2-0.1c0,0,0.3,0.5,0.3,0.6
						c0.4,1,0.3,2.2,0.4,3.2c0.2,2.3,0.5,4.7,0.7,7c0.2,2.4,0.6,4.8,0.5,7.1c-0.1,2-1,3.7-2.1,5.4c-2.1,3.2-4.5,6.4-7.1,9.3
						c-2.4,2.6-5.3,5.1-8.7,6.3c-8.5,3.1-18-0.6-26.4-2.3c-9.4-1.8-19-2.8-28.6-3c-4.3-0.1-8.6,0.3-12.9,0.2
						c-3.2-0.1-6.6-0.9-8.3-3.9c-1.7-3.1-1.9-7.2-2.4-10.7c-0.5-4-0.8-8-0.4-12c0.3-3.6,1.3-7.1,3.4-10.2c2.1-3.2,5.3-5.4,8.6-7
						c7.8-3.8,16.9-4.8,25.5-4.7c17.3,0.2,34.6,4.7,50,12.8c1.9,1,3.7,2,5.6,3.1C737,750.2,739.5,745.9,736.8,744.2L736.8,744.2z"/>
				</g>
			</g>
			<path class="st9" d="M643.3,778.5c0,0-8.2-36.5,3-39.5c11.2-3,48-20.8,89.6,8.3c9.7,3.1,1.4,33.4-16.3,40.6
				c-26.9,0.4-54.1-9.1-68.2-6.2"/>
			<path class="st10" d="M722.6,738l14.6,5.5"/>
		</g>
		<path class="st11" d="M377.7,491.9c0,0,2.8,11.6,0,15.2c-2.8,3.7,8.2-3.6,8.2-3.6L377.7,491.9z"/>
		<polygon class="st11" points="1093.2,416 1086.8,424.1 1089.5,411.6 		"/>
		<path class="st11" d="M747.4,402.6l14.1-0.1c0,0-8.5-20.7-8.1-29.9S755.6,398.9,747.4,402.6"/>
		<polygon class="st11" points="1054.9,472.7 1064.7,458.7 1065.8,480.6 		"/>
		<polygon class="st11" points="868.2,414.2 870.4,405.2 871.6,414.9 		"/>
		<polygon class="st11" points="883.5,308.9 892.1,310.9 880.6,341.1 		"/>
		<polygon class="st11" points="995.9,361.1 998,346.2 1003,349.8 		"/>
		<polygon class="st11" points="963.3,437 976.2,415 973.8,440.7 		"/>
		<polygon class="st11" points="1053.7,975.8 1057.7,970.5 1062.5,981.3 		"/>
		<polygon class="st11" points="1082.7,1002.6 1094.4,1010.1 1089.8,1017.2 		"/>
		<polygon class="st11" points="991.9,1022.2 1001,1015 1009.7,1036.6 		"/>
		<polygon class="st11" points="1033.4,1063 1043.3,1079.4 1047.4,1074.6 		"/>
		<polygon class="st11" points="959.5,1110.2 968.8,1141.9 976.7,1136.7 		"/>
		<polygon class="st11" points="929.9,1062.3 940.6,1056.7 945.4,1079.4 		"/>
		<polygon class="st11" points="864.2,1126.5 848.8,1099.1 864.2,1095.2 		"/>
		<polygon class="st11" points="871.2,1163.1 870.5,1190.2 879.9,1185.6 		"/>
		<polygon class="st11" points="762.6,1137.6 757.4,1117.7 767.5,1117.7 		"/>
		<polygon class="st11" points="747.9,1216.3 758,1189 759.9,1217.2 		"/>
		<polygon class="st11" points="667.1,1123.8 669.1,1102.2 677.3,1105.9 		"/>
		<polygon class="st11" points="657.1,1161.9 644.8,1192.8 652.8,1194.8 		"/>
		<polygon class="st11" points="581.8,1085 584.3,1064.5 592.9,1069.1 		"/>
		<polygon class="st11" points="570.3,1113 549.2,1147.2 558,1152 		"/>
		<polygon class="st11" points="512.7,1043.4 520.3,1024.1 528.7,1031.2 		"/>
		<polygon class="st11" points="487.5,1074.7 471.2,1087.7 477.1,1093.6 		"/>
		<polygon class="st11" points="453.5,998.3 460.7,978.9 467.3,984.2 		"/>
		<polygon class="st11" points="428.9,1035.2 437.5,1019.1 423.7,1027.2 		"/>
		<path class="st12" d="M893.1,310.1c0,0-46.9,71.1-20.6,110.5c22.5,33.7,90.2,17.1,90.2,17.1s28.3-43.9,35.2-92.3"/>
		<path class="st12" d="M1091.9,415.3c2.9,2-7.8,6.9-24.5,42.2c-17,36.1,53.4,42,53.4,42s7.3-5.3,19.6-19.5"/>
		<path class="st12" d="M509.9,341.5c6.8,48.4,35.2,95.8,35.2,95.8s84.1,29.8,90.2-17.1s-20.6-110.5-20.6-110.5"/>
		<path class="st12" d="M502.7,344.8c0,0,32.1,57.1,31.4,100.5c-0.7,43.4-81.2,25.2-81.2,25.2s-24.4-26.4-35.8-69.7"/>
		<path class="st12" d="M412.1,405.7c0,0,14.4,17.4,27.7,55s-51.1,42.6-51.1,42.6s-8.4,4.6-21.1-38.9"/>
		<path class="st12" d="M1083.7,425.7c0,0,6.5-14.7,5.4-12.1c-17.5,41.3-34.1,57.3-34.1,57.3s-31.3,6.7-55.8-2
			c-16.7-5.9-26.7-23.1-24.2-40.7c5.6-39.1,28.6-79.6,28.6-79.6"/>
		<path class="st12" d="M548.4,1148.3c0,0,38.7-60,34.7-85.8c-5.4-34.5-52.5-31.3-52.5-31.3s-29,15.7-52.8,61.7"/>
		<path class="st12" d="M421.8,1027.2c7-1.9,19-9.2,33.5-34.9c14.8-26.2-24.4-38.6-24.4-38.6s-25.3,10.7-35.8,20.9"/>
		<path class="st12" d="M643.9,1192.8c8-13.4,28.5-78.2,23.5-91.9c0,0-52.2-44.8-71.1-32.2c-18.5,8.8-36.8,84.7-36.8,84.7"/>
		<path class="st12" d="M654.3,1196.3c0,0,3-56.4,23.8-91.9c15.4-26.3,78.8,12.2,78.8,12.2c9.6,20.1,0.2,86.5-10,101.3"/>
		<path class="st12" d="M435,1019.8c0,0-5.8,16.8-4.8,14.9c15.2-30,37.6-48.8,37.6-48.8s50.2,1.2,51,36.3
			c0.5,23.5-47.6,65.5-47.6,65.5"/>
		<path class="st12" d="M976.7,1136.7c0,0-38.4-58.1-35-83.4c4.6-33.7,49.3-31.1,49.3-31.1s21.8,12.9,52.9,58.1"/>
		<path class="st12" d="M1094.9,1009.1c-7-1.7-19.1-8.6-34.1-33.3c-15.3-25.2,30-34.4,30-34.4s18.7,6.2,29.3,16"/>
		<path class="st12" d="M880.3,1186.5c-5.9-11.2-19.2-60.9-15.5-93.7c0,0,45.2-42.8,64.3-30.9c18.6,8.2,39.7,80,39.7,80"/>
		<path class="st12" d="M870.5,1190.2c0,0,6.7-56.6-23-90.6c-6.1-7-78.4,17.1-78.4,17.1c-9.1,19.8-12.4,84.8-8.2,99.6"/>
		<path class="st12" d="M1089.8,1018.2c-15.8-28.9-37-43.1-37-43.1s-41.7,3.1-49.8,36.4c-5.6,23.1,45.2,63.1,45.2,63.1"/>
		<g id="Calque_4">
			<line class="st13" x1="1051.8" y1="214.3" x2="1010.9" y2="263.4"/>
			<line class="st13" x1="1010.9" y1="196" x2="959.9" y2="249.1"/>
			<line class="st13" x1="935.4" y1="181.7" x2="898.6" y2="222.5"/>
			<line class="st13" x1="606.5" y1="181.7" x2="575.9" y2="238.9"/>
			<line class="st13" x1="557.5" y1="181.7" x2="518.7" y2="238.9"/>
			<line class="st13" x1="479.9" y1="196" x2="449.2" y2="249.1"/>
			<line class="st13" x1="578.9" y1="1276.5" x2="624.8" y2="1233.4"/>
			<line class="st13" x1="650.4" y1="1304" x2="710" y2="1252.5"/>
			<line class="st13" x1="776" y1="1304" x2="834.3" y2="1244.8"/>
			<path class="st13" d="M886.3,1285.7c0,0,50-69.4,52.1-73.5"/>
			<path class="st12" d="M625.7,303c-3.7,22.6,10.4,88.8,14.5,107.3c0.7,3,5.8,13.4,8.7,14.2c18.2,5.2,81.6,13.1,99.5-22.8
				c6.8-13.7,5.3-98,5.3-98s-5.3,98,6,110.7c12.5,14.1,62,13.9,88.7,12.8c10.2-0.5,18.8-8.2,20.7-18.6
				c5.7-31.2,16.5-94.2,13.1-104.1"/>
			<polygon points="635.7,416.7 636.3,403.5 641.1,414.5 			"/>
			<path d="M441.6,476.6l14.7-5.4c0,0-17.8-14.9-21.9-24.5C439.6,460.5,444.5,469.7,441.6,476.6z"/>
			<path d="M421,416.6l-3.4-14c0,0-5.5,0.3-4.8,4.1C413.5,410.4,421,416.6,421,416.6z"/>
			<path d="M534.1,443l14.7-4.4c0,0-8.5-7.2-17.5-25.1C525,395.7,538.1,440.5,534.1,443z"/>
			<path d="M503.5,346.3c0,0,3-5.1,6.4-2.7c3.5,2.4,2.3,20.3,2.3,20.3L503.5,346.3z"/>
			<path d="M625.1,337.2l0.4-29c0,0-11.7-0.9-10.2,2.8S625.1,337.2,625.1,337.2z"/>
		</g>
		<path class="st14" d="M752.5,1214.8c0,0-261.4-20.4-357.4-241s-212.4-290-212.4-290S339.1,506.8,386.2,434
			c53.8-83.2,193.2-140.4,366.3-140.4c165.4,0,294.1,53.1,355.4,138.9s98,153.2,214.5,251.2c0,0-116.4,69.4-212.4,290
			S752.5,1214.8,752.5,1214.8"/>
		<path class="st15" d="M1252.7,458.7"/>
		<g id="Calque_7">
		</g>
	</g>
	<g id="Calque_5">
	</g>
	<path class="st16" d="M1179.7,534c0,0,91.5,121.1,144.6,151.3c-65.9,42.1-141.1,156.5-159.1,184.7c50.4,0,176.7-182.4,176.7-182.4
		S1225.5,523.2,1179.7,534z"/>
	<path class="st16" d="M317.1,529.6c0,0-64.6,97.5-132.6,151.9c62.2,42.1,153.6,167.6,157.4,192c-38.9-22.3-174-189.7-174-189.7
		S273.9,518.9,317.1,529.6z"/>
	<path class="st17" d="M1180.8,536.8c0,0,93.1,121.8,142.6,149.4c-46.5,25.5-140.5,144.6-174.8,212.6"/>
	<path class="st17" d="M316.8,529.1c0,0-84.4,122.8-132.2,154.2c53.1,36,139,145.2,160.5,197.6"/>
</g>
</svg>
