<?xml version="1.0" encoding="utf-8"?>
<!-- Generator: Adobe Illustrator 25.2.0, SVG Export Plug-In . SVG Version: 6.00 Build 0)  -->
<svg version="1.1" id="Warstwa_1" xmlns="http://www.w3.org/2000/svg" xmlns:xlink="http://www.w3.org/1999/xlink" x="0px" y="0px"
	 viewBox="0 0 500 500" style="enable-background:new 0 0 500 500;" xml:space="preserve">
<style type="text/css">
	.st0{fill:#121331;}
	.st1{fill:none;stroke:#121331;stroke-width:12;stroke-linecap:round;stroke-linejoin:round;stroke-miterlimit:10;}
	.st2{fill:#08a88a;}
</style>
<g>
	<path class="st0" d="M307.24,416.35c-2.65,0-5.07-1.77-5.79-4.45l-10.2-38.05c-24.69-8.92-45.45-26.2-58.7-48.94l-27.22-46.72
		c-4.92-8.46-2.36-19.28,5.82-24.62c0.08-0.05,0.15-0.1,0.23-0.14c8.42-5.42,18.42-7.2,28.21-5.01c5.43,1.21,10.4,3.56,14.65,6.85
		l-1.04-3.87c-0.86-3.2,1.04-6.49,4.24-7.35c3.2-0.86,6.49,1.04,7.35,4.24l9.52,35.54c0.77,2.88-0.69,5.88-3.42,7.06
		c-2.74,1.18-5.92,0.17-7.48-2.36l-10.5-17.05c-3.59-5.83-9.25-9.86-15.94-11.36c-6.68-1.5-13.52-0.25-19.25,3.49
		c-0.05,0.03-0.11,0.07-0.16,0.1c-2.72,1.88-3.54,5.56-1.87,8.44l27.22,46.72c12.32,21.15,31.92,37.01,55.18,44.65
		c1.92,0.63,3.4,2.19,3.92,4.15l9.47,35.33l107.81-28.88l-9.47-35.34c-0.22-0.83-0.26-1.69-0.12-2.53
		c0.04-0.23,3.86-24.72-4.79-56.99c-4.99-18.61-9.64-35.96-12.83-47.88l-4.3-16.04c-0.86-3.2,1.04-6.49,4.24-7.35
		c3.2-0.86,6.49,1.04,7.35,4.24l4.3,16.04c3.19,11.92,7.84,29.27,12.83,47.88c8.28,30.89,5.99,54.84,5.23,60.71l10.7,39.95
		c0.86,3.2-1.04,6.49-4.24,7.35l-119.4,31.99C308.27,416.28,307.75,416.35,307.24,416.35z"/>
	<path class="st0" d="M263.29,271.88c-2.65,0-5.07-1.77-5.79-4.45l-31.2-116.44c-3.15-11.74,4.56-24.43,16.82-27.72
		c12.68-3.4,25.39,4.3,28.93,17.52l30.68,114.52c0.86,3.2-1.04,6.49-4.24,7.35c-3.2,0.85-6.49-1.04-7.35-4.24L260.46,143.9
		c-1.86-6.95-7.85-10.75-14.24-9.04c-5.77,1.55-9.74,7.75-8.33,13.02l31.2,116.44c0.86,3.2-1.04,6.49-4.24,7.35
		C264.33,271.81,263.81,271.88,263.29,271.88z"/>
	<path class="st0" d="M330.58,253.85c-2.65,0-5.07-1.77-5.79-4.45l-14.15-52.79c-1.55-5.78-0.75-11.83,2.24-17.01
		c2.99-5.19,7.83-8.9,13.61-10.45c13.01-3.49,26.42,4.26,29.9,17.26l13.63,50.86c0.86,3.2-1.04,6.49-4.24,7.35
		c-3.2,0.86-6.49-1.04-7.35-4.24l-13.63-50.86c-1.77-6.61-8.59-10.55-15.2-8.78c-5.55,1.49-8.85,7.21-7.37,12.76l14.15,52.79
		c0.86,3.2-1.04,6.49-4.24,7.35C331.62,253.78,331.1,253.85,330.58,253.85z"/>
	<path class="st0" d="M364.23,244.83c-2.65,0-5.07-1.77-5.79-4.45l-7.02-26.2c-3.17-11.82,3.79-22.2,17.32-25.83
		c12.47-3.35,25.34,4.09,28.68,16.56l6.25,23.35c0.86,3.2-1.04,6.49-4.24,7.35c-3.2,0.86-6.49-1.04-7.35-4.24l-6.25-23.35
		c-1.63-6.08-7.9-9.7-13.98-8.07c-3.32,0.89-10.81,3.75-8.84,11.13l7.02,26.2c0.86,3.2-1.04,6.49-4.24,7.35
		C365.27,244.77,364.74,244.83,364.23,244.83z"/>
	<path class="st0" d="M296.94,262.87c-2.65,0-5.07-1.77-5.79-4.45l-36.87-137.49c-3.34-12.47,4.08-25.34,16.56-28.68
		c6.04-1.62,12.35-0.79,17.77,2.34c5.42,3.13,9.29,8.18,10.91,14.22l36.87,137.49c0.86,3.2-1.04,6.49-4.24,7.35
		c-3.2,0.86-6.49-1.04-7.35-4.24l-36.87-137.49c-0.79-2.95-2.68-5.41-5.32-6.93c-2.64-1.52-5.72-1.93-8.66-1.14
		c-2.95,0.79-5.41,2.68-6.93,5.32c-1.53,2.64-1.93,5.72-1.14,8.66l36.87,137.49c0.86,3.2-1.04,6.49-4.24,7.35
		C297.98,262.8,297.45,262.87,296.94,262.87z"/>
	<path class="st1" d="M269.6,298.92"/>
</g>
<g>
	<path class="st2" d="M224.04,115.56c-0.39,0-0.79-0.04-1.18-0.12c-80.88-16.17-146.65-0.22-147.3-0.06
		c-3.21,0.8-6.47-1.16-7.27-4.37c-0.8-3.21,1.15-6.47,4.37-7.27c2.77-0.69,68.91-16.79,152.56-0.06c3.25,0.65,5.36,3.81,4.71,7.06
		C229.35,113.59,226.84,115.56,224.04,115.56z"/>
	<path class="st2" d="M93.79,128.49c-1.13,0-2.27-0.32-3.29-0.99l-19.69-12.93c-2.77-1.82-3.54-5.54-1.72-8.31l12.93-19.69
		c1.82-2.77,5.54-3.54,8.31-1.72c2.77,1.82,3.54,5.54,1.72,8.31l-9.64,14.68l14.68,9.64c2.77,1.82,3.54,5.54,1.72,8.31
		C97.65,127.54,95.74,128.49,93.79,128.49z"/>
</g>
</svg>
